<svg xmlns="http://www.w3.org/2000/svg" xmlns:xlink="http://www.w3.org/1999/xlink" width="1440" zoomAndPan="magnify" viewBox="0 0 1080 599.999999" height="800" preserveAspectRatio="xMidYMid meet" version="1.0"><defs><clipPath id="8c2fbdb541"><path d="M 414 180 L 666.796875 180 L 666.796875 420 L 414 420 Z M 414 180 " clip-rule="nonzero"/></clipPath></defs><rect x="-108" width="1296" fill="#ffffff" y="-60" height="719.999999" fill-opacity="1"/><rect x="-108" width="1296" fill="#ffffff" y="-60" height="719.999999" fill-opacity="1"/><rect x="-108" width="1296" fill="#ffffff" y="-60" height="719.999999" fill-opacity="1"/><g clip-path="url(#8c2fbdb541)"><path fill="#3f9133" d="M 663.996094 338.292969 L 661.648438 337.285156 C 650.578125 332.640625 637.308594 330.199219 623.269531 330.199219 C 613.160156 330.199219 602.90625 331.441406 593.035156 333.789062 C 599.3125 328.042969 605.253906 321.71875 610.714844 314.917969 C 625.664062 296.191406 636.011719 274.785156 639.847656 254.714844 L 640.324219 252.175781 C 640.804688 249.734375 638.503906 247.675781 636.15625 248.394531 L 633.714844 249.113281 C 614.882812 254.667969 595.382812 267.214844 578.757812 284.410156 C 572.722656 290.683594 567.164062 297.34375 562.230469 304.382812 C 564.527344 290.445312 565.390625 275.789062 564.71875 261.277344 C 563.425781 232.398438 556.144531 205.144531 544.261719 184.503906 L 542.871094 182.203125 C 541.578125 180 538.417969 180 537.121094 182.203125 L 535.78125 184.550781 C 523.898438 205.191406 516.617188 232.445312 515.324219 261.324219 C 514.652344 275.835938 515.515625 290.445312 517.8125 304.429688 C 512.878906 297.390625 507.367188 290.730469 501.285156 284.457031 C 484.660156 267.265625 465.160156 254.714844 446.328125 249.160156 L 443.886719 248.441406 C 441.488281 247.722656 439.238281 249.78125 439.714844 252.226562 L 440.195312 254.761719 C 444.027344 274.832031 454.328125 296.242188 469.328125 314.96875 C 474.789062 321.816406 480.683594 328.136719 487.007812 333.886719 C 477.136719 331.492188 466.882812 330.292969 456.773438 330.292969 C 442.734375 330.292969 429.414062 332.734375 418.394531 337.382812 L 416.046875 338.386719 C 413.75 339.34375 413.316406 342.363281 415.1875 343.941406 L 417.148438 345.570312 C 426.300781 353.234375 438.136719 359.652344 451.40625 363.964844 C 464.296875 368.179688 478.238281 370.382812 491.75 370.332031 C 478.859375 378.09375 468.175781 389.25 459.839844 403.765625 L 458.5 406.109375 C 457.253906 408.3125 458.832031 411.042969 461.375 411.042969 L 464.054688 411.042969 C 490.742188 411.042969 513.597656 399.597656 531.949219 377.039062 L 531.949219 413.292969 C 531.949219 416.984375 534.917969 420 538.558594 420 L 541.433594 420 C 545.074219 420 548.046875 416.984375 548.046875 413.292969 L 548.046875 377.085938 C 566.445312 399.644531 589.25 411.042969 615.9375 411.089844 L 618.621094 411.089844 C 621.160156 411.089844 622.742188 408.363281 621.496094 406.160156 L 620.15625 403.8125 C 611.816406 389.300781 601.132812 378.140625 588.246094 370.382812 C 588.339844 370.382812 588.484375 370.382812 588.582031 370.382812 C 601.996094 370.382812 615.792969 368.179688 628.585938 364.011719 C 641.859375 359.699219 653.691406 353.28125 662.890625 345.523438 L 664.855469 343.894531 C 666.773438 342.265625 666.292969 339.25 663.996094 338.292969 Z M 626.816406 358.40625 C 614.597656 362.382812 601.421875 364.488281 588.628906 364.488281 C 583.550781 364.488281 578.566406 364.15625 573.824219 363.53125 L 562.324219 361.953125 C 560.40625 361.710938 559.738281 364.394531 561.558594 365.066406 L 572.433594 369.136719 C 589.824219 375.648438 603.914062 387.816406 614.261719 405.199219 C 588.964844 404.671875 567.355469 392.941406 550.105469 370.238281 C 549.195312 369.089844 548.238281 367.9375 547.230469 366.933594 L 544.023438 363.675781 C 543.351562 363.003906 542.25 363.484375 542.25 364.394531 L 542.25 413.292969 C 542.25 413.773438 541.914062 414.15625 541.484375 414.15625 L 538.609375 414.15625 C 538.175781 414.15625 537.839844 413.773438 537.839844 413.292969 L 537.839844 364.394531 C 537.839844 363.484375 536.738281 363.003906 536.070312 363.675781 L 532.859375 366.933594 C 531.851562 367.988281 530.847656 369.089844 529.984375 370.285156 C 512.734375 392.988281 491.125 404.722656 465.828125 405.25 C 476.226562 387.863281 490.265625 375.746094 507.65625 369.183594 L 518.53125 365.113281 C 520.351562 364.441406 519.632812 361.710938 517.765625 362 L 506.265625 363.582031 C 501.523438 364.25 496.539062 364.539062 491.460938 364.539062 C 478.667969 364.539062 465.492188 362.429688 453.277344 358.457031 C 441.347656 354.574219 430.613281 348.925781 422.179688 342.125 C 432.242188 338.195312 444.171875 336.089844 456.820312 336.089844 C 471.148438 336.089844 485.761719 338.675781 499.03125 343.558594 L 507.417969 346.625 C 509.191406 347.246094 510.433594 344.949219 508.949219 343.800781 L 501.8125 338.433594 C 491.605469 330.820312 482.214844 321.671875 473.925781 311.230469 C 459.9375 293.703125 450.160156 273.875 446.328125 255.148438 C 463.722656 260.65625 481.734375 272.4375 497.210938 288.433594 C 506.699219 298.203125 515.082031 309.554688 521.597656 321.191406 L 526.535156 330.007812 C 527.445312 331.683594 529.984375 330.675781 529.503906 328.808594 L 526.964844 319.039062 C 522.367188 301.078125 520.351562 281.203125 521.261719 261.566406 C 522.507812 234.3125 529.167969 208.59375 540.09375 188.910156 C 551.015625 208.546875 557.726562 234.265625 558.921875 261.566406 C 559.785156 281.203125 557.820312 301.078125 553.222656 319.039062 L 550.683594 328.808594 C 550.203125 330.628906 552.742188 331.683594 553.652344 330.007812 L 558.585938 321.191406 C 565.054688 309.554688 573.488281 298.25 582.976562 288.433594 C 598.449219 272.4375 616.464844 260.65625 633.859375 255.148438 C 629.976562 273.875 620.203125 293.703125 606.261719 311.230469 C 597.972656 321.625 588.582031 330.773438 578.375 338.433594 L 571.140625 343.800781 C 569.65625 344.902344 570.902344 347.25 572.671875 346.625 L 581.058594 343.558594 C 594.328125 338.675781 608.941406 336.089844 623.269531 336.089844 C 635.917969 336.089844 647.847656 338.148438 657.910156 342.125 C 649.476562 348.875 638.746094 354.527344 626.816406 358.40625 Z M 626.816406 358.40625 " fill-opacity="1" fill-rule="nonzero"/></g></svg>