<svg xmlns="http://www.w3.org/2000/svg" xmlns:xlink="http://www.w3.org/1999/xlink" width="1440" zoomAndPan="magnify" viewBox="0 0 1080 599.999999" height="800" preserveAspectRatio="xMidYMid meet" version="1.0"><defs><clipPath id="86e048d244"><path d="M 608 367 L 640.648438 367 L 640.648438 400 L 608 400 Z M 608 367 " clip-rule="nonzero"/></clipPath></defs><rect x="-108" width="1296" fill="#ffffff" y="-60" height="719.999999" fill-opacity="1"/><rect x="-108" width="1296" fill="#ffffff" y="-60" height="719.999999" fill-opacity="1"/><path fill="#074785" d="M 487.699219 228.207031 C 486.851562 227.390625 485.148438 215.902344 483.605469 215.992188 C 482.058594 216.085938 480.710938 227.480469 479.988281 228.230469 C 478.539062 229.738281 467.929688 230.800781 468.015625 232.261719 C 468.101562 233.71875 478.519531 234.40625 479.992188 235.828125 C 480.8125 236.625 482.542969 248.140625 484.085938 248.050781 C 485.632812 247.960938 486.953125 236.601562 487.703125 235.824219 C 489.105469 234.371094 499.796875 233.246094 499.710938 231.78125 C 499.621094 230.316406 489.113281 229.582031 487.699219 228.207031 Z M 487.699219 228.207031 " fill-opacity="1" fill-rule="nonzero"/><g clip-path="url(#86e048d244)"><path fill="#074785" d="M 628.539062 379.320312 C 627.691406 378.496094 625.988281 367.011719 624.445312 367.101562 C 622.898438 367.195312 621.550781 378.589844 620.824219 379.339844 C 619.378906 380.84375 608.769531 381.910156 608.855469 383.371094 C 608.941406 384.828125 619.359375 385.515625 620.832031 386.9375 C 621.652344 387.730469 623.378906 399.25 624.925781 399.160156 C 626.472656 399.070312 627.792969 387.710938 628.542969 386.929688 C 629.945312 385.480469 640.632812 384.355469 640.546875 382.890625 C 640.460938 381.425781 629.953125 380.691406 628.539062 379.320312 Z M 628.539062 379.320312 " fill-opacity="1" fill-rule="nonzero"/></g><path fill="#fd6085" d="M 589.023438 400.039062 C 589.023438 402.167969 587.4375 404.878906 585.433594 405.972656 C 560.230469 419.742188 529.699219 419.742188 504.496094 405.972656 C 502.488281 404.878906 500.90625 402.167969 500.90625 400.039062 C 500.90625 395.976562 500.90625 391.910156 500.90625 387.84375 C 500.90625 385.71875 502.488281 384.976562 504.496094 386.070312 C 529.699219 399.84375 560.230469 399.84375 585.433594 386.070312 C 587.4375 384.976562 589.023438 385.71875 589.023438 387.84375 C 589.023438 391.90625 589.023438 395.976562 589.023438 400.039062 Z M 589.023438 400.039062 " fill-opacity="1" fill-rule="evenodd"/><path fill="#29aefd" d="M 620.671875 326.238281 C 620.671875 331.28125 620.175781 336.207031 619.230469 340.96875 C 612.371094 375.511719 482.101562 378.78125 472.886719 347.582031 C 470.886719 340.816406 469.8125 333.652344 469.8125 326.238281 C 469.8125 284.644531 503.585938 250.925781 545.242188 250.925781 C 586.902344 250.925781 620.671875 284.644531 620.671875 326.238281 Z M 620.671875 326.238281 " fill-opacity="1" fill-rule="evenodd"/><path fill="#7be1d7" d="M 545.242188 401.554688 C 581.859375 401.554688 612.378906 375.496094 619.230469 340.945312 C 615.515625 339.007812 611.039062 338.265625 605.902344 339.121094 C 600.792969 339.847656 596.78125 342.039062 593.496094 337.296875 C 590.574219 332.925781 592.039062 328.554688 586.5625 325.273438 C 583.277344 322.722656 579.628906 322.359375 575.613281 323.453125 C 569.414062 324.910156 568.683594 328.191406 566.128906 332.925781 C 561.019531 341.671875 550.800781 341.308594 546.058594 332.5625 C 540.585938 322.722656 533.652344 314.710938 521.246094 316.167969 C 516.5 316.894531 510.664062 319.082031 508.472656 323.816406 C 506.285156 328.191406 508.109375 332.925781 505.191406 337.296875 C 499.714844 346.410156 490.230469 342.039062 481.472656 343.855469 C 477.535156 344.667969 474.769531 345.917969 472.886719 347.5625 C 482.097656 378.769531 511.003906 401.554688 545.242188 401.554688 Z M 545.242188 401.554688 " fill-opacity="1" fill-rule="evenodd"/><path fill="#29aefd" d="M 573.199219 193.574219 L 573.199219 263.253906 C 573.199219 277.394531 562.042969 288.964844 548.410156 288.964844 L 541.992188 288.964844 C 528.359375 288.964844 517.203125 277.394531 517.203125 263.253906 L 517.203125 193.574219 Z M 573.199219 193.574219 " fill-opacity="1" fill-rule="evenodd"/><path fill="#074785" d="M 573.160156 193.574219 C 573.160156 194.007812 573.113281 194.445312 573.027344 194.878906 C 572.9375 195.3125 572.800781 195.746094 572.621094 196.171875 C 572.445312 196.601562 572.222656 197.023438 571.957031 197.441406 C 571.691406 197.859375 571.382812 198.269531 571.03125 198.675781 C 570.679688 199.078125 570.289062 199.472656 569.859375 199.855469 C 569.425781 200.242188 568.957031 200.617188 568.449219 200.980469 C 567.941406 201.34375 567.394531 201.691406 566.8125 202.03125 C 566.234375 202.367188 565.617188 202.691406 564.972656 203 C 564.324219 203.308594 563.644531 203.601562 562.9375 203.878906 C 562.230469 204.15625 561.496094 204.414062 560.734375 204.65625 C 559.972656 204.898438 559.1875 205.125 558.382812 205.328125 C 557.574219 205.535156 556.746094 205.722656 555.902344 205.890625 C 555.054688 206.054688 554.195312 206.203125 553.316406 206.328125 C 552.441406 206.457031 551.554688 206.5625 550.65625 206.648438 C 549.757812 206.734375 548.855469 206.796875 547.941406 206.839844 C 547.03125 206.882812 546.117188 206.902344 545.203125 206.902344 C 544.285156 206.902344 543.375 206.882812 542.460938 206.839844 C 541.550781 206.796875 540.644531 206.734375 539.75 206.648438 C 538.851562 206.5625 537.964844 206.457031 537.085938 206.328125 C 536.210938 206.203125 535.347656 206.054688 534.503906 205.890625 C 533.65625 205.722656 532.832031 205.535156 532.023438 205.328125 C 531.214844 205.125 530.429688 204.898438 529.671875 204.65625 C 528.910156 204.414062 528.175781 204.15625 527.464844 203.878906 C 526.757812 203.601562 526.082031 203.308594 525.433594 203 C 524.785156 202.691406 524.171875 202.367188 523.589844 202.03125 C 523.011719 201.691406 522.464844 201.34375 521.957031 200.980469 C 521.449219 200.617188 520.976562 200.242188 520.546875 199.855469 C 520.113281 199.472656 519.722656 199.078125 519.371094 198.675781 C 519.023438 198.269531 518.714844 197.859375 518.449219 197.441406 C 518.183594 197.023438 517.960938 196.601562 517.78125 196.171875 C 517.601562 195.746094 517.46875 195.3125 517.378906 194.878906 C 517.289062 194.445312 517.246094 194.007812 517.246094 193.574219 C 517.246094 193.136719 517.289062 192.699219 517.378906 192.265625 C 517.46875 191.832031 517.601562 191.402344 517.78125 190.972656 C 517.960938 190.542969 518.183594 190.121094 518.449219 189.703125 C 518.714844 189.285156 519.023438 188.875 519.371094 188.472656 C 519.722656 188.066406 520.113281 187.675781 520.546875 187.289062 C 520.976562 186.902344 521.449219 186.53125 521.957031 186.167969 C 522.464844 185.804688 523.011719 185.453125 523.589844 185.117188 C 524.171875 184.777344 524.785156 184.457031 525.433594 184.148438 C 526.082031 183.839844 526.757812 183.546875 527.464844 183.269531 C 528.175781 182.992188 528.910156 182.730469 529.671875 182.488281 C 530.429688 182.246094 531.214844 182.023438 532.023438 181.816406 C 532.832031 181.609375 533.65625 181.425781 534.503906 181.257812 C 535.347656 181.089844 536.210938 180.941406 537.085938 180.816406 C 537.964844 180.6875 538.851562 180.582031 539.75 180.5 C 540.644531 180.414062 541.550781 180.347656 542.460938 180.304688 C 543.375 180.261719 544.285156 180.242188 545.203125 180.242188 C 546.117188 180.242188 547.03125 180.261719 547.941406 180.304688 C 548.855469 180.347656 549.757812 180.414062 550.65625 180.5 C 551.554688 180.582031 552.441406 180.6875 553.316406 180.816406 C 554.195312 180.941406 555.054688 181.089844 555.902344 181.257812 C 556.746094 181.425781 557.574219 181.609375 558.382812 181.816406 C 559.1875 182.023438 559.972656 182.246094 560.734375 182.488281 C 561.496094 182.730469 562.230469 182.992188 562.9375 183.269531 C 563.644531 183.546875 564.324219 183.839844 564.972656 184.148438 C 565.617188 184.457031 566.234375 184.777344 566.8125 185.117188 C 567.394531 185.453125 567.941406 185.804688 568.449219 186.167969 C 568.957031 186.53125 569.425781 186.902344 569.859375 187.289062 C 570.289062 187.675781 570.679688 188.066406 571.03125 188.472656 C 571.382812 188.875 571.691406 189.285156 571.957031 189.703125 C 572.222656 190.121094 572.445312 190.542969 572.621094 190.972656 C 572.800781 191.402344 572.9375 191.832031 573.027344 192.265625 C 573.113281 192.699219 573.160156 193.136719 573.160156 193.574219 Z M 573.160156 193.574219 " fill-opacity="1" fill-rule="nonzero"/><path fill="#074785" d="M 488.402344 294.929688 C 485.140625 292.585938 481.882812 290.242188 478.625 287.898438 C 474.59375 295.320312 472.574219 302.351562 471.144531 312.3125 C 473.488281 313.113281 475.835938 313.914062 478.175781 314.710938 C 485.960938 317.152344 492.167969 312.53125 494.082031 308.832031 C 494.394531 308.222656 494.328125 309.59375 494.640625 308.984375 C 496.554688 305.28125 494.902344 299.847656 488.402344 294.929688 Z M 488.402344 294.929688 " fill-opacity="1" fill-rule="evenodd"/><path fill="#074785" d="M 517.203125 255.96875 C 535.359375 263.316406 555.117188 263.078125 573.28125 256.015625 C 558.257812 269.535156 532.167969 269.703125 517.203125 255.96875 Z M 517.203125 255.96875 " fill-opacity="1" fill-rule="nonzero"/><path fill="#29aefd" d="M 464.449219 263.507812 C 473.625 273.191406 482.796875 282.871094 491.972656 292.554688 C 497.433594 298.601562 499.796875 306.234375 497.222656 309.507812 C 496.796875 310.046875 496.375 310.585938 495.953125 311.125 C 493.375 314.398438 485.394531 313.921875 478.210938 310.0625 C 466.609375 303.464844 455.011719 296.871094 443.414062 290.273438 Z M 464.449219 263.507812 " fill-opacity="1" fill-rule="evenodd"/><path fill="#074785" d="M 464.398438 263.574219 C 468.238281 266.582031 466.660156 274.980469 460.878906 282.335938 C 455.097656 289.691406 447.300781 293.21875 443.464844 290.210938 C 439.628906 287.203125 441.203125 278.804688 446.984375 271.449219 C 452.765625 264.089844 460.5625 260.570312 464.398438 263.574219 Z M 464.398438 263.574219 " fill-opacity="1" fill-rule="evenodd"/><path fill="#074785" d="M 536.953125 370.738281 C 534.066406 368.636719 532.089844 365.109375 531.707031 361.617188 C 531.371094 358.621094 531.121094 354.976562 532.875 352.34375 C 534.636719 349.707031 537.621094 348.128906 540.792969 348.5625 C 542.640625 348.808594 544.382812 349.375 545.90625 350.453125 C 547.992188 351.921875 549.1875 350.710938 550.804688 349.253906 C 552.332031 347.871094 553.867188 346.511719 555.984375 346.183594 C 559.722656 345.609375 563.675781 348.492188 565.304688 351.589844 C 567.109375 355.023438 566.8125 358.863281 565.933594 362.515625 C 565.449219 364.527344 564.070312 366.328125 563.097656 368.226562 C 554.023438 365.324219 545.28125 365.902344 536.953125 370.738281 Z M 536.953125 370.738281 " fill-opacity="1" fill-rule="evenodd"/><path fill="#fd6085" d="M 536.953125 370.738281 C 545.523438 362.429688 552.808594 361.726562 563.097656 368.226562 C 555.84375 377.292969 546.054688 378.234375 536.953125 370.738281 Z M 536.953125 370.738281 " fill-opacity="1" fill-rule="evenodd"/><path fill="#ffffff" d="M 531.390625 345.234375 C 528.445312 346.992188 525.050781 348.113281 521.382812 348.398438 C 508.730469 349.386719 497.617188 340.039062 496.558594 327.535156 C 495.5 315.023438 504.890625 304.082031 517.539062 303.101562 C 521.136719 302.820312 524.605469 303.375 527.757812 304.597656 C 535.695312 307.679688 538.601562 340.933594 531.390625 345.234375 Z M 531.390625 345.234375 " fill-opacity="1" fill-rule="evenodd"/><path fill="#074785" d="M 527.414062 304.46875 C 520.472656 305.773438 514.351562 310.527344 511.667969 317.546875 C 507.578125 328.238281 513.019531 340.152344 523.820312 344.152344 C 526.183594 345.019531 528.609375 345.445312 531 345.460938 C 538.4375 341.222656 543.132812 333 542.363281 323.960938 C 541.59375 314.878906 535.527344 307.472656 527.414062 304.46875 Z M 527.414062 304.46875 " fill-opacity="1" fill-rule="evenodd"/><path fill="#ffffff" d="M 588.882812 340.203125 C 586.261719 342.199219 583.15625 343.667969 579.699219 344.398438 C 567.289062 347.035156 555.042969 339.234375 552.347656 326.96875 C 549.644531 314.710938 557.523438 302.628906 569.929688 299.992188 C 573.355469 299.265625 576.765625 299.335938 579.964844 300.070312 C 588.371094 302 595.675781 335.023438 588.882812 340.203125 Z M 588.882812 340.203125 " fill-opacity="1" fill-rule="evenodd"/><path fill="#074785" d="M 579.902344 300.054688 C 573.1875 302.265625 567.746094 307.78125 566.011719 315.085938 C 563.367188 326.226562 570.324219 337.316406 581.558594 339.863281 C 584.015625 340.425781 586.476562 340.519531 588.847656 340.226562 C 595.660156 335.046875 599.234375 326.285156 597.285156 317.421875 C 595.328125 308.515625 588.332031 301.972656 579.902344 300.054688 Z M 579.902344 300.054688 " fill-opacity="1" fill-rule="evenodd"/><path fill="#074785" d="M 596.96875 295.597656 C 593.398438 290.8125 588.019531 288.355469 582.0625 289.09375 C 579.074219 289.46875 579.890625 294.050781 582.863281 293.683594 C 587.21875 293.136719 590.808594 295.132812 593.371094 298.558594 C 595.167969 300.972656 598.753906 297.996094 596.96875 295.597656 Z M 596.96875 295.597656 " fill-opacity="1" fill-rule="evenodd"/><path fill="#074785" d="M 511.269531 291.476562 C 505.296875 291.742188 500.242188 294.804688 497.515625 300.144531 C 496.144531 302.824219 500.402344 304.71875 501.761719 302.054688 C 503.757812 298.152344 507.429688 296.300781 511.707031 296.109375 C 514.714844 295.976562 514.257812 291.347656 511.269531 291.476562 Z M 511.269531 291.476562 " fill-opacity="1" fill-rule="evenodd"/><path fill="#29aefd" d="M 523.445312 357.125 C 523.511719 360.695312 519.449219 363.660156 514.367188 363.761719 C 509.285156 363.863281 505.109375 361.058594 505.035156 357.492188 C 504.96875 353.925781 509.027344 350.953125 514.113281 350.855469 C 519.195312 350.753906 523.371094 353.566406 523.445312 357.125 Z M 523.445312 357.125 " fill-opacity="1" fill-rule="nonzero"/><path fill="#29aefd" d="M 593.003906 354.21875 C 593.078125 357.785156 589.011719 360.757812 583.933594 360.851562 C 578.851562 360.957031 574.675781 358.152344 574.601562 354.585938 C 574.53125 351.019531 578.59375 348.050781 583.675781 347.949219 C 588.757812 347.847656 592.933594 350.65625 593.003906 354.21875 Z M 593.003906 354.21875 " fill-opacity="1" fill-rule="nonzero"/><path fill="#ffffff" d="M 538.574219 317.84375 C 537.109375 314.847656 535.15625 312.261719 532.226562 310.574219 C 530.910156 309.8125 529.878906 311.925781 531.183594 312.679688 C 533.535156 314.035156 535.179688 316.21875 536.351562 318.625 C 537.007812 319.972656 539.234375 319.207031 538.574219 317.84375 Z M 538.574219 317.84375 " fill-opacity="1" fill-rule="nonzero"/><path fill="#ffffff" d="M 528.796875 308.480469 C 528.449219 308.335938 528.105469 308.1875 527.761719 308.042969 C 527.167969 307.800781 526.480469 307.96875 526.183594 308.574219 C 525.917969 309.117188 526.125 309.90625 526.71875 310.148438 C 527.0625 310.292969 527.40625 310.445312 527.753906 310.585938 C 528.347656 310.832031 529.027344 310.65625 529.332031 310.050781 C 529.597656 309.507812 529.386719 308.722656 528.796875 308.480469 Z M 528.796875 308.480469 " fill-opacity="1" fill-rule="nonzero"/><path fill="#ffffff" d="M 539.496094 322.167969 C 539.339844 321.546875 538.558594 321.25 537.996094 321.449219 C 537.355469 321.679688 537.121094 322.324219 537.277344 322.949219 C 537.277344 322.929688 537.28125 322.925781 537.28125 322.90625 C 537.195312 323.539062 537.558594 324.15625 538.214844 324.285156 C 538.820312 324.398438 539.507812 323.984375 539.59375 323.351562 C 539.648438 322.925781 539.601562 322.578125 539.496094 322.167969 Z M 539.496094 322.167969 " fill-opacity="1" fill-rule="nonzero"/><path fill="#ffffff" d="M 537.269531 322.9375 C 537.269531 322.960938 537.269531 322.980469 537.269531 323 C 537.273438 322.984375 537.273438 322.964844 537.277344 322.949219 C 537.195312 322.621094 537.257812 322.859375 537.269531 322.9375 Z M 537.269531 322.9375 " fill-opacity="1" fill-rule="nonzero"/><path fill="#ffffff" d="M 537.269531 323 C 537.25 323.171875 537.269531 323.089844 537.269531 323 Z M 537.269531 323 " fill-opacity="1" fill-rule="nonzero"/><path fill="#ffffff" d="M 592.683594 313.699219 C 591.3125 310.660156 589.429688 308.019531 586.550781 306.246094 C 585.257812 305.445312 584.167969 307.53125 585.445312 308.320312 C 587.757812 309.746094 589.339844 311.972656 590.4375 314.414062 C 591.054688 315.777344 593.304688 315.082031 592.683594 313.699219 Z M 592.683594 313.699219 " fill-opacity="1" fill-rule="nonzero"/><path fill="#ffffff" d="M 583.183594 304.050781 C 582.84375 303.898438 582.507812 303.738281 582.164062 303.582031 C 581.582031 303.320312 580.890625 303.472656 580.570312 304.066406 C 580.289062 304.605469 580.472656 305.398438 581.058594 305.65625 C 581.398438 305.8125 581.734375 305.976562 582.082031 306.125 C 582.667969 306.390625 583.355469 306.234375 583.671875 305.640625 C 583.957031 305.101562 583.769531 304.3125 583.183594 304.050781 Z M 583.183594 304.050781 " fill-opacity="1" fill-rule="nonzero"/><path fill="#ffffff" d="M 593.476562 318.046875 C 593.339844 317.421875 592.566406 317.105469 592 317.285156 C 591.351562 317.496094 591.097656 318.136719 591.238281 318.761719 C 591.238281 318.746094 591.242188 318.738281 591.242188 318.722656 C 591.140625 319.351562 591.480469 319.976562 592.136719 320.125 C 592.734375 320.257812 593.433594 319.863281 593.539062 319.230469 C 593.609375 318.8125 593.570312 318.460938 593.476562 318.046875 Z M 593.476562 318.046875 " fill-opacity="1" fill-rule="nonzero"/><path fill="#ffffff" d="M 591.226562 318.753906 C 591.230469 318.773438 591.230469 318.796875 591.230469 318.8125 C 591.234375 318.796875 591.234375 318.78125 591.238281 318.761719 C 591.164062 318.433594 591.222656 318.675781 591.226562 318.753906 Z M 591.226562 318.753906 " fill-opacity="1" fill-rule="nonzero"/><path fill="#ffffff" d="M 591.230469 318.8125 C 591.203125 318.984375 591.226562 318.902344 591.230469 318.8125 Z M 591.230469 318.8125 " fill-opacity="1" fill-rule="nonzero"/><path fill="#ffffff" d="M 536.679688 229.992188 C 536.226562 229.554688 535.324219 223.4375 534.5 223.488281 C 533.675781 223.539062 532.960938 229.605469 532.574219 230.003906 C 531.800781 230.804688 526.15625 231.371094 526.203125 232.148438 C 526.246094 232.925781 531.792969 233.289062 532.578125 234.050781 C 533.015625 234.472656 533.933594 240.605469 534.757812 240.554688 C 535.578125 240.507812 536.285156 234.460938 536.683594 234.046875 C 537.429688 233.273438 543.121094 232.675781 543.074219 231.894531 C 543.027344 231.113281 537.433594 230.722656 536.679688 229.992188 Z M 536.679688 229.992188 " fill-opacity="1" fill-rule="nonzero"/><path fill="#ffffff" d="M 542.003906 287.628906 C 541.554688 287.191406 540.648438 281.074219 539.824219 281.125 C 539.003906 281.175781 538.285156 287.238281 537.898438 287.640625 C 537.128906 288.441406 531.480469 289.007812 531.527344 289.785156 C 531.574219 290.558594 537.121094 290.929688 537.902344 291.683594 C 538.339844 292.109375 539.257812 298.242188 540.082031 298.191406 C 540.90625 298.140625 541.609375 292.09375 542.007812 291.679688 C 542.753906 290.90625 548.445312 290.308594 548.398438 289.53125 C 548.355469 288.75 542.757812 288.359375 542.003906 287.628906 Z M 542.003906 287.628906 " fill-opacity="1" fill-rule="nonzero"/><path fill="#074785" d="M 582.226562 374.933594 C 581.777344 374.496094 580.871094 368.378906 580.050781 368.425781 C 579.226562 368.480469 578.507812 374.542969 578.125 374.941406 C 577.351562 375.742188 571.703125 376.3125 571.75 377.089844 C 571.796875 377.867188 577.34375 378.230469 578.128906 378.988281 C 578.5625 379.410156 579.484375 385.542969 580.304688 385.496094 C 581.128906 385.449219 581.832031 379.398438 582.234375 378.984375 C 582.976562 378.210938 588.667969 377.613281 588.625 376.832031 C 588.578125 376.054688 582.980469 375.664062 582.226562 374.933594 Z M 582.226562 374.933594 " fill-opacity="1" fill-rule="nonzero"/><path fill="#ffffff" d="M 570.742188 267.121094 C 568.980469 271.042969 574.914062 273.789062 576.675781 269.867188 C 578.4375 265.945312 572.503906 263.199219 570.742188 267.121094 Z M 570.742188 267.121094 " fill-opacity="1" fill-rule="evenodd"/><path fill="#ffffff" d="M 609.335938 314.351562 C 607.574219 318.277344 613.511719 321.023438 615.273438 317.097656 C 617.035156 313.175781 611.097656 310.433594 609.335938 314.351562 Z M 609.335938 314.351562 " fill-opacity="1" fill-rule="evenodd"/><path fill="#ffffff" d="M 581.660156 275.109375 C 593.269531 282.03125 604.128906 292.683594 607.292969 306.488281 C 608.023438 309.691406 612.855469 308.359375 612.125 305.164062 C 608.667969 290.074219 596.898438 278.265625 584.183594 270.6875 C 581.414062 269.035156 578.886719 273.453125 581.660156 275.109375 Z M 581.660156 275.109375 " fill-opacity="1" fill-rule="evenodd"/><path fill="#ffffff" d="M 553.824219 202.425781 C 553.46875 200.175781 550.035156 200.671875 550.394531 202.921875 C 550.75 205.175781 554.183594 204.679688 553.824219 202.425781 Z M 553.824219 202.425781 " fill-opacity="1" fill-rule="evenodd"/><path fill="#ffffff" d="M 522.980469 192.625 C 522.625 190.371094 519.191406 190.871094 519.550781 193.125 C 519.90625 195.375 523.335938 194.875 522.980469 192.625 Z M 522.980469 192.625 " fill-opacity="1" fill-rule="evenodd"/><path fill="#ffffff" d="M 546.660156 202.039062 C 539.496094 202.328125 531.582031 200.738281 526.171875 195.527344 C 524.917969 194.316406 523.160156 196.304688 524.410156 197.511719 C 530.324219 203.210938 538.976562 205.046875 546.820312 204.730469 C 548.53125 204.667969 548.371094 201.972656 546.660156 202.039062 Z M 546.660156 202.039062 " fill-opacity="1" fill-rule="evenodd"/><path fill="#ffffff" d="M 510.582031 383.851562 C 513.195312 380.3125 507.859375 376.285156 505.25 379.824219 C 502.636719 383.363281 507.96875 387.390625 510.582031 383.851562 Z M 510.582031 383.851562 " fill-opacity="1" fill-rule="evenodd"/><path fill="#ffffff" d="M 482.277344 328.3125 C 484.886719 324.777344 479.554688 320.746094 476.941406 324.285156 C 474.332031 327.824219 479.667969 331.851562 482.277344 328.3125 Z M 482.277344 328.3125 " fill-opacity="1" fill-rule="evenodd"/><path fill="#ffffff" d="M 501.40625 373.511719 C 491.3125 364.082031 482.773438 351.085938 482.613281 336.613281 C 482.574219 333.253906 477.460938 333.539062 477.496094 336.886719 C 477.671875 352.714844 486.867188 367.054688 497.921875 377.378906 C 500.335938 379.628906 503.816406 375.757812 501.40625 373.511719 Z M 501.40625 373.511719 " fill-opacity="1" fill-rule="evenodd"/><path fill="#ffffff" d="M 472.371094 277.929688 C 471.074219 276.542969 468.917969 278.550781 470.214844 279.941406 C 471.511719 281.324219 473.667969 279.320312 472.371094 277.929688 Z M 472.371094 277.929688 " fill-opacity="1" fill-rule="evenodd"/><path fill="#ffffff" d="M 488.957031 293.113281 C 484.800781 289.253906 480.566406 285.484375 476.414062 281.621094 C 475.054688 280.359375 473.09375 282.464844 474.453125 283.726562 C 478.605469 287.585938 482.839844 291.359375 486.992188 295.214844 C 488.351562 296.480469 490.3125 294.378906 488.957031 293.113281 Z M 488.957031 293.113281 " fill-opacity="1" fill-rule="evenodd"/><path fill="#ffffff" d="M 493.199219 296.929688 C 491.929688 295.574219 489.824219 297.535156 491.089844 298.890625 C 492.359375 300.246094 494.460938 298.285156 493.199219 296.929688 Z M 493.199219 296.929688 " fill-opacity="1" fill-rule="evenodd"/><path fill="#ffffff" d="M 560.367188 239.453125 C 557.492188 239.453125 557.492188 243.902344 560.367188 243.902344 C 563.242188 243.902344 563.242188 239.453125 560.367188 239.453125 Z M 560.367188 239.453125 " fill-opacity="1" fill-rule="nonzero"/><path fill="#ffffff" d="M 513.75 269.542969 C 510.875 269.542969 510.875 273.996094 513.75 273.996094 C 516.625 273.996094 516.625 269.542969 513.75 269.542969 Z M 513.75 269.542969 " fill-opacity="1" fill-rule="nonzero"/><path fill="#ffffff" d="M 531.527344 383.339844 C 528.652344 383.339844 528.652344 387.796875 531.527344 387.796875 C 534.402344 387.796875 534.402344 383.339844 531.527344 383.339844 Z M 531.527344 383.339844 " fill-opacity="1" fill-rule="nonzero"/><path fill="#ffffff" d="M 606.699219 346.261719 C 603.824219 346.261719 603.824219 350.71875 606.699219 350.71875 C 609.574219 350.71875 609.574219 346.261719 606.699219 346.261719 Z M 606.699219 346.261719 " fill-opacity="1" fill-rule="nonzero"/><path fill="#ffffff" d="M 468.015625 293.378906 C 465.140625 293.378906 465.140625 297.832031 468.015625 297.832031 C 470.890625 297.832031 470.890625 293.378906 468.015625 293.378906 Z M 468.015625 293.378906 " fill-opacity="1" fill-rule="nonzero"/></svg>