<svg xmlns="http://www.w3.org/2000/svg" xmlns:xlink="http://www.w3.org/1999/xlink" width="1440" zoomAndPan="magnify" viewBox="0 0 1080 599.999999" height="800" preserveAspectRatio="xMidYMid meet" version="1.0"><defs><clipPath id="ee84a7678e"><path d="M 420 180 L 660 180 L 660 420 L 420 420 Z M 420 180 " clip-rule="nonzero"/></clipPath></defs><rect x="-108" width="1296" fill="#ffffff" y="-60" height="719.999999" fill-opacity="1"/><rect x="-108" width="1296" fill="#ffffff" y="-60" height="719.999999" fill-opacity="1"/><rect x="-108" width="1296" fill="#ffffff" y="-60" height="719.999999" fill-opacity="1"/><g clip-path="url(#ee84a7678e)"><path fill="#a5e774" d="M 659.988281 299.992188 C 659.988281 301.957031 659.9375 303.917969 659.84375 305.878906 C 659.746094 307.839844 659.601562 309.800781 659.410156 311.753906 C 659.21875 313.707031 658.976562 315.65625 658.6875 317.597656 C 658.402344 319.542969 658.066406 321.476562 657.683594 323.402344 C 657.296875 325.328125 656.867188 327.242188 656.390625 329.148438 C 655.914062 331.054688 655.390625 332.945312 654.820312 334.824219 C 654.25 336.703125 653.632812 338.566406 652.972656 340.417969 C 652.3125 342.265625 651.605469 344.097656 650.851562 345.914062 C 650.101562 347.726562 649.304688 349.523438 648.464844 351.296875 C 647.625 353.070312 646.742188 354.824219 645.816406 356.558594 C 644.890625 358.289062 643.925781 359.996094 642.914062 361.683594 C 641.90625 363.367188 640.855469 365.027344 639.765625 366.660156 C 638.671875 368.292969 637.542969 369.894531 636.371094 371.472656 C 635.203125 373.050781 633.996094 374.597656 632.75 376.117188 C 631.503906 377.636719 630.222656 379.121094 628.902344 380.578125 C 627.582031 382.03125 626.230469 383.453125 624.839844 384.84375 C 623.453125 386.230469 622.03125 387.585938 620.574219 388.902344 C 619.121094 390.222656 617.632812 391.503906 616.117188 392.75 C 614.597656 393.996094 613.050781 395.203125 611.472656 396.375 C 609.894531 397.542969 608.289062 398.675781 606.65625 399.765625 C 605.023438 400.855469 603.367188 401.90625 601.679688 402.917969 C 599.996094 403.925781 598.289062 404.894531 596.558594 405.820312 C 594.824219 406.746094 593.070312 407.628906 591.296875 408.46875 C 589.519531 409.308594 587.726562 410.101562 585.910156 410.855469 C 584.097656 411.605469 582.265625 412.3125 580.417969 412.972656 C 578.566406 413.636719 576.703125 414.25 574.824219 414.820312 C 572.945312 415.390625 571.050781 415.914062 569.148438 416.390625 C 567.242188 416.871094 565.328125 417.300781 563.402344 417.683594 C 561.476562 418.066406 559.539062 418.402344 557.597656 418.691406 C 555.65625 418.976562 553.707031 419.21875 551.753906 419.410156 C 549.796875 419.601562 547.839844 419.746094 545.878906 419.84375 C 543.917969 419.941406 541.953125 419.988281 539.992188 419.988281 C 538.027344 419.988281 536.0625 419.941406 534.101562 419.84375 C 532.140625 419.746094 530.183594 419.601562 528.230469 419.410156 C 526.273438 419.21875 524.324219 418.976562 522.382812 418.691406 C 520.441406 418.402344 518.507812 418.066406 516.582031 417.683594 C 514.652344 417.300781 512.738281 416.871094 510.832031 416.390625 C 508.929688 415.914062 507.035156 415.390625 505.15625 414.820312 C 503.277344 414.25 501.414062 413.636719 499.566406 412.972656 C 497.714844 412.3125 495.882812 411.605469 494.070312 410.855469 C 492.253906 410.101562 490.460938 409.308594 488.683594 408.46875 C 486.910156 407.628906 485.15625 406.746094 483.425781 405.820312 C 481.691406 404.894531 479.984375 403.925781 478.300781 402.917969 C 476.617188 401.90625 474.957031 400.855469 473.324219 399.765625 C 471.691406 398.675781 470.085938 397.542969 468.507812 396.375 C 466.929688 395.203125 465.382812 393.996094 463.867188 392.75 C 462.347656 391.503906 460.859375 390.222656 459.40625 388.902344 C 457.949219 387.585938 456.527344 386.230469 455.140625 384.84375 C 453.75 383.453125 452.398438 382.03125 451.078125 380.578125 C 449.761719 379.121094 448.476562 377.636719 447.230469 376.117188 C 445.984375 374.597656 444.777344 373.050781 443.609375 371.472656 C 442.4375 369.894531 441.308594 368.292969 440.21875 366.660156 C 439.125 365.023438 438.074219 363.367188 437.066406 361.683594 C 436.054688 359.996094 435.089844 358.289062 434.164062 356.558594 C 433.238281 354.824219 432.355469 353.070312 431.515625 351.296875 C 430.675781 349.523438 429.878906 347.726562 429.128906 345.914062 C 428.375 344.097656 427.671875 342.265625 427.007812 340.417969 C 426.347656 338.566406 425.730469 336.703125 425.160156 334.824219 C 424.589844 332.945312 424.066406 331.054688 423.589844 329.148438 C 423.113281 327.242188 422.683594 325.328125 422.300781 323.402344 C 421.917969 321.476562 421.582031 319.542969 421.292969 317.597656 C 421.003906 315.65625 420.765625 313.707031 420.570312 311.753906 C 420.378906 309.800781 420.234375 307.839844 420.136719 305.878906 C 420.042969 303.917969 419.992188 301.957031 419.992188 299.992188 C 419.992188 298.027344 420.042969 296.066406 420.136719 294.105469 C 420.234375 292.140625 420.378906 290.183594 420.570312 288.230469 C 420.765625 286.277344 421.003906 284.328125 421.292969 282.382812 C 421.582031 280.441406 421.917969 278.507812 422.300781 276.582031 C 422.683594 274.65625 423.113281 272.738281 423.589844 270.835938 C 424.066406 268.929688 424.589844 267.039062 425.160156 265.160156 C 425.730469 263.277344 426.347656 261.414062 427.007812 259.566406 C 427.671875 257.71875 428.375 255.886719 429.128906 254.070312 C 429.878906 252.257812 430.675781 250.460938 431.515625 248.6875 C 432.355469 246.910156 433.238281 245.15625 434.164062 243.425781 C 435.089844 241.695312 436.054688 239.984375 437.066406 238.300781 C 438.074219 236.617188 439.125 234.957031 440.21875 233.324219 C 441.308594 231.691406 442.4375 230.085938 443.609375 228.507812 C 444.777344 226.933594 445.984375 225.382812 447.230469 223.867188 C 448.476562 222.347656 449.761719 220.863281 451.078125 219.40625 C 452.398438 217.953125 453.75 216.53125 455.140625 215.140625 C 456.527344 213.753906 457.949219 212.398438 459.40625 211.078125 C 460.859375 209.761719 462.347656 208.480469 463.867188 207.234375 C 465.382812 205.988281 466.929688 204.777344 468.507812 203.609375 C 470.085938 202.441406 471.691406 201.308594 473.324219 200.21875 C 474.957031 199.125 476.617188 198.078125 478.300781 197.066406 C 479.984375 196.058594 481.691406 195.089844 483.425781 194.164062 C 485.15625 193.238281 486.910156 192.355469 488.683594 191.515625 C 490.460938 190.675781 492.253906 189.878906 494.070312 189.128906 C 495.882812 188.378906 497.714844 187.671875 499.566406 187.007812 C 501.414062 186.347656 503.277344 185.730469 505.15625 185.160156 C 507.035156 184.59375 508.929688 184.066406 510.832031 183.589844 C 512.738281 183.113281 514.652344 182.683594 516.582031 182.300781 C 518.507812 181.917969 520.441406 181.582031 522.382812 181.292969 C 524.324219 181.003906 526.273438 180.765625 528.230469 180.574219 C 530.183594 180.378906 532.140625 180.234375 534.101562 180.140625 C 536.0625 180.042969 538.027344 179.996094 539.992188 179.996094 C 541.953125 179.996094 543.917969 180.042969 545.878906 180.140625 C 547.839844 180.234375 549.796875 180.378906 551.753906 180.574219 C 553.707031 180.765625 555.65625 181.003906 557.597656 181.292969 C 559.539062 181.582031 561.476562 181.917969 563.402344 182.300781 C 565.328125 182.683594 567.242188 183.113281 569.148438 183.589844 C 571.050781 184.066406 572.945312 184.59375 574.824219 185.160156 C 576.703125 185.730469 578.566406 186.347656 580.417969 187.007812 C 582.265625 187.671875 584.097656 188.378906 585.910156 189.128906 C 587.726562 189.878906 589.519531 190.675781 591.296875 191.515625 C 593.070312 192.355469 594.824219 193.238281 596.558594 194.164062 C 598.289062 195.089844 599.996094 196.058594 601.679688 197.066406 C 603.367188 198.078125 605.023438 199.125 606.65625 200.21875 C 608.289062 201.308594 609.894531 202.441406 611.472656 203.609375 C 613.050781 204.777344 614.597656 205.988281 616.117188 207.234375 C 617.632812 208.480469 619.121094 209.761719 620.574219 211.078125 C 622.03125 212.398438 623.453125 213.753906 624.839844 215.140625 C 626.230469 216.53125 627.582031 217.953125 628.902344 219.40625 C 630.222656 220.863281 631.503906 222.347656 632.75 223.867188 C 633.996094 225.382812 635.203125 226.933594 636.371094 228.507812 C 637.542969 230.085938 638.671875 231.691406 639.765625 233.324219 C 640.855469 234.957031 641.90625 236.617188 642.914062 238.300781 C 643.925781 239.984375 644.890625 241.695312 645.816406 243.425781 C 646.742188 245.15625 647.625 246.910156 648.464844 248.6875 C 649.304688 250.460938 650.101562 252.257812 650.851562 254.070312 C 651.605469 255.886719 652.3125 257.71875 652.972656 259.566406 C 653.632812 261.414062 654.25 263.277344 654.820312 265.160156 C 655.390625 267.039062 655.914062 268.929688 656.390625 270.835938 C 656.867188 272.738281 657.296875 274.65625 657.683594 276.582031 C 658.066406 278.507812 658.402344 280.441406 658.6875 282.382812 C 658.976562 284.328125 659.21875 286.277344 659.410156 288.230469 C 659.601562 290.183594 659.746094 292.140625 659.84375 294.105469 C 659.9375 296.066406 659.988281 298.027344 659.988281 299.992188 Z M 659.988281 299.992188 " fill-opacity="1" fill-rule="nonzero"/></g><path fill="#ffffff" d="M 540.210938 375.519531 L 539.632812 341.507812 C 539.636719 341.335938 539.5 341.195312 539.332031 341.191406 C 539.160156 341.1875 539.015625 341.324219 539.015625 341.496094 L 537.105469 375.457031 C 537.085938 376.316406 537.769531 377.023438 538.625 377.039062 C 539.484375 377.058594 540.191406 376.375 540.210938 375.519531 Z M 540.210938 375.519531 " fill-opacity="1" fill-rule="evenodd"/><path fill="#ffffff" d="M 541.214844 334.289062 C 541.214844 334.289062 543.144531 329.3125 545.777344 321.078125 C 547.546875 315.53125 549.734375 308.863281 551.609375 301.234375 C 552.648438 296.980469 553.550781 292.558594 554.230469 287.980469 C 554.664062 285.058594 555.011719 282.097656 555.109375 279.128906 C 555.207031 276.152344 555.039062 273.191406 554.808594 270.253906 C 554.445312 265.644531 553.816406 261.214844 553.167969 256.914062 C 552.441406 252.082031 551.617188 247.671875 550.789062 243.5625 C 548.355469 231.453125 546.292969 223.511719 546.292969 223.511719 C 546.3125 223.210938 545.941406 222.960938 545.472656 222.949219 C 545.003906 222.941406 544.609375 223.179688 544.59375 223.480469 C 544.59375 223.480469 541.714844 231.320312 538.027344 243.308594 C 536.777344 247.375 535.496094 251.742188 534.269531 256.539062 C 533.175781 260.800781 532.085938 265.195312 531.246094 269.78125 C 530.710938 272.703125 530.238281 275.65625 530.027344 278.628906 C 529.816406 281.59375 529.855469 284.5625 529.984375 287.496094 C 530.1875 292.09375 530.628906 296.542969 531.226562 300.828125 C 532.304688 308.515625 533.792969 315.257812 534.984375 320.859375 C 536.757812 329.183594 538.164062 334.230469 538.164062 334.230469 C 538.136719 334.773438 538.796875 335.222656 539.640625 335.242188 C 540.484375 335.257812 541.1875 334.832031 541.214844 334.289062 Z M 541.214844 334.289062 " fill-opacity="1" fill-rule="evenodd"/><path fill="#ffffff" d="M 541.46875 334.78125 C 541.46875 334.78125 545.03125 332.285156 550.566406 327.910156 C 554.292969 324.960938 558.8125 321.441406 563.589844 317.140625 C 566.25 314.738281 568.902344 312.164062 571.488281 309.386719 C 573.140625 307.613281 574.757812 305.777344 576.21875 303.824219 C 577.683594 301.867188 578.980469 299.800781 580.222656 297.726562 C 582.171875 294.46875 583.867188 291.210938 585.492188 288.035156 C 587.316406 284.46875 588.882812 281.140625 590.304688 278.015625 C 594.492188 268.804688 596.949219 262.558594 596.949219 262.558594 C 597.105469 262.363281 596.992188 262.03125 596.703125 261.820312 C 596.414062 261.605469 596.054688 261.589844 595.902344 261.789062 C 595.902344 261.789062 590.394531 265.789062 582.425781 272.222656 C 579.722656 274.40625 576.855469 276.777344 573.820312 279.460938 C 571.125 281.84375 568.363281 284.316406 565.675781 287.03125 C 563.960938 288.757812 562.269531 290.535156 560.734375 292.4375 C 559.199219 294.339844 557.824219 296.355469 556.519531 298.382812 C 554.476562 301.5625 552.652344 304.746094 551.003906 307.890625 C 548.050781 313.53125 545.800781 318.71875 543.90625 323.011719 C 541.085938 329.386719 539.585938 333.394531 539.585938 333.394531 C 539.3125 333.75 539.511719 334.34375 540.03125 334.726562 C 540.550781 335.109375 541.195312 335.132812 541.46875 334.78125 Z M 541.46875 334.78125 " fill-opacity="1" fill-rule="evenodd"/><path fill="#ffffff" d="M 537.03125 333.121094 C 537.03125 333.121094 533.710938 330.261719 528.605469 325.320312 C 525.167969 321.992188 520.996094 318.011719 516.65625 313.21875 C 514.238281 310.546875 511.851562 307.695312 509.554688 304.652344 C 508.089844 302.707031 506.667969 300.703125 505.417969 298.59375 C 504.164062 296.484375 503.09375 294.277344 502.082031 292.070312 C 500.496094 288.601562 499.164062 285.164062 497.894531 281.8125 C 496.46875 278.042969 495.28125 274.542969 494.210938 271.257812 C 491.066406 261.585938 489.324219 255.0625 489.324219 255.0625 C 489.191406 254.851562 489.347656 254.527344 489.667969 254.34375 C 489.988281 254.15625 490.355469 254.179688 490.484375 254.390625 C 490.484375 254.390625 495.605469 258.953125 502.9375 266.199219 C 505.425781 268.65625 508.054688 271.324219 510.816406 274.316406 C 513.273438 276.976562 515.78125 279.734375 518.191406 282.726562 C 519.726562 284.628906 521.230469 286.582031 522.5625 288.648438 C 523.890625 290.710938 525.046875 292.867188 526.128906 295.035156 C 527.824219 298.433594 529.292969 301.8125 530.589844 305.136719 C 532.910156 311.101562 534.570312 316.539062 535.980469 321.039062 C 538.078125 327.726562 539.117188 331.910156 539.117188 331.910156 C 539.351562 332.289062 539.074219 332.871094 538.5 333.207031 C 537.925781 333.539062 537.269531 333.5 537.03125 333.121094 Z M 537.03125 333.121094 " fill-opacity="1" fill-rule="evenodd"/><path fill="#ffffff" d="M 539.652344 334.609375 C 539.652344 334.609375 543.390625 334.652344 549.449219 334.375 C 553.53125 334.191406 558.453125 334 563.949219 333.402344 C 567.011719 333.066406 570.160156 332.601562 573.363281 331.96875 C 575.410156 331.566406 577.464844 331.101562 579.46875 330.476562 C 581.480469 329.855469 583.429688 329.070312 585.34375 328.257812 C 588.351562 326.976562 591.179688 325.574219 593.921875 324.1875 C 597 322.632812 599.773438 321.113281 602.347656 319.664062 C 609.933594 315.390625 614.8125 312.300781 614.8125 312.300781 C 615.015625 312.242188 615.105469 311.957031 615.015625 311.667969 C 614.921875 311.378906 614.679688 311.191406 614.476562 311.25 C 614.476562 311.25 608.625 311.285156 599.832031 311.773438 C 596.851562 311.9375 593.65625 312.152344 590.191406 312.5 C 587.113281 312.808594 583.941406 313.144531 580.699219 313.683594 C 578.632812 314.027344 576.558594 314.414062 574.527344 314.964844 C 572.496094 315.515625 570.519531 316.222656 568.585938 316.976562 C 565.554688 318.15625 562.671875 319.445312 559.929688 320.796875 C 555.015625 323.222656 550.820312 325.683594 547.324219 327.703125 C 542.128906 330.699219 539.050781 332.722656 539.050781 332.722656 C 538.683594 332.828125 538.519531 333.339844 538.683594 333.859375 C 538.851562 334.382812 539.285156 334.714844 539.652344 334.609375 Z M 539.652344 334.609375 " fill-opacity="1" fill-rule="evenodd"/><path fill="#ffffff" d="M 538.472656 333.449219 C 538.472656 333.449219 534.742188 333.21875 528.71875 332.5 C 524.664062 332.015625 519.769531 331.46875 514.332031 330.464844 C 511.300781 329.90625 508.195312 329.214844 505.042969 328.351562 C 503.035156 327.796875 501.019531 327.183594 499.066406 326.414062 C 497.105469 325.644531 495.21875 324.722656 493.371094 323.769531 C 490.464844 322.273438 487.746094 320.664062 485.113281 319.085938 C 482.15625 317.308594 479.5 315.589844 477.039062 313.953125 C 469.785156 309.136719 465.148438 305.703125 465.148438 305.703125 C 464.949219 305.628906 464.878906 305.335938 464.992188 305.054688 C 465.105469 304.773438 465.359375 304.601562 465.558594 304.679688 C 465.558594 304.679688 471.390625 305.136719 480.125 306.269531 C 483.089844 306.652344 486.257812 307.101562 489.6875 307.699219 C 492.738281 308.230469 495.875 308.800781 499.066406 309.574219 C 501.105469 310.070312 503.144531 310.605469 505.128906 311.304688 C 507.113281 312.003906 509.035156 312.851562 510.910156 313.746094 C 513.84375 315.144531 516.628906 316.640625 519.261719 318.1875 C 523.984375 320.96875 527.988281 323.730469 531.328125 326 C 536.289062 329.367188 539.210938 331.609375 539.210938 331.609375 C 539.570312 331.746094 539.695312 332.265625 539.492188 332.773438 C 539.289062 333.28125 538.832031 333.582031 538.472656 333.449219 Z M 538.472656 333.449219 " fill-opacity="1" fill-rule="evenodd"/><path fill="#ffffff" d="M 539.179688 334.558594 C 539.179688 334.558594 540.855469 336.296875 543.730469 338.929688 C 545.667969 340.703125 547.988281 342.859375 550.761719 345.058594 C 552.308594 346.285156 553.949219 347.480469 555.699219 348.609375 C 556.816406 349.332031 557.964844 350.023438 559.164062 350.605469 C 560.367188 351.191406 561.613281 351.664062 562.863281 352.105469 C 564.824219 352.792969 566.761719 353.335938 568.652344 353.847656 C 570.773438 354.421875 572.738281 354.875 574.585938 355.273438 C 580.019531 356.449219 583.671875 357.023438 583.671875 357.023438 C 583.792969 357.085938 583.964844 356.972656 584.058594 356.777344 C 584.152344 356.578125 584.128906 356.363281 584.007812 356.304688 C 584.007812 356.304688 581.339844 353.636719 577.125 349.863281 C 575.695312 348.582031 574.148438 347.234375 572.414062 345.828125 C 570.875 344.582031 569.277344 343.308594 567.558594 342.109375 C 566.460938 341.347656 565.339844 340.601562 564.160156 339.96875 C 562.980469 339.332031 561.757812 338.808594 560.527344 338.324219 C 558.601562 337.570312 556.691406 336.941406 554.820312 336.414062 C 551.460938 335.46875 548.40625 334.867188 545.882812 334.351562 C 542.128906 333.585938 539.789062 333.261719 539.789062 333.261719 C 539.570312 333.152344 539.257812 333.351562 539.089844 333.707031 C 538.921875 334.066406 538.964844 334.445312 539.179688 334.558594 Z M 539.179688 334.558594 " fill-opacity="1" fill-rule="evenodd"/><path fill="#ffffff" d="M 539.257812 334.519531 C 539.257812 334.519531 537.511719 335.972656 534.546875 338.144531 C 532.546875 339.605469 530.152344 341.386719 527.328125 343.160156 C 525.753906 344.148438 524.09375 345.097656 522.339844 345.976562 C 521.21875 346.535156 520.074219 347.066406 518.886719 347.492188 C 517.703125 347.917969 516.484375 348.234375 515.269531 348.515625 C 513.363281 348.960938 511.492188 349.273438 509.671875 349.558594 C 507.625 349.882812 505.734375 350.105469 503.964844 350.292969 C 498.753906 350.84375 495.277344 351.007812 495.277344 351.007812 C 495.15625 351.054688 495.007812 350.933594 494.9375 350.738281 C 494.871094 350.542969 494.914062 350.347656 495.035156 350.300781 C 495.035156 350.300781 497.808594 348.078125 502.144531 344.980469 C 503.617188 343.929688 505.203125 342.824219 506.972656 341.691406 C 508.542969 340.679688 510.171875 339.652344 511.90625 338.707031 C 513.011719 338.105469 514.136719 337.523438 515.308594 337.050781 C 516.476562 336.574219 517.679688 336.207031 518.878906 335.882812 C 520.757812 335.371094 522.613281 334.976562 524.421875 334.671875 C 527.664062 334.128906 530.585938 333.878906 533.003906 333.652344 C 536.597656 333.3125 538.824219 333.25 538.824219 333.25 C 539.039062 333.167969 539.308594 333.386719 539.429688 333.738281 C 539.550781 334.085938 539.472656 334.4375 539.257812 334.519531 Z M 539.257812 334.519531 " fill-opacity="1" fill-rule="evenodd"/></svg>