<svg xmlns="http://www.w3.org/2000/svg" xmlns:xlink="http://www.w3.org/1999/xlink" width="1440" zoomAndPan="magnify" viewBox="0 0 1080 599.999999" height="800" preserveAspectRatio="xMidYMid meet" version="1.0"><defs><clipPath id="935692fbaf"><path d="M 416.921875 247 L 662.921875 247 L 662.921875 401 L 416.921875 401 Z M 416.921875 247 " clip-rule="nonzero"/></clipPath></defs><rect x="-108" width="1296" fill="#ffffff" y="-60" height="719.999999" fill-opacity="1"/><rect x="-108" width="1296" fill="#ffffff" y="-60" height="719.999999" fill-opacity="1"/><path fill="#074785" d="M 501.765625 406.90625 C 499.097656 414.085938 494.054688 419.914062 490.515625 419.925781 C 481.964844 419.949219 473.425781 419.972656 464.898438 419.996094 C 461.367188 420.007812 456.328125 414.199219 453.640625 407.019531 C 450.953125 399.839844 453.296875 394.011719 458.878906 394.003906 C 471.398438 393.976562 483.925781 393.953125 496.472656 393.925781 C 502.0625 393.917969 504.4375 399.726562 501.765625 406.90625 Z M 501.765625 406.90625 " fill-opacity="1" fill-rule="evenodd"/><path fill="#074785" d="M 626.222656 406.90625 C 623.550781 414.085938 618.511719 419.914062 614.96875 419.925781 C 606.417969 419.949219 597.878906 419.972656 589.351562 419.996094 C 585.820312 420.007812 580.785156 414.199219 578.097656 407.019531 C 575.410156 399.839844 577.75 394.011719 583.332031 394.003906 C 595.851562 393.976562 608.382812 393.953125 620.925781 393.925781 C 626.519531 393.917969 628.894531 399.726562 626.222656 406.90625 Z M 626.222656 406.90625 " fill-opacity="1" fill-rule="evenodd"/><path fill="#29aefd" d="M 537.488281 196.96875 C 501.929688 197.96875 486.722656 233.210938 491.105469 251.507812 L 503.945312 251.507812 C 508.453125 234.320312 513.253906 217.558594 538.324219 216.859375 C 567.789062 216.042969 568.171875 234.992188 574.78125 251.507812 L 588.359375 251.507812 C 590.15625 233.210938 579.277344 195.792969 537.488281 196.96875 Z M 537.488281 196.96875 " fill-opacity="1" fill-rule="evenodd"/><path fill="#f9d555" d="M 535.054688 188.050781 C 487.621094 189.382812 475.929688 234.992188 479.523438 251.507812 L 491.105469 251.507812 C 492.75 232.917969 500.8125 201.664062 536.375 200.667969 C 578.164062 199.492188 586.828125 232.476562 588.363281 251.507812 L 600.414062 251.507812 C 604.746094 236.496094 591.261719 186.472656 535.054688 188.050781 Z M 535.054688 188.050781 " fill-opacity="1" fill-rule="evenodd"/><path fill="#fd6085" d="M 538.851562 218.484375 C 523.066406 218.976562 513.789062 239.640625 515.125 251.507812 L 526.609375 251.507812 C 528.003906 243.039062 531.347656 234.570312 539.117188 234.242188 C 548.328125 233.851562 552.078125 242.699219 553.539062 251.507812 L 565.074219 251.507812 C 566.914062 239.640625 557.476562 217.90625 538.851562 218.484375 Z M 538.851562 218.484375 " fill-opacity="1" fill-rule="evenodd"/><path fill="#ffa4ac" d="M 537.015625 211.367188 C 511.945312 212.066406 505.414062 235.117188 503.945312 251.507812 L 515.125 251.507812 C 516.996094 239.105469 522.597656 224.882812 538.386719 224.394531 C 557.011719 223.816406 563.191406 238.683594 565.074219 251.507812 L 574.78125 251.507812 C 573.472656 234.675781 566.476562 210.550781 537.015625 211.367188 Z M 537.015625 211.367188 " fill-opacity="1" fill-rule="evenodd"/><path fill="#fd6085" d="M 535.050781 182.265625 C 470.34375 184.082031 468.308594 244.101562 468.300781 251.507812 L 479.523438 251.507812 C 480.722656 235.304688 488.367188 191.941406 535.800781 190.609375 C 592.007812 189.03125 599.484375 235.839844 600.414062 251.507812 L 611.527344 251.507812 C 611.527344 251.507812 614.765625 180.023438 535.050781 182.265625 Z M 535.050781 182.265625 " fill-opacity="1" fill-rule="evenodd"/><g clip-path="url(#935692fbaf)"><path fill="#a089e4" d="M 662.875 370.988281 C 662.875 387.480469 650.648438 400.972656 635.703125 400.972656 L 444.144531 400.972656 C 429.199219 400.972656 416.972656 387.480469 416.972656 370.988281 L 416.972656 277.078125 C 416.972656 260.585938 429.199219 247.09375 444.144531 247.09375 L 635.703125 247.09375 C 650.648438 247.09375 662.875 260.585938 662.875 277.078125 Z M 662.875 370.988281 " fill-opacity="1" fill-rule="evenodd"/></g><path fill="#7befe5" d="M 646.226562 373.539062 C 646.226562 379.980469 641.386719 385.207031 635.414062 385.207031 L 444.429688 385.207031 C 438.460938 385.207031 433.621094 379.980469 433.621094 373.539062 L 433.621094 276.300781 C 433.621094 269.859375 438.460938 264.632812 444.429688 264.632812 L 635.414062 264.632812 C 641.386719 264.632812 646.226562 269.859375 646.226562 276.300781 Z M 646.226562 373.539062 " fill-opacity="1" fill-rule="evenodd"/><path fill="#ffffff" d="M 492.675781 314.234375 C 493.0625 314.839844 493.316406 315.609375 493.433594 316.546875 C 493.71875 318.476562 493.855469 320.445312 493.839844 322.457031 C 493.824219 324.472656 493.851562 326.445312 493.917969 328.375 C 493.933594 330.636719 493.957031 332.871094 494 335.078125 C 494.042969 337.28125 494.070312 339.515625 494.082031 341.777344 L 494.125 348.808594 L 497.683594 348.789062 C 498.289062 348.78125 498.921875 348.847656 499.582031 348.980469 C 500.246094 349.117188 500.851562 349.347656 501.40625 349.675781 C 501.960938 350 502.429688 350.414062 502.820312 350.90625 C 503.207031 351.398438 503.433594 352.003906 503.492188 352.722656 C 503.503906 354.488281 502.960938 355.691406 501.859375 356.332031 C 500.761719 356.96875 499.441406 357.351562 497.902344 357.472656 C 497.789062 357.472656 497.554688 357.488281 497.195312 357.515625 C 496.839844 357.546875 496.441406 357.5625 496 357.566406 C 495.558594 357.566406 495.15625 357.574219 494.800781 357.574219 C 494.441406 357.574219 494.234375 357.523438 494.179688 357.410156 L 494.214844 363.039062 C 494.21875 363.644531 494.222656 364.332031 494.226562 365.105469 C 494.230469 365.878906 494.179688 366.636719 494.074219 367.382812 C 493.96875 368.128906 493.765625 368.832031 493.46875 369.496094 C 493.167969 370.160156 492.714844 370.6875 492.113281 371.074219 C 491.835938 371.242188 491.492188 371.367188 491.082031 371.453125 C 490.667969 371.539062 490.214844 371.613281 489.71875 371.667969 C 489.222656 371.726562 488.738281 371.746094 488.273438 371.71875 C 487.800781 371.695312 487.402344 371.628906 487.070312 371.519531 C 486.078125 371.195312 485.4375 370.496094 485.15625 369.421875 C 484.875 368.347656 484.675781 367.34375 484.5625 366.40625 C 484.558594 366.238281 484.554688 365.703125 484.550781 364.792969 C 484.546875 363.882812 484.539062 362.917969 484.535156 361.894531 C 484.527344 360.875 484.492188 359.953125 484.433594 359.125 C 484.371094 358.296875 484.285156 357.886719 484.175781 357.886719 L 469.625 357.976562 C 468.027344 357.984375 466.34375 357.96875 464.582031 357.921875 C 462.816406 357.878906 461.300781 357.390625 460.023438 356.460938 C 459.027344 355.75 458.445312 354.941406 458.273438 354.03125 C 458.101562 353.125 458.167969 352.210938 458.464844 351.300781 C 458.761719 350.390625 459.210938 349.492188 459.8125 348.605469 C 460.414062 347.71875 460.988281 346.914062 461.535156 346.195312 C 463.609375 343.367188 465.617188 340.488281 467.558594 337.554688 C 469.496094 334.617188 471.449219 331.710938 473.417969 328.832031 C 474.507812 327.335938 475.644531 325.894531 476.820312 324.507812 C 477.996094 323.121094 479.105469 321.683594 480.144531 320.183594 C 480.90625 319.023438 481.742188 317.832031 482.644531 316.613281 C 483.546875 315.394531 484.683594 314.449219 486.058594 313.777344 C 487.375 313.164062 488.640625 312.851562 489.855469 312.847656 C 491.066406 312.839844 492.007812 313.300781 492.675781 314.234375 Z M 484.582031 329.175781 L 470.976562 348.621094 L 484.699219 348.535156 Z M 484.582031 329.175781 " fill-opacity="1" fill-rule="nonzero"/><path fill="#ffffff" d="M 521.613281 327.957031 C 521.621094 329.390625 521.121094 330.621094 520.105469 331.644531 C 519.09375 332.675781 517.871094 333.191406 516.4375 333.199219 C 515 333.207031 513.773438 332.707031 512.746094 331.695312 C 511.722656 330.679688 511.203125 329.457031 511.195312 328.019531 C 511.1875 326.585938 511.6875 325.339844 512.703125 324.289062 C 513.714844 323.234375 514.9375 322.699219 516.371094 322.695312 C 517.804688 322.6875 519.035156 323.203125 520.0625 324.242188 C 521.085938 325.285156 521.605469 326.523438 521.613281 327.957031 Z M 521.800781 358.566406 C 521.808594 360.003906 521.304688 361.230469 520.292969 362.257812 C 519.277344 363.285156 518.058594 363.800781 516.625 363.808594 C 515.1875 363.820312 513.960938 363.316406 512.933594 362.300781 C 511.90625 361.289062 511.390625 360.066406 511.382812 358.632812 C 511.375 357.195312 511.875 355.953125 512.890625 354.898438 C 513.90625 353.84375 515.125 353.3125 516.558594 353.304688 C 517.992188 353.292969 519.222656 353.808594 520.246094 354.851562 C 521.273438 355.894531 521.792969 357.132812 521.800781 358.566406 Z M 521.800781 358.566406 " fill-opacity="1" fill-rule="nonzero"/><path fill="#ffffff" d="M 538.996094 331.410156 C 538.175781 332.683594 537.203125 333.457031 536.074219 333.742188 C 534.945312 334.027344 533.855469 333.949219 532.808594 333.511719 C 531.757812 333.078125 530.882812 332.355469 530.191406 331.339844 C 529.496094 330.320312 529.195312 329.152344 529.300781 327.828125 C 529.347656 326.945312 529.5625 325.980469 529.945312 324.925781 C 530.324219 323.878906 530.800781 322.867188 531.371094 321.898438 C 531.945312 320.933594 532.574219 320.015625 533.257812 319.15625 C 533.941406 318.300781 534.640625 317.566406 535.351562 316.953125 C 536.667969 315.894531 538.164062 314.976562 539.839844 314.195312 C 541.519531 313.414062 543.277344 312.820312 545.121094 312.425781 C 546.964844 312.027344 548.8125 311.851562 550.660156 311.894531 C 552.503906 311.941406 554.230469 312.203125 555.832031 312.691406 C 560.25 314.042969 563.679688 316.199219 566.125 319.164062 C 568.566406 322.125 569.800781 325.976562 569.832031 330.722656 C 569.847656 332.984375 569.652344 335.011719 569.25 336.804688 C 568.847656 338.601562 568.140625 340.328125 567.132812 341.988281 C 566.121094 343.652344 564.78125 345.339844 563.113281 347.0625 C 561.441406 348.78125 559.371094 350.671875 556.902344 352.726562 C 556.082031 353.449219 555.230469 354.167969 554.355469 354.890625 C 553.476562 355.613281 552.597656 356.335938 551.722656 357.058594 C 551.445312 357.28125 550.925781 357.617188 550.15625 358.058594 C 549.386719 358.507812 548.699219 358.953125 548.097656 359.398438 C 547.496094 359.84375 547.136719 360.261719 547.03125 360.644531 C 546.921875 361.035156 547.363281 361.25 548.359375 361.300781 C 549.570312 361.402344 550.535156 361.421875 551.25 361.367188 C 551.96875 361.308594 552.933594 361.273438 554.144531 361.265625 C 555.578125 361.253906 556.984375 361.21875 558.359375 361.15625 C 559.738281 361.09375 561.117188 361.113281 562.496094 361.214844 C 563.046875 361.265625 563.652344 361.277344 564.316406 361.242188 C 564.976562 361.210938 565.636719 361.207031 566.300781 361.230469 C 566.960938 361.253906 567.59375 361.335938 568.203125 361.464844 C 568.808594 361.601562 569.332031 361.859375 569.777344 362.242188 C 570.21875 362.628906 570.554688 363.148438 570.777344 363.808594 C 571.003906 364.46875 571.132812 365.171875 571.164062 365.914062 C 571.195312 366.660156 571.132812 367.378906 570.972656 368.070312 C 570.808594 368.761719 570.535156 369.296875 570.152344 369.6875 C 569.441406 370.519531 568.5625 370.925781 567.515625 370.902344 C 566.46875 370.882812 565.476562 370.875 564.539062 370.878906 L 534.859375 371.0625 C 534.304688 371.066406 533.714844 371.097656 533.082031 371.15625 C 532.445312 371.214844 531.882812 371.164062 531.386719 371 C 530.390625 370.730469 529.90625 370.210938 529.929688 369.4375 C 529.953125 368.664062 529.960938 367.867188 529.953125 367.039062 C 529.945312 365.660156 530.269531 364.375 530.921875 363.1875 C 531.578125 361.996094 532.410156 360.886719 533.425781 359.863281 C 534.4375 358.835938 535.519531 357.875 536.671875 356.988281 C 537.824219 356.097656 538.894531 355.234375 539.882812 354.402344 C 541.304688 353.125 542.84375 351.847656 544.488281 350.570312 C 546.132812 349.292969 547.695312 348.011719 549.175781 346.734375 C 551.097656 345.125 552.726562 343.652344 554.070312 342.320312 C 555.410156 340.988281 556.492188 339.742188 557.3125 338.574219 C 558.132812 337.414062 558.730469 336.265625 559.113281 335.132812 C 559.488281 334 559.675781 332.796875 559.667969 331.53125 C 559.652344 328.71875 558.78125 326.558594 557.066406 325.050781 C 555.347656 323.546875 553.164062 322.800781 550.519531 322.816406 C 548.589844 322.828125 546.789062 323.253906 545.113281 324.089844 C 543.4375 324.929688 542.050781 326.152344 540.960938 327.757812 C 540.632812 328.367188 540.316406 328.988281 540.019531 329.625 C 539.71875 330.257812 539.378906 330.855469 538.996094 331.410156 Z M 538.996094 331.410156 " fill-opacity="1" fill-rule="nonzero"/><path fill="#ffffff" d="M 599.925781 371.074219 C 598.933594 371.082031 597.925781 371.019531 596.90625 370.886719 C 595.886719 370.757812 594.878906 370.5 593.882812 370.121094 C 592.390625 369.523438 590.96875 368.71875 589.609375 367.707031 C 588.253906 366.695312 587.019531 365.558594 585.910156 364.296875 C 583.246094 361.335938 581.210938 357.832031 579.808594 353.785156 C 578.40625 349.738281 577.695312 345.621094 577.667969 341.429688 C 577.632812 335.695312 578.699219 330.144531 580.875 324.78125 C 581.253906 323.839844 581.757812 322.847656 582.382812 321.792969 C 583.011719 320.742188 583.722656 319.730469 584.515625 318.761719 C 585.308594 317.792969 586.128906 316.917969 586.980469 316.140625 C 587.828125 315.363281 588.695312 314.777344 589.574219 314.386719 C 590.78125 313.828125 592.101562 313.269531 593.53125 312.707031 C 595.292969 312.144531 597.273438 311.886719 599.480469 311.925781 C 601.683594 311.96875 603.699219 312.203125 605.519531 312.632812 C 608.058594 313.222656 610.242188 314.300781 612.070312 315.859375 C 613.902344 317.421875 615.453125 319.289062 616.738281 321.457031 C 618.015625 323.628906 619.023438 325.992188 619.757812 328.554688 C 620.488281 331.117188 621.027344 333.71875 621.375 336.363281 C 621.605469 338.125 621.699219 339.878906 621.65625 341.613281 C 621.609375 343.351562 621.484375 345.105469 621.273438 346.871094 C 621.0625 348.472656 620.8125 350.070312 620.519531 351.675781 C 620.226562 353.273438 619.835938 354.820312 619.347656 356.3125 C 618.859375 357.804688 618.234375 359.230469 617.472656 360.585938 C 616.707031 361.941406 615.753906 363.199219 614.601562 364.367188 C 612.519531 366.421875 610.253906 368.019531 607.8125 369.167969 C 605.363281 370.3125 602.734375 370.949219 599.925781 371.074219 Z M 599.546875 322.847656 C 598.773438 322.851562 598.019531 322.925781 597.273438 323.066406 C 596.53125 323.210938 595.832031 323.503906 595.171875 323.949219 C 594.402344 324.449219 593.71875 325.0625 593.117188 325.78125 C 592.511719 326.5 591.996094 327.25 591.558594 328.023438 C 590.414062 330.015625 589.628906 332.144531 589.199219 334.410156 C 588.773438 336.675781 588.566406 338.960938 588.582031 341.277344 C 588.59375 343.652344 588.871094 346.105469 589.410156 348.636719 C 589.949219 351.171875 590.914062 353.484375 592.304688 355.570312 C 592.972656 356.558594 593.765625 357.421875 594.675781 358.160156 C 595.59375 358.898438 596.65625 359.429688 597.871094 359.753906 C 598.976562 360.023438 600.089844 360.101562 601.222656 359.980469 C 602.351562 359.867188 603.410156 359.5 604.398438 358.886719 C 605.988281 357.882812 607.25 356.554688 608.175781 354.894531 C 609.101562 353.230469 609.792969 351.4375 610.25 349.503906 C 610.707031 347.570312 610.972656 345.582031 611.042969 343.542969 C 611.113281 341.5 611.085938 339.652344 610.96875 338 C 610.84375 336.34375 610.558594 334.609375 610.109375 332.792969 C 609.65625 330.972656 608.996094 329.324219 608.136719 327.839844 C 607.269531 326.355469 606.136719 325.136719 604.722656 324.179688 C 603.3125 323.222656 601.585938 322.78125 599.546875 322.847656 Z M 599.546875 322.847656 " fill-opacity="1" fill-rule="nonzero"/><path fill="#ffffff" d="M 629.410156 302.789062 C 628.898438 302.296875 627.875 295.378906 626.949219 295.433594 C 626.019531 295.492188 625.207031 302.351562 624.773438 302.800781 C 623.902344 303.710938 617.527344 304.351562 617.578125 305.230469 C 617.632812 306.109375 623.894531 306.519531 624.777344 307.378906 C 625.269531 307.859375 626.308594 314.796875 627.238281 314.742188 C 628.167969 314.683594 628.960938 307.84375 629.414062 307.375 C 630.253906 306.5 636.679688 305.824219 636.628906 304.941406 C 636.574219 304.0625 630.257812 303.617188 629.410156 302.789062 Z M 629.410156 302.789062 " fill-opacity="1" fill-rule="nonzero"/><path fill="#ffffff" d="M 517.429688 218.742188 C 516.917969 218.25 515.898438 211.332031 514.96875 211.386719 C 514.039062 211.445312 513.230469 218.304688 512.796875 218.753906 C 511.921875 219.664062 505.546875 220.304688 505.601562 221.183594 C 505.652344 222.058594 511.914062 222.472656 512.800781 223.335938 C 513.292969 223.808594 514.328125 230.75 515.257812 230.695312 C 516.1875 230.636719 516.984375 223.796875 517.433594 223.328125 C 518.277344 222.453125 524.699219 221.777344 524.648438 220.894531 C 524.597656 220.015625 518.28125 219.570312 517.429688 218.742188 Z M 517.429688 218.742188 " fill-opacity="1" fill-rule="nonzero"/><path fill="#ffffff" d="M 478.234375 284.933594 C 477.726562 284.4375 476.703125 277.519531 475.777344 277.578125 C 474.84375 277.632812 474.035156 284.492188 473.601562 284.945312 C 472.730469 285.851562 466.355469 286.492188 466.40625 287.371094 C 466.457031 288.25 472.71875 288.664062 473.605469 289.523438 C 474.097656 290 475.136719 296.9375 476.0625 296.882812 C 476.992188 296.828125 477.789062 289.988281 478.238281 289.519531 C 479.082031 288.640625 485.507812 287.96875 485.453125 287.085938 C 485.402344 286.203125 479.085938 285.761719 478.234375 284.933594 Z M 478.234375 284.933594 " fill-opacity="1" fill-rule="nonzero"/><path fill="#074785" d="M 454.101562 321.738281 C 453.59375 321.242188 452.570312 314.324219 451.644531 314.378906 C 450.710938 314.4375 449.902344 321.296875 449.46875 321.75 C 448.597656 322.65625 442.222656 323.296875 442.273438 324.179688 C 442.328125 325.054688 448.589844 325.46875 449.472656 326.328125 C 449.964844 326.800781 451.003906 333.742188 451.933594 333.6875 C 452.859375 333.632812 453.65625 326.792969 454.109375 326.324219 C 454.949219 325.449219 461.375 324.773438 461.324219 323.890625 C 461.269531 323.007812 454.953125 322.566406 454.101562 321.738281 Z M 454.101562 321.738281 " fill-opacity="1" fill-rule="nonzero"/><path fill="#074785" d="M 634.105469 364.789062 C 633.597656 364.296875 632.574219 357.378906 631.648438 357.429688 C 630.71875 357.488281 629.90625 364.347656 629.472656 364.804688 C 628.601562 365.707031 622.226562 366.351562 622.277344 367.230469 C 622.332031 368.109375 628.589844 368.523438 629.476562 369.378906 C 629.96875 369.855469 631.007812 376.792969 631.9375 376.738281 C 632.863281 376.6875 633.660156 369.84375 634.113281 369.375 C 634.953125 368.5 641.378906 367.824219 641.324219 366.941406 C 641.273438 366.058594 634.957031 365.617188 634.105469 364.789062 Z M 634.105469 364.789062 " fill-opacity="1" fill-rule="nonzero"/><path fill="#074785" d="M 576.1875 209.054688 C 575.679688 208.558594 574.65625 201.640625 573.730469 201.695312 C 572.800781 201.753906 571.992188 208.613281 571.558594 209.066406 C 570.683594 209.972656 564.308594 210.617188 564.363281 211.492188 C 564.414062 212.371094 570.675781 212.785156 571.558594 213.640625 C 572.054688 214.117188 573.089844 221.058594 574.019531 221.003906 C 574.949219 220.945312 575.742188 214.105469 576.195312 213.636719 C 577.035156 212.765625 583.460938 212.085938 583.410156 211.207031 C 583.355469 210.324219 577.039062 209.878906 576.1875 209.054688 Z M 576.1875 209.054688 " fill-opacity="1" fill-rule="nonzero"/><path fill="#074785" d="M 508.441406 273.792969 C 500.484375 273.988281 495.816406 280.4375 495.726562 288.511719 C 495.675781 292.640625 501.746094 293.070312 501.792969 288.921875 C 501.84375 284.398438 503.417969 280.894531 507.914062 280.234375 C 512.851562 279.507812 515.507812 283.246094 515.027344 288.097656 C 514.621094 292.222656 520.691406 292.613281 521.097656 288.511719 C 521.921875 280.136719 516.460938 273.601562 508.441406 273.792969 Z M 508.441406 273.792969 " fill-opacity="1" fill-rule="nonzero"/><path fill="#074785" d="M 571.65625 271.464844 C 563.714844 271.898438 559.222656 278.488281 559.351562 286.5625 C 559.410156 290.699219 565.488281 290.941406 565.425781 286.789062 C 565.355469 282.261719 566.832031 278.71875 571.308594 277.921875 C 576.222656 277.046875 578.976562 280.699219 578.628906 285.570312 C 578.332031 289.707031 584.410156 289.910156 584.703125 285.796875 C 585.304688 277.398438 579.667969 271.027344 571.65625 271.464844 Z M 571.65625 271.464844 " fill-opacity="1" fill-rule="nonzero"/><path fill="#074785" d="M 551.25 287.800781 C 551.429688 286.058594 550.789062 284.371094 549.023438 283.90625 C 547.574219 283.527344 545.53125 284.507812 545.351562 286.253906 C 545.09375 288.769531 544.621094 293.132812 541.902344 294.046875 C 538.0625 295.34375 536.269531 290.414062 536.019531 287.34375 C 535.6875 283.234375 529.609375 283.367188 529.945312 287.511719 C 530.503906 294.367188 534.304688 300.703125 541.414062 300.554688 C 547.820312 300.421875 550.652344 293.636719 551.25 287.800781 Z M 551.25 287.800781 " fill-opacity="1" fill-rule="nonzero"/><path fill="#ffffff" d="M 611.542969 282.800781 C 608.296875 282.800781 608.296875 287.839844 611.542969 287.839844 C 614.789062 287.839844 614.789062 282.800781 611.542969 282.800781 Z M 611.542969 282.800781 " fill-opacity="1" fill-rule="nonzero"/><path fill="#ffffff" d="M 573.886719 228.175781 C 570.636719 228.175781 570.636719 233.210938 573.886719 233.210938 C 577.128906 233.210938 577.128906 228.175781 573.886719 228.175781 Z M 573.886719 228.175781 " fill-opacity="1" fill-rule="nonzero"/><path fill="#ffffff" d="M 537.488281 188.050781 C 534.242188 188.050781 534.242188 193.089844 537.488281 193.089844 C 540.734375 193.089844 540.734375 188.050781 537.488281 188.050781 Z M 537.488281 188.050781 " fill-opacity="1" fill-rule="nonzero"/><path fill="#ffffff" d="M 501.511719 199.179688 C 498.265625 199.179688 498.265625 204.214844 501.511719 204.214844 C 504.757812 204.214844 504.757812 199.179688 501.511719 199.179688 Z M 501.511719 199.179688 " fill-opacity="1" fill-rule="nonzero"/><path fill="#ffffff" d="M 536.417969 215.96875 C 533.171875 215.96875 533.171875 221.003906 536.417969 221.003906 C 539.664062 221.003906 539.664062 215.96875 536.417969 215.96875 Z M 536.417969 215.96875 " fill-opacity="1" fill-rule="nonzero"/><path fill="#ffffff" d="M 490.742188 228.175781 C 487.496094 228.175781 487.496094 233.210938 490.742188 233.210938 C 493.988281 233.210938 493.988281 228.175781 490.742188 228.175781 Z M 490.742188 228.175781 " fill-opacity="1" fill-rule="nonzero"/><path fill="#ffffff" d="M 597.617188 228.910156 C 594.371094 228.910156 594.371094 233.949219 597.617188 233.949219 C 600.863281 233.949219 600.863281 228.910156 597.617188 228.910156 Z M 597.617188 228.910156 " fill-opacity="1" fill-rule="nonzero"/><path fill="#ffffff" d="M 451.796875 284.707031 C 448.550781 284.707031 448.550781 289.746094 451.796875 289.746094 C 455.042969 289.746094 455.042969 284.707031 451.796875 284.707031 Z M 451.796875 284.707031 " fill-opacity="1" fill-rule="nonzero"/><path fill="#ffffff" d="M 456.667969 368.335938 C 453.421875 368.335938 453.421875 373.375 456.667969 373.375 C 459.914062 373.375 459.914062 368.335938 456.667969 368.335938 Z M 456.667969 368.335938 " fill-opacity="1" fill-rule="nonzero"/><path fill="#ffffff" d="M 628.214844 261.007812 C 632.570312 261.359375 633.109375 254.605469 628.757812 254.257812 C 624.40625 253.90625 623.867188 260.660156 628.214844 261.007812 Z M 628.214844 261.007812 " fill-opacity="1" fill-rule="evenodd"/><path fill="#ffffff" d="M 576.558594 260.929688 C 589.582031 261.046875 602.609375 260.886719 615.636719 261.003906 C 619.898438 261.042969 619.960938 254.425781 615.699219 254.386719 C 602.671875 254.273438 589.644531 254.429688 576.621094 254.316406 C 572.359375 254.277344 572.292969 260.894531 576.558594 260.929688 Z M 576.558594 260.929688 " fill-opacity="1" fill-rule="evenodd"/><path fill="#ffffff" d="M 563.449219 261.023438 C 567.699219 261.363281 568.226562 254.765625 563.976562 254.429688 C 559.726562 254.085938 559.199219 260.683594 563.449219 261.023438 Z M 563.449219 261.023438 " fill-opacity="1" fill-rule="evenodd"/><path fill="#ffffff" d="M 578.371094 396.441406 C 582.726562 396.785156 583.265625 390.035156 578.914062 389.6875 C 574.5625 389.339844 574.023438 396.089844 578.371094 396.441406 Z M 578.371094 396.441406 " fill-opacity="1" fill-rule="evenodd"/><path fill="#ffffff" d="M 526.714844 396.359375 C 539.738281 396.476562 552.765625 396.316406 565.796875 396.433594 C 570.054688 396.472656 570.117188 389.855469 565.859375 389.820312 C 552.828125 389.703125 539.800781 389.863281 526.777344 389.746094 C 522.515625 389.707031 522.449219 396.320312 526.714844 396.359375 Z M 526.714844 396.359375 " fill-opacity="1" fill-rule="evenodd"/><path fill="#ffffff" d="M 513.605469 396.453125 C 517.855469 396.792969 518.382812 390.199219 514.132812 389.859375 C 509.886719 389.519531 509.355469 396.113281 513.605469 396.453125 Z M 513.605469 396.453125 " fill-opacity="1" fill-rule="evenodd"/><path fill="#ffffff" d="M 423.910156 348.890625 C 423.644531 352.445312 429.148438 352.855469 429.414062 349.304688 C 429.679688 345.753906 424.175781 345.339844 423.910156 348.890625 Z M 423.910156 348.890625 " fill-opacity="1" fill-rule="evenodd"/><path fill="#ffffff" d="M 423.753906 306.742188 C 423.714844 317.371094 423.898438 328 423.859375 338.628906 C 423.847656 342.105469 429.238281 342.128906 429.25 338.652344 C 429.289062 328.023438 429.101562 317.394531 429.140625 306.769531 C 429.15625 303.289062 423.765625 303.265625 423.753906 306.742188 Z M 423.753906 306.742188 " fill-opacity="1" fill-rule="evenodd"/><path fill="#ffffff" d="M 423.621094 296.050781 C 423.363281 299.515625 428.738281 299.921875 428.996094 296.453125 C 429.257812 292.984375 423.882812 292.582031 423.621094 296.050781 Z M 423.621094 296.050781 " fill-opacity="1" fill-rule="evenodd"/><path fill="#ffffff" d="M 651.363281 370.96875 C 651.097656 374.519531 656.605469 374.929688 656.871094 371.382812 C 657.136719 367.828125 651.632812 367.417969 651.363281 370.96875 Z M 651.363281 370.96875 " fill-opacity="1" fill-rule="evenodd"/><path fill="#ffffff" d="M 651.210938 328.820312 C 651.171875 339.449219 651.355469 350.074219 651.316406 360.707031 C 651.300781 364.183594 656.695312 364.207031 656.707031 360.726562 C 656.746094 350.097656 656.558594 339.472656 656.597656 328.84375 C 656.613281 325.363281 651.222656 325.339844 651.210938 328.820312 Z M 651.210938 328.820312 " fill-opacity="1" fill-rule="evenodd"/><path fill="#ffffff" d="M 651.078125 318.125 C 650.820312 321.59375 656.195312 321.996094 656.453125 318.527344 C 656.714844 315.058594 651.339844 314.65625 651.078125 318.125 Z M 651.078125 318.125 " fill-opacity="1" fill-rule="evenodd"/><path fill="#29aefd" d="M 520.554688 302.238281 C 520.554688 305.90625 515.53125 308.882812 509.332031 308.882812 C 503.132812 308.882812 498.109375 305.90625 498.109375 302.238281 C 498.109375 298.570312 503.132812 295.59375 509.332031 295.59375 C 515.53125 295.59375 520.554688 298.570312 520.554688 302.238281 Z M 520.554688 302.238281 " fill-opacity="1" fill-rule="nonzero"/><path fill="#29aefd" d="M 582.359375 302.238281 C 582.359375 305.90625 577.335938 308.882812 571.136719 308.882812 C 564.941406 308.882812 559.914062 305.90625 559.914062 302.238281 C 559.914062 298.570312 564.941406 295.59375 571.136719 295.59375 C 577.335938 295.59375 582.359375 298.570312 582.359375 302.238281 Z M 582.359375 302.238281 " fill-opacity="1" fill-rule="nonzero"/></svg>