<svg xmlns="http://www.w3.org/2000/svg" xmlns:xlink="http://www.w3.org/1999/xlink" width="400" zoomAndPan="magnify" viewBox="0 0 300 299.999988" height="400" preserveAspectRatio="xMidYMid meet" version="1.0"><defs><clipPath id="6d5c564ba5"><path d="M 45 261 L 106 261 L 106 292.800781 L 45 292.800781 Z M 45 261 " clip-rule="nonzero"/></clipPath><clipPath id="637ca51329"><path d="M 194 261 L 255 261 L 255 292.800781 L 194 292.800781 Z M 194 261 " clip-rule="nonzero"/></clipPath><clipPath id="cc2925194a"><path d="M 3.386719 86 L 296.636719 86 L 296.636719 271 L 3.386719 271 Z M 3.386719 86 " clip-rule="nonzero"/></clipPath></defs><g clip-path="url(#6d5c564ba5)"><path fill="#074785" d="M 104.523438 277.210938 C 101.34375 285.757812 95.332031 292.695312 91.113281 292.710938 C 80.917969 292.742188 70.742188 292.769531 60.574219 292.796875 C 56.367188 292.808594 50.363281 285.894531 47.160156 277.34375 C 43.957031 268.796875 46.746094 261.859375 53.402344 261.847656 C 68.324219 261.816406 83.261719 261.789062 98.214844 261.753906 C 104.878906 261.746094 107.707031 268.664062 104.523438 277.210938 Z M 104.523438 277.210938 " fill-opacity="1" fill-rule="evenodd"/></g><g clip-path="url(#637ca51329)"><path fill="#074785" d="M 252.882812 277.210938 C 249.699219 285.757812 243.6875 292.695312 239.46875 292.710938 C 229.277344 292.742188 219.097656 292.769531 208.933594 292.796875 C 204.722656 292.808594 198.722656 285.894531 195.515625 277.34375 C 192.308594 268.796875 195.101562 261.859375 201.757812 261.847656 C 216.679688 261.816406 231.617188 261.789062 246.570312 261.753906 C 253.234375 261.746094 256.066406 268.664062 252.882812 277.210938 Z M 252.882812 277.210938 " fill-opacity="1" fill-rule="evenodd"/></g><path fill="#29aefd" d="M 147.109375 27.253906 C 104.71875 28.445312 86.59375 70.40625 91.816406 92.191406 L 107.125 92.191406 C 112.496094 71.726562 118.21875 51.769531 148.105469 50.9375 C 183.226562 49.964844 183.6875 72.523438 191.5625 92.191406 L 207.75 92.191406 C 209.890625 70.40625 196.921875 25.855469 147.109375 27.253906 Z M 147.109375 27.253906 " fill-opacity="1" fill-rule="evenodd"/><path fill="#f9d555" d="M 144.207031 16.636719 C 87.664062 18.222656 73.726562 72.523438 78.011719 92.191406 L 91.816406 92.191406 C 93.777344 70.058594 103.390625 32.847656 145.777344 31.65625 C 195.59375 30.257812 205.925781 69.53125 207.75 92.191406 L 222.121094 92.191406 C 227.285156 74.316406 211.207031 14.757812 144.207031 16.636719 Z M 144.207031 16.636719 " fill-opacity="1" fill-rule="evenodd"/><path fill="#fd6085" d="M 148.734375 52.871094 C 129.914062 53.457031 118.855469 78.058594 120.449219 92.191406 L 134.136719 92.191406 C 135.800781 82.105469 139.785156 72.023438 149.046875 71.632812 C 160.027344 71.167969 164.5 81.703125 166.242188 92.191406 L 179.988281 92.191406 C 182.183594 78.058594 170.9375 52.183594 148.734375 52.871094 Z M 148.734375 52.871094 " fill-opacity="1" fill-rule="evenodd"/><path fill="#ffa4ac" d="M 146.542969 44.398438 C 116.660156 45.230469 108.871094 72.671875 107.125 92.191406 L 120.449219 92.191406 C 122.683594 77.421875 129.359375 60.492188 148.175781 59.90625 C 170.378906 59.21875 177.746094 76.917969 179.988281 92.191406 L 191.5625 92.191406 C 190 72.148438 181.664062 43.425781 146.542969 44.398438 Z M 146.542969 44.398438 " fill-opacity="1" fill-rule="evenodd"/><path fill="#fd6085" d="M 144.203125 9.746094 C 67.070312 11.910156 64.640625 83.371094 64.636719 92.191406 L 78.011719 92.191406 C 79.441406 72.894531 88.554688 21.269531 145.09375 19.683594 C 212.097656 17.804688 221.011719 73.535156 222.121094 92.191406 L 235.363281 92.191406 C 235.363281 92.191406 239.226562 7.078125 144.203125 9.746094 Z M 144.203125 9.746094 " fill-opacity="1" fill-rule="evenodd"/><g clip-path="url(#cc2925194a)"><path fill="#a089e4" d="M 296.574219 234.445312 C 296.574219 254.082031 281.996094 270.148438 264.183594 270.148438 L 35.835938 270.148438 C 18.023438 270.148438 3.445312 254.082031 3.445312 234.445312 L 3.445312 122.632812 C 3.445312 102.996094 18.023438 86.933594 35.835938 86.933594 L 264.183594 86.933594 C 281.996094 86.933594 296.574219 102.996094 296.574219 122.632812 Z M 296.574219 234.445312 " fill-opacity="1" fill-rule="evenodd"/></g><path fill="#7befe5" d="M 276.726562 237.480469 C 276.726562 245.152344 270.957031 251.371094 263.839844 251.371094 L 36.179688 251.371094 C 29.0625 251.371094 23.292969 245.152344 23.292969 237.480469 L 23.292969 121.710938 C 23.292969 114.039062 29.0625 107.816406 36.179688 107.816406 L 263.839844 107.816406 C 270.957031 107.816406 276.726562 114.039062 276.726562 121.710938 Z M 276.726562 237.480469 " fill-opacity="1" fill-rule="evenodd"/><path fill="#ffffff" d="M 93.6875 166.875 C 94.148438 167.597656 94.453125 168.511719 94.589844 169.628906 C 94.933594 171.925781 95.09375 174.269531 95.078125 176.664062 C 95.058594 179.066406 95.089844 181.414062 95.171875 183.710938 C 95.1875 186.402344 95.21875 189.0625 95.269531 191.6875 C 95.316406 194.3125 95.351562 196.976562 95.367188 199.664062 L 95.417969 208.035156 L 99.65625 208.011719 C 100.378906 208.007812 101.136719 208.085938 101.925781 208.246094 C 102.714844 208.402344 103.4375 208.675781 104.097656 209.070312 C 104.753906 209.457031 105.320312 209.949219 105.78125 210.535156 C 106.246094 211.121094 106.511719 211.84375 106.585938 212.695312 C 106.597656 214.800781 105.949219 216.234375 104.636719 216.996094 C 103.328125 217.757812 101.753906 218.210938 99.917969 218.351562 C 99.785156 218.351562 99.503906 218.375 99.078125 218.40625 C 98.652344 218.441406 98.175781 218.460938 97.652344 218.464844 C 97.125 218.464844 96.648438 218.472656 96.222656 218.472656 C 95.792969 218.476562 95.546875 218.414062 95.480469 218.28125 L 95.523438 224.980469 C 95.527344 225.703125 95.53125 226.519531 95.539062 227.441406 C 95.542969 228.363281 95.484375 229.265625 95.355469 230.152344 C 95.230469 231.039062 94.988281 231.878906 94.632812 232.667969 C 94.273438 233.460938 93.738281 234.085938 93.019531 234.550781 C 92.6875 234.75 92.28125 234.898438 91.789062 235 C 91.296875 235.101562 90.753906 235.1875 90.164062 235.257812 C 89.574219 235.324219 88.996094 235.347656 88.441406 235.316406 C 87.878906 235.285156 87.40625 235.207031 87.007812 235.078125 C 85.824219 234.691406 85.0625 233.859375 84.726562 232.582031 C 84.390625 231.300781 84.152344 230.105469 84.015625 228.988281 C 84.015625 228.792969 84.011719 228.152344 84.003906 227.070312 C 83.996094 225.984375 83.988281 224.839844 83.984375 223.621094 C 83.976562 222.40625 83.933594 221.304688 83.863281 220.320312 C 83.789062 219.335938 83.691406 218.84375 83.558594 218.84375 L 66.214844 218.953125 C 64.304688 218.960938 62.300781 218.945312 60.199219 218.890625 C 58.097656 218.839844 56.285156 218.257812 54.769531 217.152344 C 53.582031 216.304688 52.886719 215.339844 52.679688 214.257812 C 52.476562 213.175781 52.550781 212.089844 52.910156 211.007812 C 53.261719 209.917969 53.796875 208.851562 54.515625 207.792969 C 55.230469 206.742188 55.914062 205.785156 56.566406 204.925781 C 59.042969 201.5625 61.4375 198.132812 63.746094 194.636719 C 66.058594 191.144531 68.386719 187.679688 70.730469 184.253906 C 72.035156 182.472656 73.386719 180.753906 74.789062 179.105469 C 76.191406 177.457031 77.511719 175.742188 78.75 173.957031 C 79.660156 172.574219 80.652344 171.15625 81.730469 169.703125 C 82.804688 168.253906 84.160156 167.128906 85.800781 166.332031 C 87.371094 165.597656 88.882812 165.230469 90.324219 165.21875 C 91.769531 165.210938 92.890625 165.761719 93.6875 166.875 Z M 84.039062 184.664062 L 67.820312 207.8125 L 84.179688 207.710938 Z M 84.039062 184.664062 " fill-opacity="1" fill-rule="nonzero"/><path fill="#ffffff" d="M 128.183594 183.210938 C 128.195312 184.917969 127.59375 186.386719 126.386719 187.605469 C 125.179688 188.828125 123.722656 189.441406 122.011719 189.453125 C 120.304688 189.464844 118.839844 188.867188 117.617188 187.660156 C 116.394531 186.449219 115.777344 184.996094 115.765625 183.289062 C 115.757812 181.582031 116.351562 180.097656 117.5625 178.84375 C 118.769531 177.589844 120.226562 176.953125 121.9375 176.945312 C 123.644531 176.9375 125.109375 177.550781 126.332031 178.789062 C 127.554688 180.03125 128.171875 181.503906 128.183594 183.210938 Z M 128.40625 219.65625 C 128.417969 221.363281 127.816406 222.828125 126.609375 224.050781 C 125.402344 225.273438 123.945312 225.890625 122.234375 225.898438 C 120.527344 225.910156 119.0625 225.3125 117.839844 224.105469 C 116.613281 222.898438 116 221.441406 115.988281 219.734375 C 115.976562 218.023438 116.578125 216.542969 117.785156 215.289062 C 118.996094 214.03125 120.449219 213.398438 122.160156 213.390625 C 123.867188 213.378906 125.332031 213.992188 126.554688 215.234375 C 127.78125 216.472656 128.398438 217.949219 128.40625 219.65625 Z M 128.40625 219.65625 " fill-opacity="1" fill-rule="nonzero"/><path fill="#ffffff" d="M 148.90625 187.320312 C 147.929688 188.839844 146.765625 189.761719 145.421875 190.101562 C 144.078125 190.4375 142.777344 190.347656 141.527344 189.824219 C 140.277344 189.3125 139.234375 188.449219 138.40625 187.238281 C 137.578125 186.027344 137.222656 184.632812 137.347656 183.054688 C 137.40625 182.007812 137.660156 180.855469 138.113281 179.605469 C 138.566406 178.355469 139.136719 177.152344 139.816406 175.996094 C 140.5 174.847656 141.25 173.757812 142.066406 172.734375 C 142.878906 171.714844 143.710938 170.839844 144.5625 170.109375 C 146.132812 168.851562 147.914062 167.757812 149.914062 166.824219 C 151.910156 165.894531 154.007812 165.191406 156.207031 164.71875 C 158.40625 164.246094 160.605469 164.035156 162.808594 164.085938 C 165.007812 164.140625 167.0625 164.457031 168.972656 165.035156 C 174.238281 166.644531 178.328125 169.210938 181.242188 172.738281 C 184.152344 176.269531 185.628906 180.855469 185.664062 186.503906 C 185.679688 189.195312 185.449219 191.609375 184.96875 193.746094 C 184.488281 195.886719 183.648438 197.941406 182.445312 199.917969 C 181.238281 201.898438 179.640625 203.910156 177.652344 205.957031 C 175.660156 208.007812 173.195312 210.253906 170.25 212.703125 C 169.273438 213.5625 168.257812 214.421875 167.210938 215.277344 C 166.164062 216.140625 165.121094 217 164.074219 217.863281 C 163.746094 218.125 163.125 218.523438 162.210938 219.054688 C 161.292969 219.585938 160.472656 220.117188 159.753906 220.644531 C 159.035156 221.175781 158.609375 221.671875 158.484375 222.128906 C 158.351562 222.59375 158.882812 222.851562 160.066406 222.910156 C 161.511719 223.035156 162.660156 223.058594 163.515625 222.988281 C 164.367188 222.917969 165.519531 222.875 166.964844 222.867188 C 168.671875 222.855469 170.347656 222.8125 171.988281 222.738281 C 173.628906 222.664062 175.273438 222.6875 176.917969 222.808594 C 177.574219 222.867188 178.296875 222.882812 179.085938 222.839844 C 179.875 222.804688 180.664062 222.796875 181.453125 222.828125 C 182.238281 222.855469 182.996094 222.953125 183.71875 223.109375 C 184.441406 223.269531 185.066406 223.578125 185.597656 224.03125 C 186.125 224.492188 186.523438 225.109375 186.792969 225.898438 C 187.058594 226.683594 187.210938 227.523438 187.25 228.40625 C 187.289062 229.292969 187.210938 230.148438 187.019531 230.972656 C 186.828125 231.792969 186.503906 232.433594 186.046875 232.898438 C 185.199219 233.886719 184.148438 234.371094 182.902344 234.34375 C 181.652344 234.316406 180.46875 234.308594 179.351562 234.316406 L 143.972656 234.53125 C 143.3125 234.539062 142.609375 234.574219 141.851562 234.644531 C 141.097656 234.714844 140.425781 234.652344 139.832031 234.460938 C 138.648438 234.140625 138.066406 233.519531 138.09375 232.601562 C 138.125 231.679688 138.132812 230.726562 138.125 229.742188 C 138.117188 228.101562 138.5 226.574219 139.28125 225.15625 C 140.0625 223.738281 141.054688 222.421875 142.265625 221.199219 C 143.472656 219.976562 144.761719 218.835938 146.136719 217.777344 C 147.507812 216.714844 148.785156 215.691406 149.960938 214.699219 C 151.660156 213.179688 153.492188 211.65625 155.453125 210.132812 C 157.414062 208.613281 159.277344 207.089844 161.042969 205.566406 C 163.328125 203.648438 165.273438 201.898438 166.875 200.3125 C 168.472656 198.730469 169.761719 197.242188 170.738281 195.855469 C 171.71875 194.472656 172.429688 193.105469 172.882812 191.757812 C 173.332031 190.410156 173.554688 188.976562 173.546875 187.46875 C 173.527344 184.117188 172.492188 181.546875 170.445312 179.753906 C 168.394531 177.960938 165.796875 177.074219 162.640625 177.09375 C 160.339844 177.105469 158.191406 177.613281 156.195312 178.609375 C 154.199219 179.605469 152.546875 181.0625 151.246094 182.972656 C 150.855469 183.699219 150.480469 184.441406 150.125 185.199219 C 149.765625 185.953125 149.359375 186.660156 148.90625 187.320312 Z M 148.90625 187.320312 " fill-opacity="1" fill-rule="nonzero"/><path fill="#ffffff" d="M 221.535156 234.550781 C 220.351562 234.554688 219.152344 234.484375 217.9375 234.328125 C 216.71875 234.171875 215.519531 233.863281 214.332031 233.410156 C 212.554688 232.703125 210.855469 231.746094 209.238281 230.539062 C 207.621094 229.332031 206.152344 227.980469 204.828125 226.476562 C 201.652344 222.953125 199.230469 218.78125 197.558594 213.964844 C 195.886719 209.144531 195.035156 204.242188 195.003906 199.25 C 194.960938 192.421875 196.234375 185.816406 198.824219 179.429688 C 199.277344 178.3125 199.878906 177.125 200.625 175.871094 C 201.371094 174.621094 202.21875 173.417969 203.167969 172.261719 C 204.109375 171.109375 205.089844 170.066406 206.105469 169.144531 C 207.117188 168.214844 208.148438 167.519531 209.195312 167.054688 C 210.636719 166.386719 212.210938 165.722656 213.914062 165.054688 C 216.011719 164.382812 218.375 164.078125 221.003906 164.125 C 223.632812 164.171875 226.035156 164.457031 228.207031 164.96875 C 231.230469 165.667969 233.835938 166.953125 236.015625 168.808594 C 238.195312 170.667969 240.046875 172.890625 241.574219 175.472656 C 243.101562 178.058594 244.300781 180.875 245.175781 183.921875 C 246.046875 186.972656 246.691406 190.070312 247.105469 193.21875 C 247.378906 195.320312 247.492188 197.40625 247.4375 199.46875 C 247.386719 201.542969 247.234375 203.625 246.984375 205.730469 C 246.734375 207.636719 246.433594 209.542969 246.082031 211.449219 C 245.734375 213.355469 245.269531 215.199219 244.6875 216.972656 C 244.105469 218.75 243.363281 220.445312 242.453125 222.058594 C 241.542969 223.675781 240.402344 225.171875 239.03125 226.5625 C 236.546875 229.007812 233.847656 230.914062 230.933594 232.277344 C 228.015625 233.640625 224.886719 234.398438 221.535156 234.550781 Z M 221.085938 177.125 C 220.164062 177.132812 219.261719 177.21875 218.375 177.386719 C 217.488281 177.558594 216.65625 177.910156 215.871094 178.4375 C 214.953125 179.035156 214.136719 179.761719 213.417969 180.621094 C 212.699219 181.480469 212.082031 182.371094 211.5625 183.289062 C 210.199219 185.664062 209.257812 188.199219 208.75 190.894531 C 208.238281 193.59375 207.996094 196.316406 208.011719 199.074219 C 208.03125 201.898438 208.359375 204.820312 209 207.835938 C 209.644531 210.851562 210.792969 213.601562 212.453125 216.089844 C 213.246094 217.265625 214.191406 218.292969 215.28125 219.175781 C 216.371094 220.054688 217.636719 220.683594 219.085938 221.070312 C 220.402344 221.394531 221.734375 221.484375 223.082031 221.339844 C 224.425781 221.203125 225.6875 220.765625 226.867188 220.039062 C 228.765625 218.84375 230.265625 217.261719 231.371094 215.28125 C 232.476562 213.304688 233.300781 211.167969 233.84375 208.863281 C 234.386719 206.5625 234.703125 204.195312 234.785156 201.765625 C 234.871094 199.335938 234.839844 197.136719 234.699219 195.167969 C 234.550781 193.195312 234.210938 191.132812 233.671875 188.96875 C 233.132812 186.804688 232.351562 184.839844 231.320312 183.070312 C 230.289062 181.304688 228.9375 179.851562 227.253906 178.710938 C 225.570312 177.574219 223.515625 177.046875 221.085938 177.125 Z M 221.085938 177.125 " fill-opacity="1" fill-rule="nonzero"/><path fill="#ffffff" d="M 256.679688 153.246094 C 256.074219 152.660156 254.851562 144.421875 253.75 144.488281 C 252.640625 144.554688 251.675781 152.722656 251.15625 153.261719 C 250.117188 154.34375 242.519531 155.105469 242.582031 156.152344 C 242.644531 157.199219 250.105469 157.6875 251.160156 158.714844 C 251.75 159.28125 252.984375 167.542969 254.09375 167.476562 C 255.199219 167.410156 256.148438 159.265625 256.6875 158.707031 C 257.6875 157.664062 265.347656 156.859375 265.285156 155.808594 C 265.222656 154.761719 257.695312 154.234375 256.679688 153.246094 Z M 256.679688 153.246094 " fill-opacity="1" fill-rule="nonzero"/><path fill="#ffffff" d="M 123.195312 53.179688 C 122.589844 52.59375 121.371094 44.355469 120.265625 44.417969 C 119.15625 44.488281 118.191406 52.65625 117.671875 53.195312 C 116.632812 54.273438 109.035156 55.039062 109.097656 56.082031 C 109.160156 57.128906 116.625 57.621094 117.675781 58.644531 C 118.265625 59.210938 119.5 67.472656 120.609375 67.40625 C 121.714844 67.339844 122.664062 59.195312 123.203125 58.640625 C 124.207031 57.597656 131.863281 56.789062 131.800781 55.738281 C 131.738281 54.695312 124.210938 54.164062 123.195312 53.179688 Z M 123.195312 53.179688 " fill-opacity="1" fill-rule="nonzero"/><path fill="#ffffff" d="M 76.476562 131.988281 C 75.867188 131.398438 74.648438 123.160156 73.542969 123.226562 C 72.433594 123.292969 71.46875 131.460938 70.949219 132 C 69.910156 133.078125 62.3125 133.84375 62.375 134.890625 C 62.4375 135.933594 69.902344 136.429688 70.953125 137.449219 C 71.542969 138.019531 72.78125 146.277344 73.886719 146.214844 C 74.996094 146.148438 75.941406 138.003906 76.480469 137.445312 C 77.484375 136.402344 85.140625 135.597656 85.082031 134.546875 C 85.019531 133.496094 77.488281 132.972656 76.476562 131.988281 Z M 76.476562 131.988281 " fill-opacity="1" fill-rule="nonzero"/><path fill="#074785" d="M 47.707031 175.808594 C 47.101562 175.21875 45.882812 166.980469 44.777344 167.046875 C 43.667969 167.113281 42.703125 175.28125 42.1875 175.820312 C 41.144531 176.902344 33.546875 177.664062 33.609375 178.710938 C 33.671875 179.757812 41.132812 180.25 42.1875 181.269531 C 42.777344 181.835938 44.015625 190.101562 45.121094 190.035156 C 46.226562 189.96875 47.175781 181.824219 47.714844 181.265625 C 48.71875 180.222656 56.375 179.417969 56.316406 178.371094 C 56.25 177.320312 48.722656 176.792969 47.707031 175.808594 Z M 47.707031 175.808594 " fill-opacity="1" fill-rule="nonzero"/><path fill="#074785" d="M 262.28125 227.0625 C 261.675781 226.476562 260.453125 218.242188 259.351562 218.304688 C 258.242188 218.375 257.277344 226.539062 256.757812 227.082031 C 255.71875 228.160156 248.117188 228.921875 248.179688 229.972656 C 248.242188 231.015625 255.707031 231.507812 256.761719 232.53125 C 257.351562 233.097656 258.585938 241.359375 259.695312 241.292969 C 260.800781 241.230469 261.75 233.082031 262.285156 232.523438 C 263.289062 231.484375 270.949219 230.679688 270.886719 229.628906 C 270.824219 228.578125 263.296875 228.050781 262.28125 227.0625 Z M 262.28125 227.0625 " fill-opacity="1" fill-rule="nonzero"/><path fill="#074785" d="M 193.242188 41.640625 C 192.632812 41.054688 191.414062 32.816406 190.3125 32.882812 C 189.199219 32.949219 188.234375 41.117188 187.71875 41.65625 C 186.679688 42.738281 179.078125 43.5 179.140625 44.546875 C 179.203125 45.589844 186.667969 46.082031 187.722656 47.105469 C 188.308594 47.671875 189.546875 55.9375 190.652344 55.871094 C 191.761719 55.804688 192.707031 47.65625 193.246094 47.101562 C 194.25 46.058594 201.910156 45.253906 201.847656 44.207031 C 201.785156 43.15625 194.257812 42.625 193.242188 41.640625 Z M 193.242188 41.640625 " fill-opacity="1" fill-rule="nonzero"/><path fill="#074785" d="M 112.480469 118.722656 C 102.996094 118.953125 97.433594 126.632812 97.324219 136.246094 C 97.265625 141.164062 104.5 141.675781 104.558594 136.734375 C 104.617188 131.347656 106.492188 127.179688 111.855469 126.390625 C 117.742188 125.527344 120.90625 129.976562 120.332031 135.753906 C 119.847656 140.664062 127.085938 141.132812 127.570312 136.246094 C 128.554688 126.273438 122.039062 118.492188 112.480469 118.722656 Z M 112.480469 118.722656 " fill-opacity="1" fill-rule="nonzero"/><path fill="#074785" d="M 187.839844 115.949219 C 178.371094 116.46875 173.019531 124.3125 173.167969 133.929688 C 173.242188 138.847656 180.484375 139.136719 180.410156 134.195312 C 180.324219 128.808594 182.085938 124.585938 187.421875 123.636719 C 193.28125 122.59375 196.5625 126.949219 196.148438 132.746094 C 195.796875 137.667969 203.039062 137.914062 203.390625 133.015625 C 204.105469 123.011719 197.386719 115.429688 187.839844 115.949219 Z M 187.839844 115.949219 " fill-opacity="1" fill-rule="nonzero"/><path fill="#074785" d="M 163.515625 135.398438 C 163.726562 133.324219 162.964844 131.316406 160.859375 130.765625 C 159.128906 130.308594 156.691406 131.480469 156.480469 133.558594 C 156.171875 136.554688 155.609375 141.75 152.371094 142.839844 C 147.792969 144.378906 145.65625 138.507812 145.355469 134.855469 C 144.957031 129.964844 137.714844 130.125 138.113281 135.058594 C 138.78125 143.21875 143.3125 150.765625 151.789062 150.585938 C 159.425781 150.425781 162.796875 142.347656 163.515625 135.398438 Z M 163.515625 135.398438 " fill-opacity="1" fill-rule="nonzero"/><path fill="#ffffff" d="M 235.386719 129.449219 C 231.515625 129.449219 231.515625 135.449219 235.386719 135.449219 C 239.253906 135.449219 239.253906 129.449219 235.386719 129.449219 Z M 235.386719 129.449219 " fill-opacity="1" fill-rule="nonzero"/><path fill="#ffffff" d="M 190.496094 64.410156 C 186.625 64.410156 186.625 70.40625 190.496094 70.40625 C 194.363281 70.40625 194.363281 64.410156 190.496094 64.410156 Z M 190.496094 64.410156 " fill-opacity="1" fill-rule="nonzero"/><path fill="#ffffff" d="M 147.109375 16.636719 C 143.238281 16.636719 143.238281 22.636719 147.109375 22.636719 C 150.976562 22.636719 150.976562 16.636719 147.109375 16.636719 Z M 147.109375 16.636719 " fill-opacity="1" fill-rule="nonzero"/><path fill="#ffffff" d="M 104.222656 29.882812 C 100.351562 29.882812 100.351562 35.878906 104.222656 35.878906 C 108.089844 35.878906 108.089844 29.882812 104.222656 29.882812 Z M 104.222656 29.882812 " fill-opacity="1" fill-rule="nonzero"/><path fill="#ffffff" d="M 145.832031 49.875 C 141.960938 49.875 141.960938 55.871094 145.832031 55.871094 C 149.699219 55.871094 149.699219 49.875 145.832031 49.875 Z M 145.832031 49.875 " fill-opacity="1" fill-rule="nonzero"/><path fill="#ffffff" d="M 91.382812 64.410156 C 87.511719 64.410156 87.511719 70.40625 91.382812 70.40625 C 95.253906 70.40625 95.253906 64.410156 91.382812 64.410156 Z M 91.382812 64.410156 " fill-opacity="1" fill-rule="nonzero"/><path fill="#ffffff" d="M 218.785156 65.28125 C 214.914062 65.28125 214.914062 71.28125 218.785156 71.28125 C 222.65625 71.28125 222.65625 65.28125 218.785156 65.28125 Z M 218.785156 65.28125 " fill-opacity="1" fill-rule="nonzero"/><path fill="#ffffff" d="M 44.960938 131.71875 C 41.089844 131.71875 41.089844 137.71875 44.960938 137.71875 C 48.832031 137.71875 48.832031 131.71875 44.960938 131.71875 Z M 44.960938 131.71875 " fill-opacity="1" fill-rule="nonzero"/><path fill="#ffffff" d="M 50.765625 231.289062 C 46.898438 231.289062 46.898438 237.285156 50.765625 237.285156 C 54.636719 237.285156 54.636719 231.289062 50.765625 231.289062 Z M 50.765625 231.289062 " fill-opacity="1" fill-rule="nonzero"/><path fill="#ffffff" d="M 255.257812 103.503906 C 260.449219 103.917969 261.089844 95.878906 255.902344 95.460938 C 250.71875 95.046875 250.074219 103.082031 255.257812 103.503906 Z M 255.257812 103.503906 " fill-opacity="1" fill-rule="evenodd"/><path fill="#ffffff" d="M 193.679688 103.40625 C 209.207031 103.546875 224.734375 103.355469 240.265625 103.496094 C 245.34375 103.542969 245.421875 95.664062 240.339844 95.617188 C 224.8125 95.480469 209.28125 95.667969 193.757812 95.53125 C 188.671875 95.488281 188.597656 103.363281 193.679688 103.40625 Z M 193.679688 103.40625 " fill-opacity="1" fill-rule="evenodd"/><path fill="#ffffff" d="M 178.054688 103.519531 C 183.117188 103.921875 183.75 96.070312 178.683594 95.667969 C 173.617188 95.261719 172.988281 103.113281 178.054688 103.519531 Z M 178.054688 103.519531 " fill-opacity="1" fill-rule="evenodd"/><path fill="#ffffff" d="M 195.84375 264.75 C 201.03125 265.160156 201.675781 257.125 196.488281 256.710938 C 191.304688 256.292969 190.660156 264.332031 195.84375 264.75 Z M 195.84375 264.75 " fill-opacity="1" fill-rule="evenodd"/><path fill="#ffffff" d="M 134.265625 264.652344 C 149.792969 264.792969 165.320312 264.601562 180.851562 264.742188 C 185.929688 264.789062 186.003906 256.910156 180.925781 256.867188 C 165.394531 256.726562 149.867188 256.917969 134.339844 256.78125 C 129.257812 256.734375 129.183594 264.609375 134.265625 264.652344 Z M 134.265625 264.652344 " fill-opacity="1" fill-rule="evenodd"/><path fill="#ffffff" d="M 118.640625 264.765625 C 123.703125 265.167969 124.335938 257.316406 119.269531 256.914062 C 114.203125 256.507812 113.574219 264.359375 118.640625 264.765625 Z M 118.640625 264.765625 " fill-opacity="1" fill-rule="evenodd"/><path fill="#ffffff" d="M 11.714844 208.136719 C 11.398438 212.367188 17.960938 212.855469 18.277344 208.625 C 18.59375 204.402344 12.035156 203.910156 11.714844 208.136719 Z M 11.714844 208.136719 " fill-opacity="1" fill-rule="evenodd"/><path fill="#ffffff" d="M 11.53125 157.953125 C 11.484375 170.609375 11.707031 183.265625 11.65625 195.917969 C 11.640625 200.058594 18.066406 200.085938 18.082031 195.945312 C 18.128906 183.289062 17.90625 170.636719 17.953125 157.984375 C 17.972656 153.839844 11.546875 153.8125 11.53125 157.953125 Z M 11.53125 157.953125 " fill-opacity="1" fill-rule="evenodd"/><path fill="#ffffff" d="M 11.371094 145.222656 C 11.066406 149.347656 17.472656 149.832031 17.78125 145.699219 C 18.089844 141.570312 11.683594 141.09375 11.371094 145.222656 Z M 11.371094 145.222656 " fill-opacity="1" fill-rule="evenodd"/><path fill="#ffffff" d="M 282.851562 234.421875 C 282.535156 238.648438 289.097656 239.140625 289.417969 234.914062 C 289.730469 230.683594 283.171875 230.195312 282.851562 234.421875 Z M 282.851562 234.421875 " fill-opacity="1" fill-rule="evenodd"/><path fill="#ffffff" d="M 282.667969 184.238281 C 282.621094 196.894531 282.84375 209.546875 282.792969 222.203125 C 282.78125 226.339844 289.207031 226.371094 289.222656 222.230469 C 289.269531 209.570312 289.046875 196.921875 289.09375 184.265625 C 289.109375 180.125 282.683594 180.09375 282.667969 184.238281 Z M 282.667969 184.238281 " fill-opacity="1" fill-rule="evenodd"/><path fill="#ffffff" d="M 282.511719 171.503906 C 282.203125 175.632812 288.609375 176.113281 288.917969 171.984375 C 289.230469 167.855469 282.820312 167.375 282.511719 171.503906 Z M 282.511719 171.503906 " fill-opacity="1" fill-rule="evenodd"/><path fill="#29aefd" d="M 126.921875 152.589844 C 126.921875 156.957031 120.933594 160.5 113.546875 160.5 C 106.15625 160.5 100.167969 156.957031 100.167969 152.589844 C 100.167969 148.222656 106.15625 144.679688 113.546875 144.679688 C 120.933594 144.679688 126.921875 148.222656 126.921875 152.589844 Z M 126.921875 152.589844 " fill-opacity="1" fill-rule="nonzero"/><path fill="#29aefd" d="M 200.597656 152.589844 C 200.597656 156.957031 194.609375 160.5 187.21875 160.5 C 179.832031 160.5 173.84375 156.957031 173.84375 152.589844 C 173.84375 148.222656 179.832031 144.679688 187.21875 144.679688 C 194.609375 144.679688 200.597656 148.222656 200.597656 152.589844 Z M 200.597656 152.589844 " fill-opacity="1" fill-rule="nonzero"/></svg>