<svg xmlns="http://www.w3.org/2000/svg" xmlns:xlink="http://www.w3.org/1999/xlink" width="400" zoomAndPan="magnify" viewBox="0 0 300 299.999988" height="400" preserveAspectRatio="xMidYMid meet" version="1.0"><defs><clipPath id="606b0f21e9"><path d="M 6 20.480469 L 174 20.480469 L 174 190 L 6 190 Z M 6 20.480469 " clip-rule="nonzero"/></clipPath><clipPath id="fd1e1d3a36"><path d="M 128 114 L 293.890625 114 L 293.890625 279 L 128 279 Z M 128 114 " clip-rule="nonzero"/></clipPath></defs><g clip-path="url(#606b0f21e9)"><path fill="#f1854f" d="M 172.675781 100.195312 C 172.066406 99.097656 170.957031 98.375 169.707031 98.261719 C 159.035156 97.324219 149.621094 97.597656 140.921875 99.097656 C 137.488281 99.691406 134.1875 100.46875 130.984375 101.441406 C 134.871094 95.9375 138.191406 90.195312 140.921875 84.261719 C 145.640625 73.996094 148.734375 62.820312 150.117188 51.046875 C 150.28125 49.652344 149.652344 48.28125 148.492188 47.484375 C 147.667969 46.921875 146.667969 46.71875 145.714844 46.882812 C 145.324219 46.949219 144.941406 47.078125 144.578125 47.269531 C 135.273438 52.226562 126.691406 58.726562 118.351562 67.144531 C 113.023438 72.519531 108.136719 78.417969 103.535156 85.035156 C 101.195312 75.894531 97.820312 66.984375 93.644531 57.019531 C 88.714844 45.246094 83.1875 33.675781 77.214844 22.628906 C 76.457031 21.230469 74.90625 20.453125 73.332031 20.6875 C 73.300781 20.691406 73.273438 20.699219 73.242188 20.703125 C 71.710938 20.96875 70.492188 22.144531 70.179688 23.675781 C 67.332031 37.707031 65.667969 50.183594 65.085938 61.824219 C 64.570312 72.144531 64.890625 81.863281 66.0625 91.292969 C 59.488281 86.640625 52.988281 82.78125 46.371094 79.582031 C 36.179688 74.660156 25.921875 71.402344 15.015625 69.632812 C 14.589844 69.5625 14.171875 69.566406 13.761719 69.636719 C 12.816406 69.800781 11.953125 70.320312 11.363281 71.113281 C 10.523438 72.253906 10.386719 73.769531 11.015625 75.039062 C 16.289062 85.699219 22.972656 95.210938 30.882812 103.308594 C 35.433594 107.972656 40.480469 112.257812 45.972656 116.128906 C 42.652344 116.289062 39.296875 116.660156 35.886719 117.25 C 27.199219 118.753906 18.175781 121.675781 8.308594 126.1875 C 7.015625 126.777344 6.160156 128.042969 6.101562 129.460938 C 6.039062 130.878906 6.78125 132.214844 8.015625 132.914062 C 8.167969 133 8.304688 133.082031 8.429688 133.160156 C 8.800781 133.382812 9.226562 133.640625 9.765625 133.863281 C 11.832031 134.714844 13.933594 135.609375 15.964844 136.476562 C 20.789062 138.527344 25.78125 140.652344 30.851562 142.480469 C 42.304688 146.601562 52.804688 148.574219 62.957031 148.507812 C 64.097656 148.5 65.238281 148.449219 66.371094 148.375 C 61.601562 155.945312 58.761719 164.503906 57.75 174.320312 C 57.605469 175.714844 58.246094 177.078125 59.417969 177.855469 C 60.234375 178.398438 61.21875 178.597656 62.15625 178.433594 C 62.558594 178.363281 62.953125 178.230469 63.324219 178.027344 C 70.472656 174.132812 76.777344 169.386719 82.058594 163.917969 C 84.9375 160.9375 87.5625 157.691406 89.917969 154.203125 L 91.101562 154.394531 C 91.128906 154.558594 90.179688 155.800781 90.203125 155.964844 C 91.714844 165.167969 93.226562 174.367188 94.742188 183.574219 C 95.15625 186.085938 96.402344 187.433594 97.371094 188.125 C 98.324219 188.796875 99.953125 189.519531 102.335938 189.105469 C 102.425781 189.089844 102.511719 189.074219 102.601562 189.054688 C 106.46875 188.273438 108.453125 185.183594 107.65625 181.1875 C 106.453125 175.132812 105.25 169.078125 104.046875 163.023438 C 103.4375 159.980469 102.835938 156.9375 102.230469 153.898438 C 102.167969 153.585938 100.425781 153.269531 100.363281 152.957031 C 100.304688 152.652344 101.921875 152.347656 101.859375 152.039062 C 111.417969 159.015625 122.492188 163.472656 135.441406 165.574219 C 135.859375 165.640625 136.285156 165.636719 136.6875 165.566406 C 137.628906 165.40625 138.488281 164.890625 139.078125 164.105469 C 139.921875 162.972656 140.066406 161.46875 139.453125 160.199219 C 135.199219 151.386719 129.65625 144.300781 122.632812 138.738281 C 127.136719 137.417969 131.730469 135.488281 136.546875 132.898438 C 151.371094 124.921875 163.140625 113.960938 171.734375 105.308594 C 172.367188 104.675781 172.640625 104.007812 172.773438 103.6875 L 172.78125 103.667969 C 173.3125 102.5625 173.273438 101.269531 172.675781 100.195312 Z M 172.675781 100.195312 " fill-opacity="1" fill-rule="evenodd"/></g><g clip-path="url(#fd1e1d3a36)"><path fill="#a089e4" d="M 291.359375 229.53125 C 291.296875 228.277344 290.621094 227.136719 289.546875 226.484375 C 280.402344 220.917969 271.839844 216.996094 263.375 214.488281 C 260.03125 213.5 256.726562 212.738281 253.425781 212.1875 C 259.347656 208.976562 264.871094 205.296875 269.945312 201.183594 C 278.726562 194.070312 286.449219 185.421875 292.902344 175.476562 C 293.671875 174.296875 293.714844 172.789062 293.027344 171.566406 C 292.535156 170.695312 291.730469 170.070312 290.804688 169.792969 C 290.421875 169.683594 290.023438 169.628906 289.617188 169.640625 C 279.074219 169.964844 268.503906 171.996094 257.292969 175.847656 C 250.136719 178.304688 243.136719 181.433594 236.089844 185.328125 C 238.035156 176.097656 238.957031 166.617188 239.628906 155.832031 C 240.425781 143.089844 240.59375 130.269531 240.132812 117.722656 C 240.074219 116.132812 239.027344 114.75 237.507812 114.261719 C 237.480469 114.253906 237.453125 114.246094 237.425781 114.238281 C 235.933594 113.796875 234.320312 114.3125 233.363281 115.546875 C 224.597656 126.867188 217.574219 137.316406 211.894531 147.496094 C 206.863281 156.523438 202.839844 165.375 199.714844 174.347656 C 195.882812 167.269531 191.765625 160.929688 187.246094 155.132812 C 180.289062 146.207031 172.535156 138.746094 163.542969 132.328125 C 163.191406 132.082031 162.8125 131.894531 162.414062 131.78125 C 161.496094 131.507812 160.492188 131.59375 159.609375 132.046875 C 158.351562 132.695312 157.558594 133.992188 157.558594 135.40625 C 157.566406 147.300781 159.347656 158.789062 162.847656 169.550781 C 164.863281 175.742188 167.488281 181.820312 170.699219 187.722656 C 167.648438 186.394531 164.480469 185.246094 161.15625 184.261719 C 152.707031 181.765625 143.324219 180.390625 132.472656 180.066406 C 131.054688 180.019531 129.726562 180.78125 129.042969 182.027344 C 128.359375 183.273438 128.433594 184.792969 129.234375 185.972656 C 129.332031 186.113281 129.414062 186.246094 129.492188 186.371094 C 129.726562 186.738281 129.996094 187.15625 130.378906 187.59375 C 131.851562 189.273438 133.339844 191.003906 134.777344 192.679688 C 138.195312 196.65625 141.730469 200.765625 145.46875 204.652344 C 153.910156 213.421875 162.453125 219.839844 171.582031 224.269531 C 172.609375 224.769531 173.652344 225.230469 174.699219 225.664062 C 167.070312 230.339844 160.734375 236.757812 155.480469 245.109375 C 154.730469 246.296875 154.703125 247.804688 155.40625 249.019531 C 155.898438 249.867188 156.695312 250.480469 157.609375 250.75 C 157.996094 250.863281 158.414062 250.917969 158.832031 250.902344 C 166.96875 250.574219 174.722656 249.109375 181.878906 246.542969 C 185.78125 245.144531 189.710938 243.242188 193.367188 241.15625 L 195.574219 241.988281 C 195.539062 242.101562 192.820312 242.847656 192.785156 242.960938 C 190.050781 251.925781 187.277344 260.820312 184.546875 269.78125 C 183.804688 272.21875 184.320312 273.980469 184.886719 275.027344 C 185.4375 276.054688 186.582031 277.421875 188.90625 278.105469 C 188.988281 278.128906 189.074219 278.15625 189.160156 278.175781 C 192.976562 279.1875 196.121094 277.296875 197.179688 273.363281 C 198.785156 267.402344 200.386719 261.4375 201.988281 255.476562 C 202.796875 252.472656 203.574219 249.472656 204.378906 246.46875 C 204.464844 246.148438 203.382812 245.277344 203.476562 244.957031 C 203.558594 244.675781 204.820312 244.945312 204.894531 244.660156 C 210.375 255.148438 218.332031 264.042969 229.011719 271.660156 C 229.355469 271.910156 229.734375 272.089844 230.132812 272.210938 C 231.042969 272.480469 232.042969 272.398438 232.921875 271.953125 C 234.175781 271.3125 234.972656 270.027344 234.988281 268.621094 C 235.082031 258.835938 233.25 250.03125 229.417969 241.933594 C 234.035156 242.742188 239.011719 243.042969 244.476562 242.855469 C 261.300781 242.265625 276.710938 237.652344 288.25 233.695312 C 289.097656 233.40625 289.640625 232.929688 289.898438 232.703125 L 289.914062 232.691406 C 290.878906 231.933594 291.421875 230.757812 291.359375 229.53125 Z M 291.359375 229.53125 " fill-opacity="1" fill-rule="evenodd"/></g><path fill="#074785" d="M 207.082031 94.800781 C 206.203125 93.945312 204.433594 81.984375 202.828125 82.082031 C 201.21875 82.183594 199.816406 94.042969 199.066406 94.824219 C 197.554688 96.390625 186.527344 97.5 186.617188 99.019531 C 186.707031 100.535156 197.539062 101.257812 199.070312 102.734375 C 199.921875 103.558594 201.71875 115.554688 203.328125 115.460938 C 204.933594 115.367188 206.308594 103.535156 207.089844 102.726562 C 208.546875 101.214844 219.664062 100.046875 219.574219 98.519531 C 219.484375 96.996094 208.558594 96.230469 207.082031 94.800781 Z M 207.082031 94.800781 " fill-opacity="1" fill-rule="nonzero"/><path fill="#074785" d="M 120.9375 223.570312 C 120.054688 222.714844 118.285156 210.753906 116.679688 210.847656 C 115.070312 210.949219 113.667969 222.808594 112.917969 223.589844 C 111.40625 225.160156 100.378906 226.265625 100.46875 227.789062 C 100.558594 229.304688 111.394531 230.023438 112.921875 231.503906 C 113.773438 232.324219 115.570312 244.320312 117.179688 244.226562 C 118.789062 244.132812 120.160156 232.304688 120.941406 231.492188 C 122.398438 229.984375 133.515625 228.8125 133.425781 227.289062 C 133.335938 225.761719 122.40625 225 120.9375 223.570312 Z M 120.9375 223.570312 " fill-opacity="1" fill-rule="nonzero"/><path fill="#7befe5" d="M 187.109375 219.550781 C 186.304688 222.492188 182.226562 223.875 178.003906 222.640625 C 173.78125 221.40625 171.011719 218.015625 171.816406 215.074219 C 172.625 212.128906 176.699219 210.746094 180.925781 211.984375 C 185.144531 213.21875 187.914062 216.605469 187.109375 219.550781 Z M 187.109375 219.550781 " fill-opacity="1" fill-rule="evenodd"/><path fill="#7befe5" d="M 240.238281 235.101562 C 239.429688 238.042969 235.355469 239.425781 231.132812 238.191406 C 226.910156 236.957031 224.140625 233.570312 224.949219 230.625 C 225.753906 227.683594 229.832031 226.296875 234.050781 227.535156 C 238.277344 228.769531 241.042969 232.15625 240.238281 235.101562 Z M 240.238281 235.101562 " fill-opacity="1" fill-rule="evenodd"/><path fill="#ffffff" d="M 206.136719 203.535156 C 204.207031 210.585938 197.058594 214.730469 189.875 213.15625 C 189.546875 213.082031 187.519531 184.707031 194.425781 185.8125 C 195.019531 185.90625 195.617188 186.039062 196.214844 186.214844 C 203.710938 188.414062 208.15625 196.164062 206.136719 203.535156 Z M 206.136719 203.535156 " fill-opacity="1" fill-rule="nonzero"/><path fill="#074785" d="M 178.976562 195.585938 C 176.957031 202.957031 181.398438 210.710938 188.898438 212.90625 C 189.230469 213 189.558594 213.082031 189.890625 213.15625 C 198.496094 202.855469 196.765625 192.25 194.292969 185.796875 C 187.4375 184.761719 180.820312 188.84375 178.976562 195.585938 Z M 178.976562 195.585938 " fill-opacity="1" fill-rule="evenodd"/><path fill="#ffffff" d="M 244.019531 214.5625 C 242.089844 221.605469 234.953125 225.75 227.777344 224.1875 C 227.445312 224.113281 225.34375 195.769531 232.214844 196.824219 C 232.839844 196.921875 233.46875 197.058594 234.097656 197.246094 C 241.597656 199.441406 246.042969 207.195312 244.019531 214.5625 Z M 244.019531 214.5625 " fill-opacity="1" fill-rule="nonzero"/><path fill="#074785" d="M 216.855469 206.613281 C 214.835938 213.984375 219.28125 221.738281 226.78125 223.933594 C 227.113281 224.027344 227.445312 224.109375 227.773438 224.179688 C 236.378906 213.882812 234.648438 203.28125 232.175781 196.820312 C 225.316406 195.789062 218.703125 199.871094 216.855469 206.613281 Z M 216.855469 206.613281 " fill-opacity="1" fill-rule="evenodd"/><path fill="#074785" d="M 186.285156 182.207031 C 185.085938 181.855469 184.332031 180.664062 184.40625 179.242188 C 184.488281 177.609375 185.558594 176.3125 187.007812 176.09375 C 190.492188 175.5625 194.066406 175.808594 197.628906 176.824219 C 199.175781 177.273438 199.972656 178.894531 199.515625 180.597656 C 199.050781 182.316406 197.542969 183.277344 196.003906 182.839844 C 193.125 182.019531 190.316406 181.835938 187.421875 182.277344 C 187.027344 182.335938 186.644531 182.3125 186.285156 182.207031 Z M 186.285156 182.207031 " fill-opacity="1" fill-rule="nonzero"/><path fill="#074785" d="M 231.375 192.847656 C 230.425781 192.023438 230.230469 190.632812 230.882812 189.382812 C 231.640625 187.941406 233.152344 187.222656 234.566406 187.632812 C 237.976562 188.621094 241.144531 190.351562 243.984375 192.769531 C 245.207031 193.828125 245.269531 195.628906 244.144531 196.972656 C 243.007812 198.324219 241.226562 198.558594 240.003906 197.515625 C 237.707031 195.5625 235.214844 194.210938 232.382812 193.386719 C 232 193.277344 231.660156 193.09375 231.375 192.847656 Z M 231.375 192.847656 " fill-opacity="1" fill-rule="nonzero"/><path fill="#074785" d="M 214.351562 218.457031 C 214.941406 216.246094 211.539062 215.25 210.953125 217.460938 C 210.425781 219.4375 210.078125 223.84375 207.351562 223.773438 C 204.089844 223.691406 205.332031 218.902344 205.910156 217.089844 C 206.609375 214.914062 203.203125 213.929688 202.507812 216.09375 C 201.214844 220.140625 201.046875 225.640625 206.007812 227.117188 C 211.695312 228.808594 213.265625 222.535156 214.351562 218.457031 Z M 214.351562 218.457031 " fill-opacity="1" fill-rule="nonzero"/><path fill="#ffffff" d="M 220.441406 203.804688 C 219.277344 206.175781 218.609375 208.664062 218.972656 211.339844 C 219.132812 212.542969 220.957031 212.183594 220.796875 210.996094 C 220.503906 208.84375 221.070312 206.746094 222.007812 204.847656 C 222.535156 203.78125 220.976562 202.726562 220.441406 203.804688 Z M 220.441406 203.804688 " fill-opacity="1" fill-rule="nonzero"/><path fill="#ffffff" d="M 219.328125 214.53125 C 219.40625 214.820312 219.476562 215.109375 219.554688 215.402344 C 219.6875 215.894531 220.132812 216.246094 220.652344 216.148438 C 221.121094 216.058594 221.515625 215.546875 221.378906 215.054688 C 221.300781 214.765625 221.226562 214.472656 221.148438 214.183594 C 221.015625 213.6875 220.574219 213.335938 220.050781 213.4375 C 219.582031 213.523438 219.191406 214.039062 219.328125 214.53125 Z M 219.328125 214.53125 " fill-opacity="1" fill-rule="nonzero"/><path fill="#ffffff" d="M 222.699219 201.140625 C 222.390625 201.535156 222.582031 202.179688 222.980469 202.441406 C 223.429688 202.742188 223.953125 202.578125 224.261719 202.179688 C 224.253906 202.1875 224.246094 202.1875 224.234375 202.195312 C 224.675781 201.945312 224.882812 201.421875 224.640625 200.941406 C 224.425781 200.503906 223.832031 200.261719 223.390625 200.511719 C 223.101562 200.675781 222.90625 200.878906 222.699219 201.140625 Z M 222.699219 201.140625 " fill-opacity="1" fill-rule="nonzero"/><path fill="#ffffff" d="M 224.265625 202.1875 C 224.277344 202.179688 224.285156 202.167969 224.296875 202.160156 C 224.285156 202.164062 224.273438 202.171875 224.261719 202.179688 C 224.097656 202.390625 224.21875 202.234375 224.265625 202.1875 Z M 224.265625 202.1875 " fill-opacity="1" fill-rule="nonzero"/><path fill="#ffffff" d="M 224.296875 202.160156 C 224.414062 202.089844 224.355469 202.117188 224.296875 202.160156 Z M 224.296875 202.160156 " fill-opacity="1" fill-rule="nonzero"/><path fill="#ffffff" d="M 182.113281 192.585938 C 180.945312 194.953125 180.277344 197.445312 180.644531 200.117188 C 180.804688 201.324219 182.628906 200.964844 182.464844 199.773438 C 182.175781 197.621094 182.742188 195.527344 183.675781 193.625 C 184.203125 192.5625 182.644531 191.507812 182.113281 192.585938 Z M 182.113281 192.585938 " fill-opacity="1" fill-rule="nonzero"/><path fill="#ffffff" d="M 180.996094 203.308594 C 181.074219 203.601562 181.144531 203.890625 181.222656 204.179688 C 181.355469 204.675781 181.796875 205.027344 182.324219 204.929688 C 182.789062 204.835938 183.183594 204.328125 183.042969 203.832031 C 182.96875 203.542969 182.898438 203.253906 182.816406 202.964844 C 182.683594 202.46875 182.242188 202.113281 181.71875 202.214844 C 181.25 202.304688 180.859375 202.816406 180.996094 203.308594 Z M 180.996094 203.308594 " fill-opacity="1" fill-rule="nonzero"/><path fill="#ffffff" d="M 184.371094 189.917969 C 184.058594 190.320312 184.253906 190.957031 184.648438 191.21875 C 185.101562 191.523438 185.621094 191.359375 185.933594 190.960938 C 185.921875 190.96875 185.914062 190.96875 185.90625 190.976562 C 186.34375 190.726562 186.550781 190.199219 186.3125 189.722656 C 186.09375 189.28125 185.5 189.042969 185.0625 189.289062 C 184.769531 189.457031 184.570312 189.65625 184.371094 189.917969 Z M 184.371094 189.917969 " fill-opacity="1" fill-rule="nonzero"/><path fill="#ffffff" d="M 185.933594 190.96875 C 185.945312 190.957031 185.953125 190.949219 185.96875 190.941406 C 185.957031 190.949219 185.941406 190.953125 185.933594 190.960938 C 185.765625 191.167969 185.886719 191.011719 185.933594 190.96875 Z M 185.933594 190.96875 " fill-opacity="1" fill-rule="nonzero"/><path fill="#ffffff" d="M 185.96875 190.941406 C 186.082031 190.871094 186.023438 190.898438 185.96875 190.941406 Z M 185.96875 190.941406 " fill-opacity="1" fill-rule="nonzero"/><path fill="#ffa4ac" d="M 112.304688 131.105469 C 112.832031 134.132812 116.804688 135.972656 121.175781 135.207031 C 125.546875 134.445312 128.65625 131.367188 128.125 128.332031 C 127.59375 125.304688 123.621094 123.464844 119.253906 124.230469 C 114.882812 124.992188 111.773438 128.070312 112.304688 131.105469 Z M 112.304688 131.105469 " fill-opacity="1" fill-rule="evenodd"/><path fill="#ffa4ac" d="M 57.332031 140.726562 C 57.863281 143.753906 61.832031 145.59375 66.203125 144.828125 C 70.570312 144.066406 73.683594 140.988281 73.152344 137.957031 C 72.621094 134.925781 68.648438 133.085938 64.277344 133.851562 C 59.910156 134.617188 56.800781 137.691406 57.332031 140.726562 Z M 57.332031 140.726562 " fill-opacity="1" fill-rule="evenodd"/><path fill="#ffffff" d="M 94.675781 112.980469 C 95.949219 120.242188 102.746094 125.179688 110.128906 124.40625 C 110.464844 124.371094 115.449219 96.414062 108.546875 96.558594 C 107.8125 96.574219 107.070312 96.648438 106.324219 96.777344 C 98.5625 98.136719 93.347656 105.390625 94.675781 112.980469 Z M 94.675781 112.980469 " fill-opacity="1" fill-rule="nonzero"/><path fill="#074785" d="M 122.78125 108.0625 C 124.113281 115.652344 118.898438 122.90625 111.136719 124.265625 C 110.796875 124.324219 110.453125 124.367188 110.113281 124.402344 C 102.433594 113.152344 105.191406 102.746094 108.296875 96.570312 C 115.296875 96.304688 121.566406 101.117188 122.78125 108.0625 Z M 122.78125 108.0625 " fill-opacity="1" fill-rule="evenodd"/><path fill="#ffffff" d="M 55.484375 119.78125 C 56.757812 127.046875 63.570312 131.988281 70.957031 131.199219 C 71.285156 131.164062 76.261719 103.21875 69.367188 103.359375 C 68.628906 103.375 67.882812 103.445312 67.132812 103.578125 C 59.367188 104.933594 54.15625 112.191406 55.484375 119.78125 Z M 55.484375 119.78125 " fill-opacity="1" fill-rule="nonzero"/><path fill="#074785" d="M 83.589844 114.863281 C 84.921875 122.449219 79.707031 129.703125 71.945312 131.0625 C 71.601562 131.125 71.257812 131.164062 70.921875 131.203125 C 63.242188 119.949219 66 109.546875 69.105469 103.371094 C 76.105469 103.101562 82.375 107.917969 83.589844 114.863281 Z M 83.589844 114.863281 " fill-opacity="1" fill-rule="evenodd"/><path fill="#074785" d="M 116.703125 93.878906 C 117.941406 93.660156 118.8125 92.554688 118.875 91.125 C 118.945312 89.484375 117.996094 88.070312 116.5625 87.6875 C 113.101562 86.765625 109.476562 86.617188 105.792969 87.230469 C 104.199219 87.511719 103.234375 89.042969 103.535156 90.796875 C 103.839844 92.5625 105.265625 93.695312 106.855469 93.429688 C 109.832031 92.929688 112.679688 93.058594 115.550781 93.824219 C 115.941406 93.925781 116.332031 93.945312 116.703125 93.878906 Z M 116.703125 93.878906 " fill-opacity="1" fill-rule="nonzero"/><path fill="#074785" d="M 70.292969 99.484375 C 71.324219 98.769531 71.65625 97.402344 71.113281 96.074219 C 70.492188 94.554688 69.035156 93.667969 67.570312 93.921875 C 64.046875 94.527344 60.691406 95.90625 57.601562 98.003906 C 56.265625 98.925781 56.035156 100.71875 57.039062 102.1875 C 58.054688 103.664062 59.824219 104.097656 61.15625 103.191406 C 63.65625 101.492188 66.292969 100.417969 69.222656 99.914062 C 69.621094 99.84375 69.980469 99.703125 70.292969 99.484375 Z M 70.292969 99.484375 " fill-opacity="1" fill-rule="nonzero"/><path fill="#074785" d="M 85.285156 127.070312 C 84.859375 124.808594 88.367188 124.125 88.789062 126.390625 C 89.171875 128.421875 89.175781 132.863281 91.933594 133.046875 C 95.226562 133.269531 94.347656 128.359375 93.90625 126.496094 C 93.371094 124.253906 96.878906 123.582031 97.410156 125.816406 C 98.40625 129.984375 98.144531 135.507812 93.027344 136.519531 C 87.15625 137.679688 86.0625 131.257812 85.285156 127.070312 Z M 85.285156 127.070312 " fill-opacity="1" fill-rule="nonzero"/><path fill="#ffffff" d="M 80.246094 111.65625 C 81.195312 114.152344 81.632812 116.714844 81.011719 119.347656 C 80.730469 120.535156 78.925781 119.972656 79.207031 118.800781 C 79.703125 116.683594 79.335938 114.527344 78.574219 112.523438 C 78.148438 111.398438 79.816406 110.519531 80.246094 111.65625 Z M 80.246094 111.65625 " fill-opacity="1" fill-rule="nonzero"/><path fill="#ffffff" d="M 80.347656 122.5 C 80.238281 122.777344 80.140625 123.058594 80.035156 123.34375 C 79.851562 123.824219 79.375 124.125 78.855469 123.96875 C 78.394531 123.824219 78.046875 123.273438 78.234375 122.792969 C 78.339844 122.511719 78.441406 122.226562 78.546875 121.949219 C 78.730469 121.46875 79.207031 121.164062 79.722656 121.324219 C 80.1875 121.464844 80.53125 122.019531 80.347656 122.5 Z M 80.347656 122.5 " fill-opacity="1" fill-rule="nonzero"/><path fill="#ffffff" d="M 78.230469 108.738281 C 78.507812 109.175781 78.25 109.789062 77.824219 110.007812 C 77.339844 110.257812 76.832031 110.039062 76.558594 109.605469 C 76.566406 109.613281 76.570312 109.617188 76.585938 109.625 C 76.167969 109.324219 76.003906 108.777344 76.292969 108.328125 C 76.554688 107.914062 77.179688 107.734375 77.59375 108.035156 C 77.871094 108.234375 78.050781 108.457031 78.230469 108.738281 Z M 78.230469 108.738281 " fill-opacity="1" fill-rule="nonzero"/><path fill="#ffffff" d="M 76.558594 109.613281 C 76.546875 109.601562 76.535156 109.59375 76.523438 109.582031 C 76.535156 109.589844 76.546875 109.597656 76.558594 109.605469 C 76.703125 109.832031 76.597656 109.667969 76.558594 109.613281 Z M 76.558594 109.613281 " fill-opacity="1" fill-rule="nonzero"/><path fill="#ffffff" d="M 76.523438 109.582031 C 76.410156 109.5 76.46875 109.535156 76.523438 109.582031 Z M 76.523438 109.582031 " fill-opacity="1" fill-rule="nonzero"/><path fill="#ffffff" d="M 119.910156 104.714844 C 120.859375 107.210938 121.292969 109.773438 120.671875 112.40625 C 120.394531 113.59375 118.59375 113.03125 118.867188 111.855469 C 119.367188 109.742188 118.996094 107.585938 118.234375 105.578125 C 117.808594 104.460938 119.476562 103.578125 119.910156 104.714844 Z M 119.910156 104.714844 " fill-opacity="1" fill-rule="nonzero"/><path fill="#ffffff" d="M 120.011719 115.558594 C 119.902344 115.839844 119.800781 116.121094 119.695312 116.402344 C 119.511719 116.882812 119.039062 117.1875 118.519531 117.027344 C 118.054688 116.882812 117.710938 116.332031 117.894531 115.851562 C 118.003906 115.570312 118.101562 115.289062 118.207031 115.007812 C 118.390625 114.527344 118.871094 114.222656 119.382812 114.382812 C 119.847656 114.523438 120.195312 115.078125 120.011719 115.558594 Z M 120.011719 115.558594 " fill-opacity="1" fill-rule="nonzero"/><path fill="#ffffff" d="M 117.894531 101.800781 C 118.167969 102.230469 117.914062 102.851562 117.488281 103.070312 C 117 103.316406 116.496094 103.097656 116.222656 102.664062 C 116.230469 102.675781 116.234375 102.675781 116.246094 102.683594 C 115.828125 102.386719 115.667969 101.839844 115.957031 101.382812 C 116.21875 100.972656 116.839844 100.796875 117.257812 101.09375 C 117.53125 101.292969 117.710938 101.515625 117.894531 101.800781 Z M 117.894531 101.800781 " fill-opacity="1" fill-rule="nonzero"/><path fill="#ffffff" d="M 116.21875 102.671875 C 116.207031 102.660156 116.199219 102.652344 116.1875 102.640625 C 116.199219 102.648438 116.210938 102.65625 116.222656 102.664062 C 116.367188 102.894531 116.261719 102.722656 116.21875 102.671875 Z M 116.21875 102.671875 " fill-opacity="1" fill-rule="nonzero"/><path fill="#ffffff" d="M 116.1875 102.640625 C 116.078125 102.558594 116.132812 102.59375 116.1875 102.640625 Z M 116.1875 102.640625 " fill-opacity="1" fill-rule="nonzero"/><path fill="#7befe5" d="M 165.5 146.675781 C 172.207031 155.929688 177.140625 166.144531 181.144531 176.816406 C 181.570312 177.957031 183.304688 177.234375 182.882812 176.101562 C 178.824219 165.285156 173.792969 154.921875 166.996094 145.539062 C 166.285156 144.558594 164.792969 145.695312 165.5 146.675781 Z M 165.5 146.675781 " fill-opacity="1" fill-rule="evenodd"/><path fill="#7befe5" d="M 229 133.222656 C 227.402344 144.535156 223.867188 155.316406 219.34375 165.78125 C 218.859375 166.894531 220.613281 167.578125 221.089844 166.46875 C 225.675781 155.863281 229.246094 144.914062 230.863281 133.445312 C 231.035156 132.242188 229.167969 132.023438 229 133.222656 Z M 229 133.222656 " fill-opacity="1" fill-rule="evenodd"/><path fill="#7befe5" d="M 280.183594 175.011719 C 270.925781 178.78125 262.023438 183.34375 253.121094 187.867188 C 252.039062 188.417969 252.960938 190.054688 254.039062 189.507812 C 262.941406 184.984375 271.847656 180.417969 281.097656 176.652344 C 282.21875 176.195312 281.292969 174.558594 280.183594 175.011719 Z M 280.183594 175.011719 " fill-opacity="1" fill-rule="evenodd"/><path fill="#7befe5" d="M 168.050781 199.964844 C 159.332031 195.074219 150.214844 190.953125 141.132812 186.8125 C 140.023438 186.304688 139.316406 188.046875 140.417969 188.546875 C 149.503906 192.691406 158.621094 196.8125 167.339844 201.699219 C 168.390625 202.292969 169.089844 200.546875 168.050781 199.964844 Z M 168.050781 199.964844 " fill-opacity="1" fill-rule="evenodd"/><path fill="#7befe5" d="M 226.351562 256.804688 C 223.441406 251.289062 220.40625 245.820312 218.316406 239.925781 C 217.914062 238.785156 216.113281 239.328125 216.519531 240.472656 C 218.664062 246.519531 221.765625 252.136719 224.753906 257.792969 C 225.316406 258.867188 226.914062 257.871094 226.351562 256.804688 Z M 226.351562 256.804688 " fill-opacity="1" fill-rule="evenodd"/><path fill="#7befe5" d="M 269.4375 226.644531 C 263.203125 226.867188 256.957031 227.222656 250.738281 226.539062 C 249.535156 226.410156 249.242188 228.265625 250.449219 228.394531 C 256.828125 229.09375 263.238281 228.742188 269.628906 228.511719 C 270.847656 228.46875 270.644531 226.601562 269.4375 226.644531 Z M 269.4375 226.644531 " fill-opacity="1" fill-rule="evenodd"/><path fill="#7befe5" d="M 170.089844 242.816406 C 175.597656 239.882812 181.058594 236.828125 186.945312 234.714844 C 188.085938 234.308594 187.535156 232.511719 186.394531 232.921875 C 180.351562 235.085938 174.746094 238.210938 169.097656 241.21875 C 168.023438 241.792969 169.027344 243.378906 170.089844 242.816406 Z M 170.089844 242.816406 " fill-opacity="1" fill-rule="evenodd"/><path fill="#ffa4ac" d="M 24.226562 83.105469 C 34.335938 88.445312 43.277344 95.425781 51.589844 103.226562 C 52.476562 104.058594 53.714844 102.644531 52.832031 101.816406 C 44.40625 93.910156 35.3125 86.835938 25.070312 81.425781 C 23.996094 80.855469 23.15625 82.539062 24.226562 83.105469 Z M 24.226562 83.105469 " fill-opacity="1" fill-rule="evenodd"/><path fill="#ffa4ac" d="M 75.230469 42.972656 C 78.804688 53.828125 80.402344 65.058594 80.96875 76.445312 C 81.03125 77.65625 82.90625 77.496094 82.84375 76.289062 C 82.265625 64.75 80.625 53.351562 77.003906 42.347656 C 76.621094 41.195312 74.851562 41.824219 75.230469 42.972656 Z M 75.230469 42.972656 " fill-opacity="1" fill-rule="evenodd"/><path fill="#ffa4ac" d="M 139.625 57.835938 C 132.988281 65.308594 127.019531 73.335938 121.035156 81.328125 C 120.308594 82.300781 121.859375 83.359375 122.585938 82.394531 C 128.570312 74.402344 134.539062 66.371094 141.171875 58.902344 C 141.972656 57.996094 140.417969 56.941406 139.625 57.835938 Z M 139.625 57.835938 " fill-opacity="1" fill-rule="evenodd"/><path fill="#ffa4ac" d="M 50.078125 129.773438 C 40.101562 129.246094 30.097656 129.574219 20.121094 129.875 C 18.90625 129.914062 19.039062 131.785156 20.25 131.75 C 30.230469 131.449219 40.230469 131.117188 50.210938 131.648438 C 51.421875 131.714844 51.273438 129.835938 50.078125 129.773438 Z M 50.078125 129.773438 " fill-opacity="1" fill-rule="evenodd"/><path fill="#ffa4ac" d="M 127.515625 154.992188 C 122.464844 151.332031 117.324219 147.765625 112.839844 143.402344 C 111.976562 142.558594 110.601562 143.839844 111.472656 144.6875 C 116.070312 149.160156 121.339844 152.832031 126.519531 156.582031 C 127.5 157.296875 128.492188 155.699219 127.515625 154.992188 Z M 127.515625 154.992188 " fill-opacity="1" fill-rule="evenodd"/><path fill="#ffa4ac" d="M 152.824219 108.898438 C 147.328125 111.851562 141.878906 114.929688 136 117.066406 C 134.867188 117.480469 135.425781 119.273438 136.566406 118.859375 C 142.59375 116.667969 148.1875 113.519531 153.820312 110.488281 C 154.890625 109.910156 153.882812 108.324219 152.824219 108.898438 Z M 152.824219 108.898438 " fill-opacity="1" fill-rule="evenodd"/><path fill="#ffa4ac" d="M 69.503906 166.242188 C 73.144531 161.175781 76.695312 156.027344 81.039062 151.527344 C 81.882812 150.65625 80.59375 149.289062 79.75 150.164062 C 75.292969 154.773438 71.640625 160.054688 67.910156 165.25 C 67.199219 166.234375 68.800781 167.21875 69.503906 166.242188 Z M 69.503906 166.242188 " fill-opacity="1" fill-rule="evenodd"/><path fill="#074785" d="M 203.828125 246.316406 C 204.019531 246.433594 204.207031 246.476562 204.382812 246.46875 C 204.554688 245.867188 204.722656 245.261719 204.898438 244.65625 C 204.878906 244.644531 204.859375 244.628906 204.835938 244.613281 C 203.125 243.539062 202.101562 241.820312 201.089844 240.121094 C 200.863281 239.738281 200.410156 239.539062 199.976562 239.65625 C 197.953125 240.195312 195.78125 241.480469 193.628906 241.164062 C 193.539062 241.148438 193.449219 241.148438 193.367188 241.15625 L 193.027344 242.210938 C 192.945312 242.460938 192.863281 242.710938 192.785156 242.960938 C 192.875 243.011719 192.984375 243.050781 193.109375 243.066406 C 195.488281 243.417969 197.574219 242.445312 199.777344 241.769531 C 200.855469 243.53125 202.039062 245.1875 203.828125 246.316406 Z M 203.828125 246.316406 " fill-opacity="1" fill-rule="evenodd"/><path fill="#ffffff" d="M 223.367188 144.820312 C 224.664062 143.335938 222.410156 141.261719 221.058594 142.804688 C 219.726562 144.371094 222.082031 146.324219 223.367188 144.820312 Z M 223.367188 144.820312 " fill-opacity="1" fill-rule="evenodd"/><path fill="#ffffff" d="M 211.667969 165.320312 C 214.074219 159.804688 216.832031 154.484375 220.113281 149.53125 C 221.1875 147.929688 218.75 146.203125 217.628906 147.871094 C 214.253906 152.964844 211.414062 158.4375 208.933594 164.105469 C 208.128906 165.976562 210.890625 167.125 211.667969 165.320312 Z M 211.667969 165.320312 " fill-opacity="1" fill-rule="evenodd"/><path fill="#ffffff" d="M 209.488281 170.988281 C 210.304688 169.203125 207.625 167.875 206.773438 169.726562 C 205.945312 171.601562 208.6875 172.796875 209.488281 170.988281 Z M 209.488281 170.988281 " fill-opacity="1" fill-rule="evenodd"/><path fill="#ffffff" d="M 177.554688 229.039062 C 178.726562 228.441406 177.84375 226.601562 176.628906 227.21875 C 175.417969 227.855469 176.390625 229.648438 177.554688 229.039062 Z M 177.554688 229.039062 " fill-opacity="1" fill-rule="evenodd"/><path fill="#ffffff" d="M 165.230469 238.796875 C 168.089844 235.988281 171.117188 233.386719 174.375 231.140625 C 175.4375 230.417969 174.355469 228.742188 173.25 229.492188 C 169.898438 231.808594 166.78125 234.480469 163.84375 237.371094 C 162.878906 238.328125 164.300781 239.722656 165.230469 238.796875 Z M 165.230469 238.796875 " fill-opacity="1" fill-rule="evenodd"/><path fill="#ffffff" d="M 162.476562 241.765625 C 163.421875 240.859375 162.09375 239.375 161.113281 240.308594 C 160.128906 241.261719 161.53125 242.683594 162.476562 241.765625 Z M 162.476562 241.765625 " fill-opacity="1" fill-rule="evenodd"/><path fill="#ffffff" d="M 279.445312 227.519531 C 281.066406 228.515625 282.683594 226.03125 280.996094 224.992188 C 279.285156 223.976562 277.800781 226.535156 279.445312 227.519531 Z M 279.445312 227.519531 " fill-opacity="1" fill-rule="evenodd"/><path fill="#ffffff" d="M 258.007812 219.648438 C 263.65625 221.0625 269.171875 222.839844 274.425781 225.171875 C 276.125 225.9375 277.382812 223.332031 275.613281 222.535156 C 270.210938 220.132812 264.535156 218.300781 258.730469 216.851562 C 256.8125 216.382812 256.160156 219.203125 258.007812 219.648438 Z M 258.007812 219.648438 " fill-opacity="1" fill-rule="evenodd"/><path fill="#ffffff" d="M 252.25 218.484375 C 254.082031 218.972656 254.921875 216.203125 253.015625 215.691406 C 251.097656 215.203125 250.394531 218.011719 252.25 218.484375 Z M 252.25 218.484375 " fill-opacity="1" fill-rule="evenodd"/><path fill="#ffffff" d="M 166.847656 155.757812 C 166.621094 153.867188 163.671875 154.144531 163.902344 156.109375 C 164.164062 158.082031 167.097656 157.65625 166.847656 155.757812 Z M 166.847656 155.757812 " fill-opacity="1" fill-rule="evenodd"/><path fill="#ffffff" d="M 173.984375 177.441406 C 171.585938 172.140625 169.550781 166.714844 168.121094 161.148438 C 167.667969 159.335938 164.847656 159.972656 165.316406 161.851562 C 166.789062 167.582031 168.875 173.164062 171.339844 178.617188 C 172.164062 180.40625 174.777344 179.167969 173.984375 177.441406 Z M 173.984375 177.441406 " fill-opacity="1" fill-rule="evenodd"/><path fill="#ffffff" d="M 176.640625 182.683594 C 175.890625 180.9375 173.199219 182 173.980469 183.8125 C 174.785156 185.621094 177.425781 184.425781 176.640625 182.683594 Z M 176.640625 182.683594 " fill-opacity="1" fill-rule="evenodd"/><path fill="#ffffff" d="M 186.210938 270.386719 C 185.628906 271.855469 187.90625 272.757812 188.488281 271.289062 C 189.070312 269.824219 186.792969 268.921875 186.210938 270.386719 Z M 186.210938 270.386719 " fill-opacity="1" fill-rule="evenodd"/><path fill="#ffffff" d="M 191.71875 252.542969 C 190.292969 257.03125 188.96875 261.550781 187.546875 266.042969 C 187.082031 267.507812 189.359375 268.230469 189.828125 266.765625 C 191.246094 262.273438 192.574219 257.753906 193.996094 253.261719 C 194.460938 251.792969 192.183594 251.074219 191.71875 252.542969 Z M 191.71875 252.542969 " fill-opacity="1" fill-rule="evenodd"/><path fill="#ffffff" d="M 193.078125 248 C 192.507812 249.433594 194.730469 250.316406 195.296875 248.882812 C 195.867188 247.449219 193.644531 246.570312 193.078125 248 Z M 193.078125 248 " fill-opacity="1" fill-rule="evenodd"/><path fill="#ffffff" d="M 219.574219 187.722656 C 216.34375 187.722656 216.34375 192.734375 219.574219 192.734375 C 222.808594 192.734375 222.808594 187.722656 219.574219 187.722656 Z M 219.574219 187.722656 " fill-opacity="1" fill-rule="nonzero"/><path fill="#ffffff" d="M 154.277344 201.101562 C 151.046875 201.101562 151.046875 206.113281 154.277344 206.113281 C 157.511719 206.113281 157.511719 201.101562 154.277344 201.101562 Z M 154.277344 201.101562 " fill-opacity="1" fill-rule="nonzero"/><path fill="#074785" d="M 101.648438 154.007812 C 101.875 154.03125 102.058594 153.984375 102.214844 153.898438 C 102.09375 153.28125 101.976562 152.664062 101.859375 152.046875 C 101.835938 152.046875 101.8125 152.042969 101.789062 152.039062 C 99.773438 151.839844 98.085938 150.765625 96.421875 149.699219 C 96.046875 149.457031 95.554688 149.484375 95.21875 149.78125 C 93.652344 151.171875 92.285156 153.292969 90.222656 153.976562 C 90.132812 154.003906 89.992188 154.160156 89.917969 154.203125 L 90.078125 155.191406 C 90.117188 155.453125 90.160156 155.703125 90.203125 155.960938 C 90.308594 155.96875 90.492188 155.949219 90.613281 155.910156 C 92.894531 155.15625 94.324219 153.355469 95.988281 151.761719 C 97.742188 152.855469 99.546875 153.804688 101.648438 154.007812 Z M 101.648438 154.007812 " fill-opacity="1" fill-rule="evenodd"/><path fill="#ffffff" d="M 73.617188 54.914062 C 74.109375 53.007812 71.164062 52.167969 70.652344 54.148438 C 70.164062 56.144531 73.144531 56.835938 73.617188 54.914062 Z M 73.617188 54.914062 " fill-opacity="1" fill-rule="evenodd"/><path fill="#ffffff" d="M 72.359375 78.484375 C 72.035156 72.472656 72.113281 66.484375 72.824219 60.585938 C 73.066406 58.671875 70.109375 58.222656 69.855469 60.210938 C 69.125 66.28125 69.042969 72.441406 69.371094 78.621094 C 69.492188 80.65625 72.476562 80.441406 72.359375 78.484375 Z M 72.359375 78.484375 " fill-opacity="1" fill-rule="evenodd"/><path fill="#ffffff" d="M 72.957031 84.527344 C 72.882812 82.566406 69.890625 82.578125 69.960938 84.617188 C 70.0625 86.660156 73.050781 86.5 72.957031 84.527344 Z M 72.957031 84.527344 " fill-opacity="1" fill-rule="evenodd"/><path fill="#ffffff" d="M 70.453125 150.722656 C 71.230469 149.667969 69.621094 148.417969 68.8125 149.515625 C 68.011719 150.628906 69.6875 151.796875 70.453125 150.722656 Z M 70.453125 150.722656 " fill-opacity="1" fill-rule="evenodd"/><path fill="#ffffff" d="M 63.820312 164.976562 C 65.113281 161.183594 66.648438 157.5 68.554688 154.03125 C 69.179688 152.910156 67.464844 151.898438 66.8125 153.066406 C 64.851562 156.632812 63.269531 160.421875 61.9375 164.320312 C 61.507812 165.609375 63.402344 166.214844 63.820312 164.976562 Z M 63.820312 164.976562 " fill-opacity="1" fill-rule="evenodd"/><path fill="#ffffff" d="M 62.683594 168.863281 C 63.128906 167.628906 61.273438 166.894531 60.8125 168.171875 C 60.367188 169.464844 62.253906 170.105469 62.683594 168.863281 Z M 62.683594 168.863281 " fill-opacity="1" fill-rule="evenodd"/><path fill="#ffffff" d="M 160.84375 103.691406 C 162.738281 103.851562 163.070312 100.910156 161.097656 100.738281 C 159.109375 100.59375 158.929688 103.550781 160.84375 103.691406 Z M 160.84375 103.691406 " fill-opacity="1" fill-rule="evenodd"/><path fill="#ffffff" d="M 138.152344 106.269531 C 143.832031 104.996094 149.558594 104.109375 155.304688 103.84375 C 157.171875 103.765625 157.121094 100.875 155.183594 100.953125 C 149.273438 101.226562 143.378906 102.136719 137.542969 103.441406 C 135.617188 103.882812 136.300781 106.695312 138.152344 106.269531 Z M 138.152344 106.269531 " fill-opacity="1" fill-rule="evenodd"/><path fill="#ffffff" d="M 132.484375 107.804688 C 134.34375 107.425781 133.847656 104.574219 131.914062 104.96875 C 129.980469 105.390625 130.613281 108.214844 132.484375 107.804688 Z M 132.484375 107.804688 " fill-opacity="1" fill-rule="evenodd"/><path fill="#ffffff" d="M 28.007812 90.03125 C 26.957031 88.441406 24.445312 90.011719 25.539062 91.664062 C 26.65625 93.308594 29.085938 91.613281 28.007812 90.03125 Z M 28.007812 90.03125 " fill-opacity="1" fill-rule="evenodd"/><path fill="#ffffff" d="M 44.113281 106.210938 C 39.589844 102.546875 35.339844 98.609375 31.566406 94.273438 C 30.347656 92.863281 28.109375 94.691406 29.375 96.164062 C 33.261719 100.625 37.628906 104.679688 42.277344 108.445312 C 43.820312 109.675781 45.597656 107.398438 44.113281 106.210938 Z M 44.113281 106.210938 " fill-opacity="1" fill-rule="evenodd"/><path fill="#ffffff" d="M 48.84375 109.703125 C 47.386719 108.480469 45.457031 110.636719 46.96875 111.90625 C 48.5 113.160156 50.324219 110.914062 48.84375 109.703125 Z M 48.84375 109.703125 " fill-opacity="1" fill-rule="evenodd"/><path fill="#ffffff" d="M 96.742188 183.804688 C 96.878906 185.378906 99.320312 185.160156 99.183594 183.59375 C 99.042969 182.019531 96.605469 182.230469 96.742188 183.804688 Z M 96.742188 183.804688 " fill-opacity="1" fill-rule="evenodd"/><path fill="#ffffff" d="M 93.660156 165.382812 C 94.402344 170.035156 95.242188 174.667969 95.984375 179.320312 C 96.230469 180.839844 98.589844 180.464844 98.347656 178.941406 C 97.605469 174.292969 96.761719 169.660156 96.019531 165.007812 C 95.773438 163.488281 93.414062 163.863281 93.660156 165.382812 Z M 93.660156 165.382812 " fill-opacity="1" fill-rule="evenodd"/><path fill="#ffffff" d="M 92.832031 160.714844 C 92.96875 162.25 95.351562 162.042969 95.21875 160.507812 C 95.078125 158.972656 92.699219 159.183594 92.832031 160.714844 Z M 92.832031 160.714844 " fill-opacity="1" fill-rule="evenodd"/><path fill="#ffffff" d="M 88.5 87.632812 C 85.613281 89.082031 87.859375 93.5625 90.75 92.109375 C 93.636719 90.660156 91.390625 86.183594 88.5 87.632812 Z M 88.5 87.632812 " fill-opacity="1" fill-rule="nonzero"/><path fill="#ffffff" d="M 38.179688 136.195312 C 35.289062 137.640625 37.539062 142.121094 40.425781 140.671875 C 43.316406 139.222656 41.070312 134.746094 38.179688 136.195312 Z M 38.179688 136.195312 " fill-opacity="1" fill-rule="nonzero"/></svg>