<svg xmlns="http://www.w3.org/2000/svg" xmlns:xlink="http://www.w3.org/1999/xlink" width="400" zoomAndPan="magnify" viewBox="0 0 300 299.999988" height="400" preserveAspectRatio="xMidYMid meet" version="1.0"><defs><clipPath id="8481296b50"><path d="M 122 4.421875 L 191 4.421875 L 191 38 L 122 38 Z M 122 4.421875 " clip-rule="nonzero"/></clipPath></defs><path fill="#074785" d="M 86.527344 62.875 C 85.5 61.886719 83.4375 47.953125 81.566406 48.0625 C 79.6875 48.179688 78.054688 61.992188 77.179688 62.902344 C 75.421875 64.730469 62.554688 66.019531 62.664062 67.789062 C 62.765625 69.554688 75.398438 70.390625 77.183594 72.117188 C 78.179688 73.078125 80.273438 87.046875 82.148438 86.9375 C 84.023438 86.824219 85.625 73.050781 86.539062 72.109375 C 88.238281 70.347656 101.199219 68.984375 101.097656 67.210938 C 100.988281 65.433594 88.246094 64.542969 86.527344 62.875 Z M 86.527344 62.875 " fill-opacity="1" fill-rule="nonzero"/><path fill="#074785" d="M 257.324219 246.097656 C 256.296875 245.101562 254.230469 231.175781 252.363281 231.285156 C 250.484375 231.398438 248.847656 245.210938 247.96875 246.121094 C 246.214844 247.949219 233.347656 249.238281 233.453125 251.011719 C 233.558594 252.777344 246.195312 253.613281 247.976562 255.335938 C 248.972656 256.296875 251.066406 270.265625 252.941406 270.15625 C 254.816406 270.046875 256.417969 256.269531 257.332031 255.328125 C 259.03125 253.566406 271.992188 252.203125 271.886719 250.429688 C 271.78125 248.652344 259.039062 247.761719 257.324219 246.097656 Z M 257.324219 246.097656 " fill-opacity="1" fill-rule="nonzero"/><path fill="#fd6085" d="M 209.40625 271.222656 C 209.40625 273.800781 207.484375 277.085938 205.050781 278.414062 C 174.484375 295.109375 137.464844 295.109375 106.898438 278.414062 C 104.464844 277.085938 102.542969 273.800781 102.542969 271.222656 C 102.542969 266.292969 102.542969 261.363281 102.542969 256.433594 C 102.546875 253.855469 104.46875 252.957031 106.898438 254.28125 C 137.464844 270.984375 174.484375 270.984375 205.050781 254.28125 C 207.484375 252.957031 209.40625 253.855469 209.40625 256.433594 C 209.40625 261.359375 209.40625 266.292969 209.40625 271.222656 Z M 209.40625 271.222656 " fill-opacity="1" fill-rule="evenodd"/><path fill="#29aefd" d="M 247.785156 181.738281 C 247.785156 187.851562 247.183594 193.820312 246.035156 199.597656 C 237.71875 241.480469 79.742188 245.445312 68.566406 207.613281 C 66.140625 199.410156 64.839844 190.726562 64.839844 181.738281 C 64.839844 131.304688 105.796875 90.421875 156.3125 90.421875 C 206.832031 90.421875 247.785156 131.304688 247.785156 181.738281 Z M 247.785156 181.738281 " fill-opacity="1" fill-rule="evenodd"/><path fill="#7be1d7" d="M 156.3125 273.054688 C 200.71875 273.054688 237.726562 241.464844 246.035156 199.570312 C 241.53125 197.21875 236.101562 196.320312 229.875 197.359375 C 223.679688 198.242188 218.8125 200.894531 214.828125 195.148438 C 211.285156 189.847656 213.058594 184.546875 206.421875 180.570312 C 202.4375 177.476562 198.015625 177.035156 193.144531 178.359375 C 185.625 180.128906 184.738281 184.105469 181.640625 189.847656 C 175.445312 200.449219 163.054688 200.007812 157.304688 189.40625 C 150.664062 177.476562 142.257812 167.757812 127.210938 169.527344 C 121.457031 170.40625 114.378906 173.058594 111.722656 178.800781 C 109.066406 184.105469 111.28125 189.847656 107.742188 195.148438 C 101.101562 206.195312 89.597656 200.894531 78.976562 203.097656 C 74.203125 204.082031 70.851562 205.597656 68.570312 207.59375 C 79.738281 245.433594 114.792969 273.054688 156.3125 273.054688 Z M 156.3125 273.054688 " fill-opacity="1" fill-rule="evenodd"/><path fill="#29aefd" d="M 190.214844 20.882812 L 190.214844 105.371094 C 190.214844 122.515625 176.6875 136.542969 160.152344 136.542969 L 152.371094 136.542969 C 135.839844 136.542969 122.3125 122.515625 122.3125 105.371094 L 122.3125 20.882812 Z M 190.214844 20.882812 " fill-opacity="1" fill-rule="evenodd"/><g clip-path="url(#8481296b50)"><path fill="#074785" d="M 190.167969 20.882812 C 190.167969 21.410156 190.113281 21.9375 190.003906 22.464844 C 189.894531 22.992188 189.734375 23.515625 189.515625 24.035156 C 189.300781 24.554688 189.03125 25.066406 188.707031 25.574219 C 188.386719 26.082031 188.011719 26.578125 187.585938 27.066406 C 187.160156 27.554688 186.6875 28.035156 186.164062 28.5 C 185.640625 28.96875 185.070312 29.421875 184.453125 29.863281 C 183.835938 30.300781 183.175781 30.726562 182.472656 31.136719 C 181.765625 31.542969 181.023438 31.9375 180.238281 32.3125 C 179.453125 32.683594 178.628906 33.039062 177.773438 33.375 C 176.914062 33.710938 176.023438 34.027344 175.101562 34.320312 C 174.175781 34.613281 173.226562 34.886719 172.246094 35.136719 C 171.265625 35.386719 170.265625 35.613281 169.238281 35.816406 C 168.210938 36.015625 167.167969 36.195312 166.105469 36.347656 C 165.042969 36.503906 163.96875 36.632812 162.878906 36.734375 C 161.789062 36.835938 160.691406 36.914062 159.585938 36.96875 C 158.480469 37.019531 157.375 37.046875 156.265625 37.046875 C 155.152344 37.046875 154.046875 37.019531 152.941406 36.96875 C 151.835938 36.914062 150.738281 36.835938 149.648438 36.734375 C 148.558594 36.632812 147.484375 36.503906 146.421875 36.347656 C 145.359375 36.195312 144.316406 36.015625 143.289062 35.816406 C 142.261719 35.613281 141.261719 35.386719 140.28125 35.136719 C 139.300781 34.886719 138.351562 34.613281 137.429688 34.320312 C 136.503906 34.027344 135.613281 33.710938 134.753906 33.375 C 133.898438 33.039062 133.074219 32.683594 132.289062 32.3125 C 131.503906 31.9375 130.761719 31.542969 130.054688 31.136719 C 129.351562 30.726562 128.691406 30.300781 128.074219 29.863281 C 127.457031 29.421875 126.886719 28.96875 126.363281 28.5 C 125.839844 28.035156 125.367188 27.554688 124.941406 27.066406 C 124.515625 26.578125 124.140625 26.082031 123.820312 25.574219 C 123.496094 25.066406 123.226562 24.554688 123.011719 24.035156 C 122.792969 23.515625 122.632812 22.992188 122.523438 22.464844 C 122.414062 21.9375 122.359375 21.410156 122.359375 20.882812 C 122.359375 20.351562 122.414062 19.824219 122.523438 19.296875 C 122.632812 18.769531 122.792969 18.246094 123.011719 17.726562 C 123.226562 17.210938 123.496094 16.695312 123.820312 16.191406 C 124.140625 15.683594 124.515625 15.183594 124.941406 14.695312 C 125.367188 14.207031 125.839844 13.730469 126.363281 13.261719 C 126.886719 12.796875 127.457031 12.339844 128.074219 11.902344 C 128.691406 11.460938 129.351562 11.035156 130.054688 10.628906 C 130.761719 10.21875 131.503906 9.828125 132.289062 9.453125 C 133.074219 9.078125 133.898438 8.722656 134.753906 8.386719 C 135.613281 8.050781 136.503906 7.734375 137.429688 7.441406 C 138.351562 7.148438 139.300781 6.875 140.28125 6.625 C 141.261719 6.378906 142.261719 6.152344 143.289062 5.949219 C 144.316406 5.746094 145.359375 5.566406 146.421875 5.414062 C 147.484375 5.261719 148.558594 5.132812 149.648438 5.027344 C 150.738281 4.925781 151.835938 4.847656 152.941406 4.796875 C 154.046875 4.742188 155.152344 4.71875 156.265625 4.71875 C 157.375 4.71875 158.480469 4.742188 159.585938 4.796875 C 160.691406 4.847656 161.789062 4.925781 162.878906 5.027344 C 163.96875 5.132812 165.042969 5.261719 166.105469 5.414062 C 167.167969 5.566406 168.210938 5.746094 169.238281 5.949219 C 170.265625 6.152344 171.265625 6.378906 172.246094 6.625 C 173.226562 6.875 174.175781 7.148438 175.101562 7.441406 C 176.023438 7.734375 176.914062 8.050781 177.773438 8.386719 C 178.628906 8.722656 179.453125 9.078125 180.238281 9.453125 C 181.023438 9.828125 181.765625 10.21875 182.472656 10.628906 C 183.175781 11.035156 183.835938 11.460938 184.453125 11.902344 C 185.070312 12.339844 185.640625 12.796875 186.164062 13.261719 C 186.6875 13.730469 187.160156 14.207031 187.585938 14.695312 C 188.011719 15.183594 188.386719 15.683594 188.707031 16.191406 C 189.03125 16.695312 189.300781 17.210938 189.515625 17.726562 C 189.734375 18.246094 189.894531 18.769531 190.003906 19.296875 C 190.113281 19.824219 190.167969 20.351562 190.167969 20.882812 Z M 190.167969 20.882812 " fill-opacity="1" fill-rule="nonzero"/></g><path fill="#074785" d="M 87.382812 143.773438 C 83.429688 140.9375 79.476562 138.09375 75.523438 135.25 C 70.636719 144.246094 68.191406 152.773438 66.457031 164.855469 C 69.296875 165.820312 72.140625 166.792969 74.984375 167.761719 C 84.421875 170.71875 91.949219 165.121094 94.269531 160.632812 C 94.648438 159.894531 94.570312 161.554688 94.949219 160.816406 C 97.269531 156.328125 95.265625 149.738281 87.382812 143.773438 Z M 87.382812 143.773438 " fill-opacity="1" fill-rule="evenodd"/><path fill="#074785" d="M 122.3125 96.535156 C 144.324219 105.445312 168.289062 105.160156 190.316406 96.589844 C 172.097656 112.988281 140.457031 113.191406 122.3125 96.535156 Z M 122.3125 96.535156 " fill-opacity="1" fill-rule="nonzero"/><path fill="#29aefd" d="M 58.335938 105.679688 C 69.460938 117.417969 80.585938 129.15625 91.710938 140.894531 C 98.335938 148.230469 101.199219 157.484375 98.078125 161.453125 C 97.5625 162.105469 97.050781 162.757812 96.539062 163.414062 C 93.414062 167.382812 83.734375 166.804688 75.023438 162.125 C 60.957031 154.125 46.890625 146.128906 32.828125 138.132812 Z M 58.335938 105.679688 " fill-opacity="1" fill-rule="evenodd"/><path fill="#074785" d="M 58.277344 105.757812 C 62.929688 109.402344 61.019531 119.589844 54.007812 128.507812 C 46.996094 137.425781 37.539062 141.699219 32.886719 138.050781 C 28.234375 134.40625 30.144531 124.226562 37.15625 115.308594 C 44.167969 106.382812 53.625 102.113281 58.277344 105.757812 Z M 58.277344 105.757812 " fill-opacity="1" fill-rule="evenodd"/><path fill="#074785" d="M 146.261719 235.691406 C 142.757812 233.148438 140.363281 228.867188 139.898438 224.636719 C 139.492188 221 139.183594 216.578125 141.316406 213.386719 C 143.449219 210.191406 147.066406 208.28125 150.917969 208.804688 C 153.160156 209.105469 155.273438 209.792969 157.117188 211.09375 C 159.644531 212.878906 161.097656 211.414062 163.054688 209.644531 C 164.910156 207.96875 166.773438 206.316406 169.335938 205.921875 C 173.871094 205.226562 178.667969 208.722656 180.644531 212.476562 C 182.832031 216.636719 182.46875 221.292969 181.402344 225.726562 C 180.816406 228.164062 179.144531 230.347656 177.964844 232.648438 C 166.960938 229.128906 156.359375 229.828125 146.261719 235.691406 Z M 146.261719 235.691406 " fill-opacity="1" fill-rule="evenodd"/><path fill="#fd6085" d="M 146.261719 235.691406 C 156.65625 225.617188 165.484375 224.765625 177.964844 232.648438 C 169.167969 243.640625 157.296875 244.78125 146.261719 235.691406 Z M 146.261719 235.691406 " fill-opacity="1" fill-rule="evenodd"/><path fill="#ffffff" d="M 139.515625 204.769531 C 135.945312 206.898438 131.828125 208.261719 127.378906 208.609375 C 112.035156 209.804688 98.558594 198.472656 97.273438 183.308594 C 95.988281 168.136719 107.378906 154.875 122.71875 153.683594 C 127.078125 153.34375 131.289062 154.015625 135.109375 155.5 C 144.734375 159.234375 148.257812 199.558594 139.515625 204.769531 Z M 139.515625 204.769531 " fill-opacity="1" fill-rule="evenodd"/><path fill="#074785" d="M 134.691406 155.339844 C 126.273438 156.925781 118.847656 162.6875 115.597656 171.199219 C 110.640625 184.164062 117.238281 198.605469 130.335938 203.457031 C 133.199219 204.511719 136.144531 205.027344 139.039062 205.042969 C 148.058594 199.90625 153.75 189.933594 152.820312 178.976562 C 151.886719 167.964844 144.527344 158.984375 134.691406 155.339844 Z M 134.691406 155.339844 " fill-opacity="1" fill-rule="evenodd"/><path fill="#ffffff" d="M 209.234375 198.667969 C 206.054688 201.089844 202.289062 202.867188 198.097656 203.757812 C 183.050781 206.953125 168.195312 197.492188 164.925781 182.621094 C 161.652344 167.757812 171.203125 153.113281 186.253906 149.917969 C 190.402344 149.035156 194.539062 149.117188 198.421875 150.007812 C 208.613281 152.347656 217.472656 192.390625 209.234375 198.667969 Z M 209.234375 198.667969 " fill-opacity="1" fill-rule="evenodd"/><path fill="#074785" d="M 198.34375 149.992188 C 190.203125 152.671875 183.601562 159.355469 181.5 168.21875 C 178.289062 181.722656 186.730469 195.171875 200.351562 198.257812 C 203.332031 198.9375 206.316406 199.054688 209.191406 198.695312 C 217.457031 192.417969 221.789062 181.792969 219.425781 171.046875 C 217.046875 160.25 208.566406 152.316406 198.34375 149.992188 Z M 198.34375 149.992188 " fill-opacity="1" fill-rule="evenodd"/><path fill="#074785" d="M 219.039062 144.585938 C 214.707031 138.78125 208.1875 135.804688 200.960938 136.699219 C 197.339844 137.152344 198.328125 142.710938 201.933594 142.265625 C 207.214844 141.601562 211.570312 144.023438 214.675781 148.175781 C 216.859375 151.101562 221.207031 147.492188 219.039062 144.585938 Z M 219.039062 144.585938 " fill-opacity="1" fill-rule="evenodd"/><path fill="#074785" d="M 115.113281 139.589844 C 107.871094 139.910156 101.742188 143.625 98.433594 150.097656 C 96.773438 153.347656 101.933594 155.648438 103.585938 152.417969 C 106.007812 147.683594 110.457031 145.4375 115.644531 145.207031 C 119.292969 145.046875 118.738281 139.433594 115.113281 139.589844 Z M 115.113281 139.589844 " fill-opacity="1" fill-rule="evenodd"/><path fill="#29aefd" d="M 129.878906 219.1875 C 129.960938 223.515625 125.03125 227.113281 118.871094 227.234375 C 112.707031 227.359375 107.640625 223.957031 107.554688 219.632812 C 107.472656 215.304688 112.394531 211.707031 118.5625 211.582031 C 124.722656 211.464844 129.789062 214.871094 129.878906 219.1875 Z M 129.878906 219.1875 " fill-opacity="1" fill-rule="nonzero"/><path fill="#29aefd" d="M 214.234375 215.664062 C 214.320312 219.988281 209.394531 223.589844 203.234375 223.707031 C 197.066406 223.832031 192.003906 220.429688 191.914062 216.109375 C 191.828125 211.785156 196.753906 208.183594 202.917969 208.0625 C 209.082031 207.9375 214.148438 211.34375 214.234375 215.664062 Z M 214.234375 215.664062 " fill-opacity="1" fill-rule="nonzero"/><path fill="#ffffff" d="M 148.222656 171.5625 C 146.453125 167.925781 144.078125 164.789062 140.527344 162.742188 C 138.933594 161.820312 137.683594 164.382812 139.261719 165.296875 C 142.113281 166.941406 144.109375 169.589844 145.53125 172.507812 C 146.328125 174.136719 149.027344 173.214844 148.222656 171.5625 Z M 148.222656 171.5625 " fill-opacity="1" fill-rule="nonzero"/><path fill="#ffffff" d="M 136.371094 160.203125 C 135.949219 160.03125 135.53125 159.847656 135.113281 159.675781 C 134.394531 159.382812 133.5625 159.585938 133.199219 160.320312 C 132.875 160.980469 133.125 161.933594 133.847656 162.230469 C 134.265625 162.402344 134.683594 162.589844 135.101562 162.757812 C 135.824219 163.058594 136.652344 162.847656 137.015625 162.113281 C 137.34375 161.449219 137.085938 160.5 136.371094 160.203125 Z M 136.371094 160.203125 " fill-opacity="1" fill-rule="nonzero"/><path fill="#ffffff" d="M 149.34375 176.804688 C 149.152344 176.050781 148.207031 175.691406 147.527344 175.929688 C 146.746094 176.210938 146.460938 176.992188 146.65625 177.746094 C 146.65625 177.726562 146.65625 177.71875 146.65625 177.699219 C 146.554688 178.464844 146.996094 179.214844 147.789062 179.367188 C 148.523438 179.503906 149.359375 179.003906 149.460938 178.234375 C 149.53125 177.722656 149.472656 177.300781 149.34375 176.804688 Z M 149.34375 176.804688 " fill-opacity="1" fill-rule="nonzero"/><path fill="#ffffff" d="M 146.644531 177.738281 C 146.644531 177.761719 146.644531 177.789062 146.644531 177.808594 C 146.648438 177.792969 146.648438 177.769531 146.652344 177.746094 C 146.554688 177.351562 146.628906 177.640625 146.644531 177.738281 Z M 146.644531 177.738281 " fill-opacity="1" fill-rule="nonzero"/><path fill="#ffffff" d="M 146.644531 177.808594 C 146.621094 178.019531 146.644531 177.921875 146.644531 177.808594 Z M 146.644531 177.808594 " fill-opacity="1" fill-rule="nonzero"/><path fill="#ffffff" d="M 146.65625 177.753906 L 146.65625 177.746094 C 146.648438 177.746094 146.652344 177.746094 146.652344 177.746094 C 146.65625 177.753906 146.65625 177.753906 146.65625 177.753906 Z M 146.65625 177.753906 " fill-opacity="1" fill-rule="nonzero"/><path fill="#ffffff" d="M 213.839844 166.535156 C 212.179688 162.847656 209.898438 159.644531 206.40625 157.496094 C 204.839844 156.527344 203.515625 159.054688 205.066406 160.011719 C 207.871094 161.742188 209.785156 164.441406 211.121094 167.402344 C 211.867188 169.054688 214.597656 168.210938 213.839844 166.535156 Z M 213.839844 166.535156 " fill-opacity="1" fill-rule="nonzero"/><path fill="#ffffff" d="M 202.324219 154.835938 C 201.914062 154.652344 201.503906 154.453125 201.085938 154.269531 C 200.378906 153.949219 199.539062 154.132812 199.152344 154.855469 C 198.8125 155.503906 199.035156 156.46875 199.746094 156.78125 C 200.160156 156.96875 200.566406 157.171875 200.984375 157.351562 C 201.699219 157.671875 202.53125 157.484375 202.917969 156.761719 C 203.261719 156.109375 203.035156 155.152344 202.324219 154.835938 Z M 202.324219 154.835938 " fill-opacity="1" fill-rule="nonzero"/><path fill="#ffffff" d="M 214.808594 171.804688 C 214.640625 171.050781 213.699219 170.664062 213.011719 170.882812 C 212.226562 171.136719 211.921875 171.914062 212.089844 172.671875 C 212.089844 172.652344 212.09375 172.644531 212.097656 172.625 C 211.96875 173.386719 212.386719 174.144531 213.179688 174.324219 C 213.902344 174.484375 214.753906 174.007812 214.878906 173.242188 C 214.964844 172.734375 214.921875 172.304688 214.808594 171.804688 Z M 214.808594 171.804688 " fill-opacity="1" fill-rule="nonzero"/><path fill="#ffffff" d="M 212.078125 172.664062 C 212.082031 172.6875 212.082031 172.710938 212.078125 172.734375 C 212.085938 172.714844 212.085938 172.695312 212.089844 172.671875 C 212 172.273438 212.070312 172.570312 212.078125 172.664062 Z M 212.078125 172.664062 " fill-opacity="1" fill-rule="nonzero"/><path fill="#ffffff" d="M 212.078125 172.734375 C 212.046875 172.941406 212.074219 172.84375 212.078125 172.734375 Z M 212.078125 172.734375 " fill-opacity="1" fill-rule="nonzero"/><path fill="#ffffff" d="M 145.929688 65.042969 C 145.382812 64.507812 144.28125 57.09375 143.285156 57.152344 C 142.285156 57.214844 141.417969 64.570312 140.949219 65.054688 C 140.011719 66.027344 133.164062 66.710938 133.222656 67.652344 C 133.277344 68.597656 140.003906 69.039062 140.953125 69.960938 C 141.484375 70.472656 142.597656 77.90625 143.597656 77.847656 C 144.59375 77.789062 145.449219 70.457031 145.933594 69.957031 C 146.839844 69.019531 153.738281 68.292969 153.683594 67.34375 C 153.628906 66.398438 146.84375 65.925781 145.929688 65.042969 Z M 145.929688 65.042969 " fill-opacity="1" fill-rule="nonzero"/><path fill="#ffffff" d="M 152.386719 134.921875 C 151.839844 134.390625 150.738281 126.976562 149.742188 127.039062 C 148.746094 127.097656 147.875 134.449219 147.40625 134.9375 C 146.472656 135.910156 139.621094 136.59375 139.679688 137.539062 C 139.734375 138.476562 146.460938 138.925781 147.410156 139.839844 C 147.941406 140.355469 149.054688 147.789062 150.050781 147.726562 C 151.050781 147.671875 151.90625 140.339844 152.390625 139.835938 C 153.292969 138.898438 160.195312 138.175781 160.140625 137.226562 C 160.085938 136.28125 153.300781 135.808594 152.386719 134.921875 Z M 152.386719 134.921875 " fill-opacity="1" fill-rule="nonzero"/><path fill="#074785" d="M 201.164062 240.777344 C 200.617188 240.25 199.519531 232.832031 198.523438 232.890625 C 197.523438 232.953125 196.652344 240.304688 196.1875 240.792969 C 195.25 241.761719 188.402344 242.453125 188.457031 243.394531 C 188.515625 244.335938 195.242188 244.777344 196.191406 245.695312 C 196.71875 246.207031 197.835938 253.644531 198.832031 253.585938 C 199.832031 253.53125 200.6875 246.195312 201.171875 245.691406 C 202.074219 244.753906 208.976562 244.03125 208.917969 243.082031 C 208.863281 242.136719 202.078125 241.667969 201.164062 240.777344 Z M 201.164062 240.777344 " fill-opacity="1" fill-rule="nonzero"/><path fill="#ffffff" d="M 187.234375 110.058594 C 185.097656 114.8125 192.296875 118.144531 194.429688 113.390625 C 196.566406 108.628906 189.371094 105.304688 187.234375 110.058594 Z M 187.234375 110.058594 " fill-opacity="1" fill-rule="evenodd"/><path fill="#ffffff" d="M 234.039062 167.324219 C 231.902344 172.085938 239.101562 175.414062 241.234375 170.65625 C 243.371094 165.898438 236.175781 162.574219 234.039062 167.324219 Z M 234.039062 167.324219 " fill-opacity="1" fill-rule="evenodd"/><path fill="#ffffff" d="M 200.472656 119.742188 C 214.554688 128.136719 227.722656 141.050781 231.558594 157.789062 C 232.449219 161.671875 238.304688 160.0625 237.417969 156.1875 C 233.230469 137.886719 218.957031 123.570312 203.539062 114.382812 C 200.175781 112.378906 197.113281 117.738281 200.472656 119.742188 Z M 200.472656 119.742188 " fill-opacity="1" fill-rule="evenodd"/><path fill="#ffffff" d="M 166.722656 31.617188 C 166.289062 28.886719 162.125 29.492188 162.558594 32.21875 C 162.992188 34.949219 167.15625 34.347656 166.722656 31.617188 Z M 166.722656 31.617188 " fill-opacity="1" fill-rule="evenodd"/><path fill="#ffffff" d="M 129.316406 19.734375 C 128.882812 17 124.722656 17.605469 125.15625 20.339844 C 125.585938 23.066406 129.746094 22.460938 129.316406 19.734375 Z M 129.316406 19.734375 " fill-opacity="1" fill-rule="evenodd"/><path fill="#ffffff" d="M 158.03125 31.148438 C 149.34375 31.496094 139.746094 29.570312 133.1875 23.25 C 131.664062 21.785156 129.53125 24.191406 131.050781 25.65625 C 138.222656 32.570312 148.714844 34.796875 158.226562 34.410156 C 160.300781 34.332031 160.105469 31.066406 158.03125 31.148438 Z M 158.03125 31.148438 " fill-opacity="1" fill-rule="evenodd"/><path fill="#ffffff" d="M 114.28125 251.59375 C 117.449219 247.304688 110.980469 242.421875 107.8125 246.710938 C 104.644531 251 111.113281 255.882812 114.28125 251.59375 Z M 114.28125 251.59375 " fill-opacity="1" fill-rule="evenodd"/><path fill="#ffffff" d="M 79.953125 184.253906 C 83.121094 179.964844 76.652344 175.078125 73.488281 179.371094 C 70.320312 183.660156 76.789062 188.542969 79.953125 184.253906 Z M 79.953125 184.253906 " fill-opacity="1" fill-rule="evenodd"/><path fill="#ffffff" d="M 103.152344 239.054688 C 90.910156 227.621094 80.558594 211.863281 80.363281 194.316406 C 80.316406 190.242188 74.113281 190.589844 74.160156 194.652344 C 74.371094 213.839844 85.519531 231.226562 98.929688 243.742188 C 101.855469 246.472656 106.078125 241.78125 103.152344 239.054688 Z M 103.152344 239.054688 " fill-opacity="1" fill-rule="evenodd"/><path fill="#ffffff" d="M 67.945312 123.164062 C 66.371094 121.480469 63.753906 123.917969 65.328125 125.601562 C 66.898438 127.28125 69.515625 124.847656 67.945312 123.164062 Z M 67.945312 123.164062 " fill-opacity="1" fill-rule="evenodd"/><path fill="#ffffff" d="M 88.054688 141.574219 C 83.019531 136.894531 77.882812 132.320312 72.847656 127.640625 C 71.199219 126.109375 68.816406 128.664062 70.464844 130.195312 C 75.503906 134.871094 80.636719 139.445312 85.671875 144.121094 C 87.324219 145.65625 89.703125 143.105469 88.054688 141.574219 Z M 88.054688 141.574219 " fill-opacity="1" fill-rule="evenodd"/><path fill="#ffffff" d="M 93.199219 146.199219 C 91.660156 144.558594 89.105469 146.933594 90.644531 148.578125 C 92.179688 150.222656 94.730469 147.84375 93.199219 146.199219 Z M 93.199219 146.199219 " fill-opacity="1" fill-rule="evenodd"/><path fill="#ffffff" d="M 174.65625 76.507812 C 171.167969 76.507812 171.167969 81.90625 174.65625 81.90625 C 178.140625 81.90625 178.140625 76.507812 174.65625 76.507812 Z M 174.65625 76.507812 " fill-opacity="1" fill-rule="nonzero"/><path fill="#ffffff" d="M 118.121094 112.996094 C 114.632812 112.996094 114.632812 118.394531 118.121094 118.394531 C 121.609375 118.394531 121.609375 112.996094 118.121094 112.996094 Z M 118.121094 112.996094 " fill-opacity="1" fill-rule="nonzero"/><path fill="#ffffff" d="M 139.679688 250.972656 C 136.191406 250.972656 136.191406 256.375 139.679688 256.375 C 143.167969 256.375 143.167969 250.972656 139.679688 250.972656 Z M 139.679688 250.972656 " fill-opacity="1" fill-rule="nonzero"/><path fill="#ffffff" d="M 230.839844 206.019531 C 227.351562 206.019531 227.351562 211.417969 230.839844 211.417969 C 234.324219 211.417969 234.324219 206.019531 230.839844 206.019531 Z M 230.839844 206.019531 " fill-opacity="1" fill-rule="nonzero"/><path fill="#ffffff" d="M 62.660156 141.894531 C 59.175781 141.894531 59.175781 147.296875 62.660156 147.296875 C 66.148438 147.296875 66.148438 141.894531 62.660156 141.894531 Z M 62.660156 141.894531 " fill-opacity="1" fill-rule="nonzero"/></svg>