<svg xmlns="http://www.w3.org/2000/svg" xmlns:xlink="http://www.w3.org/1999/xlink" width="1440" zoomAndPan="magnify" viewBox="0 0 1080 599.999999" height="800" preserveAspectRatio="xMidYMid meet" version="1.0"><defs><clipPath id="031b1c2563"><path d="M 406.480469 180 L 562 180 L 562 337 L 406.480469 337 Z M 406.480469 180 " clip-rule="nonzero"/></clipPath><clipPath id="15a2889497"><path d="M 520 266 L 673.480469 266 L 673.480469 420 L 520 420 Z M 520 266 " clip-rule="nonzero"/></clipPath></defs><rect x="-108" width="1296" fill="#ffffff" y="-60" height="719.999999" fill-opacity="1"/><rect x="-108" width="1296" fill="#ffffff" y="-60" height="719.999999" fill-opacity="1"/><g clip-path="url(#031b1c2563)"><path fill="#f1854f" d="M 561.105469 253.9375 C 560.542969 252.921875 559.511719 252.25 558.351562 252.144531 C 548.460938 251.273438 539.734375 251.527344 531.664062 252.921875 C 528.484375 253.472656 525.421875 254.191406 522.453125 255.09375 C 526.058594 249.988281 529.136719 244.660156 531.664062 239.160156 C 536.042969 229.636719 538.910156 219.269531 540.191406 208.351562 C 540.34375 207.058594 539.761719 205.785156 538.683594 205.046875 C 537.921875 204.523438 536.996094 204.335938 536.109375 204.488281 C 535.75 204.550781 535.394531 204.667969 535.058594 204.847656 C 526.429688 209.445312 518.476562 215.476562 510.742188 223.28125 C 505.804688 228.265625 501.269531 233.742188 497.007812 239.875 C 494.835938 231.398438 491.707031 223.136719 487.839844 213.890625 C 483.269531 202.96875 478.140625 192.238281 472.605469 181.992188 C 471.902344 180.695312 470.464844 179.976562 469.003906 180.191406 C 468.976562 180.195312 468.949219 180.203125 468.921875 180.207031 C 467.503906 180.453125 466.371094 181.542969 466.085938 182.964844 C 463.445312 195.976562 461.902344 207.550781 461.363281 218.347656 C 460.882812 227.917969 461.179688 236.9375 462.265625 245.679688 C 456.171875 241.367188 450.148438 237.785156 444.011719 234.820312 C 434.5625 230.253906 425.054688 227.234375 414.941406 225.589844 C 414.546875 225.527344 414.15625 225.527344 413.78125 225.59375 C 412.902344 225.746094 412.101562 226.226562 411.558594 226.964844 C 410.777344 228.023438 410.652344 229.425781 411.234375 230.605469 C 416.125 240.492188 422.320312 249.316406 429.652344 256.828125 C 433.871094 261.152344 438.550781 265.125 443.640625 268.71875 C 440.5625 268.863281 437.453125 269.210938 434.292969 269.757812 C 426.234375 271.152344 417.875 273.859375 408.722656 278.046875 C 407.523438 278.59375 406.734375 279.765625 406.679688 281.085938 C 406.621094 282.398438 407.304688 283.640625 408.453125 284.289062 C 408.59375 284.367188 408.71875 284.441406 408.835938 284.515625 C 409.179688 284.722656 409.574219 284.960938 410.074219 285.167969 C 411.988281 285.957031 413.9375 286.789062 415.820312 287.589844 C 420.292969 289.492188 424.921875 291.460938 429.621094 293.15625 C 440.242188 296.984375 449.976562 298.8125 459.386719 298.75 C 460.445312 298.742188 461.503906 298.695312 462.550781 298.625 C 458.128906 305.648438 455.5 313.585938 454.558594 322.691406 C 454.425781 323.984375 455.019531 325.25 456.105469 325.96875 C 456.863281 326.476562 457.777344 326.65625 458.644531 326.507812 C 459.019531 326.441406 459.382812 326.316406 459.726562 326.132812 C 466.355469 322.519531 472.199219 318.113281 477.09375 313.042969 C 479.765625 310.277344 482.199219 307.265625 484.382812 304.035156 L 485.480469 304.210938 C 485.503906 304.363281 484.625 305.515625 484.648438 305.664062 C 486.046875 314.199219 487.449219 322.734375 488.855469 331.273438 C 489.238281 333.605469 490.394531 334.855469 491.292969 335.496094 C 492.175781 336.121094 493.6875 336.789062 495.894531 336.40625 C 495.976562 336.390625 496.058594 336.378906 496.140625 336.359375 C 499.726562 335.632812 501.566406 332.769531 500.828125 329.0625 C 499.714844 323.445312 498.597656 317.828125 497.480469 312.214844 C 496.917969 309.390625 496.359375 306.570312 495.796875 303.75 C 495.738281 303.460938 494.125 303.167969 494.066406 302.878906 C 494.011719 302.59375 495.511719 302.3125 495.453125 302.023438 C 504.3125 308.496094 514.582031 312.628906 526.585938 314.578125 C 526.976562 314.640625 527.367188 314.640625 527.742188 314.570312 C 528.613281 314.421875 529.414062 313.945312 529.957031 313.214844 C 530.738281 312.167969 530.875 310.773438 530.304688 309.59375 C 526.363281 301.417969 521.222656 294.847656 514.714844 289.691406 C 518.886719 288.464844 523.144531 286.671875 527.609375 284.269531 C 541.355469 276.871094 552.265625 266.707031 560.234375 258.679688 C 560.820312 258.09375 561.074219 257.472656 561.199219 257.175781 L 561.203125 257.160156 C 561.695312 256.132812 561.660156 254.933594 561.105469 253.9375 Z M 561.105469 253.9375 " fill-opacity="1" fill-rule="evenodd"/></g><g clip-path="url(#15a2889497)"><path fill="#a089e4" d="M 671.136719 373.902344 C 671.078125 372.738281 670.453125 371.679688 669.457031 371.074219 C 660.980469 365.914062 653.039062 362.273438 645.191406 359.949219 C 642.09375 359.035156 639.027344 358.324219 635.96875 357.816406 C 641.460938 354.835938 646.578125 351.421875 651.285156 347.609375 C 659.421875 341.011719 666.585938 332.988281 672.566406 323.765625 C 673.277344 322.671875 673.320312 321.273438 672.679688 320.136719 C 672.226562 319.328125 671.480469 318.75 670.621094 318.492188 C 670.269531 318.390625 669.898438 318.339844 669.519531 318.351562 C 659.746094 318.648438 649.945312 320.535156 639.554688 324.109375 C 632.917969 326.390625 626.429688 329.289062 619.894531 332.902344 C 621.699219 324.339844 622.554688 315.546875 623.179688 305.542969 C 623.914062 293.726562 624.070312 281.832031 623.644531 270.195312 C 623.589844 268.722656 622.617188 267.4375 621.210938 266.988281 C 621.1875 266.980469 621.160156 266.972656 621.136719 266.964844 C 619.753906 266.554688 618.253906 267.035156 617.367188 268.179688 C 609.242188 278.675781 602.730469 288.367188 597.464844 297.808594 C 592.800781 306.183594 589.070312 314.394531 586.171875 322.71875 C 582.621094 316.152344 578.804688 310.273438 574.613281 304.894531 C 568.164062 296.617188 560.976562 289.695312 552.636719 283.742188 C 552.3125 283.511719 551.960938 283.34375 551.59375 283.234375 C 550.742188 282.980469 549.808594 283.058594 548.992188 283.480469 C 547.828125 284.082031 547.09375 285.285156 547.09375 286.597656 C 547.101562 297.628906 548.75 308.285156 551.996094 318.269531 C 553.863281 324.011719 556.296875 329.648438 559.273438 335.125 C 556.445312 333.890625 553.507812 332.828125 550.425781 331.914062 C 542.589844 329.597656 533.894531 328.324219 523.835938 328.023438 C 522.519531 327.980469 521.289062 328.683594 520.65625 329.839844 C 520.019531 330.996094 520.089844 332.40625 520.832031 333.5 C 520.921875 333.632812 521 333.753906 521.074219 333.867188 C 521.289062 334.210938 521.539062 334.597656 521.894531 335.003906 C 523.261719 336.5625 524.636719 338.167969 525.972656 339.722656 C 529.140625 343.410156 532.414062 347.222656 535.882812 350.824219 C 543.707031 358.960938 551.628906 364.914062 560.089844 369.019531 C 561.042969 369.484375 562.011719 369.914062 562.984375 370.316406 C 555.910156 374.652344 550.035156 380.605469 545.164062 388.351562 C 544.46875 389.453125 544.441406 390.851562 545.097656 391.976562 C 545.554688 392.765625 546.289062 393.332031 547.136719 393.582031 C 547.5 393.6875 547.882812 393.738281 548.273438 393.722656 C 555.8125 393.421875 563.003906 392.0625 569.640625 389.683594 C 573.253906 388.382812 576.898438 386.621094 580.289062 384.683594 L 582.335938 385.457031 C 582.304688 385.5625 579.78125 386.253906 579.75 386.359375 C 577.214844 394.671875 574.644531 402.921875 572.109375 411.234375 C 571.425781 413.496094 571.902344 415.128906 572.425781 416.101562 C 572.9375 417.050781 574 418.320312 576.152344 418.957031 C 576.230469 418.980469 576.308594 419.003906 576.390625 419.023438 C 579.925781 419.960938 582.84375 418.207031 583.824219 414.558594 C 585.3125 409.027344 586.796875 403.496094 588.28125 397.964844 C 589.03125 395.183594 589.75 392.398438 590.5 389.613281 C 590.578125 389.316406 589.574219 388.507812 589.660156 388.210938 C 589.738281 387.949219 590.90625 388.199219 590.976562 387.9375 C 596.054688 397.664062 603.433594 405.914062 613.332031 412.980469 C 613.652344 413.210938 614.003906 413.378906 614.371094 413.488281 C 615.21875 413.738281 616.144531 413.664062 616.960938 413.25 C 618.125 412.65625 618.863281 411.464844 618.875 410.160156 C 618.960938 401.082031 617.261719 392.914062 613.710938 385.40625 C 617.992188 386.15625 622.605469 386.4375 627.671875 386.257812 C 643.269531 385.714844 657.554688 381.433594 668.253906 377.765625 C 669.039062 377.496094 669.542969 377.054688 669.78125 376.84375 L 669.796875 376.832031 C 670.691406 376.128906 671.195312 375.039062 671.136719 373.902344 Z M 671.136719 373.902344 " fill-opacity="1" fill-rule="evenodd"/></g><path fill="#074785" d="M 593.003906 248.933594 C 592.1875 248.140625 590.550781 237.046875 589.0625 237.136719 C 587.566406 237.230469 586.265625 248.230469 585.570312 248.957031 C 584.171875 250.410156 573.945312 251.4375 574.03125 252.847656 C 574.113281 254.253906 584.15625 254.921875 585.578125 256.292969 C 586.367188 257.058594 588.03125 268.183594 589.523438 268.097656 C 591.011719 268.007812 592.285156 257.039062 593.011719 256.285156 C 594.363281 254.882812 604.667969 253.800781 604.585938 252.382812 C 604.503906 250.972656 594.371094 250.261719 593.003906 248.933594 Z M 593.003906 248.933594 " fill-opacity="1" fill-rule="nonzero"/><path fill="#074785" d="M 513.140625 368.375 C 512.320312 367.578125 510.679688 356.488281 509.191406 356.574219 C 507.699219 356.667969 506.402344 367.667969 505.703125 368.390625 C 504.304688 369.847656 494.078125 370.875 494.164062 372.285156 C 494.246094 373.691406 504.292969 374.359375 505.710938 375.730469 C 506.5 376.496094 508.164062 387.621094 509.65625 387.535156 C 511.148438 387.445312 512.417969 376.476562 513.144531 375.722656 C 514.496094 374.320312 524.800781 373.234375 524.71875 371.824219 C 524.632812 370.40625 514.503906 369.699219 513.140625 368.375 Z M 513.140625 368.375 " fill-opacity="1" fill-rule="nonzero"/><path fill="#7befe5" d="M 574.488281 364.644531 C 573.742188 367.371094 569.960938 368.65625 566.046875 367.507812 C 562.128906 366.363281 559.566406 363.222656 560.3125 360.492188 C 561.058594 357.761719 564.835938 356.476562 568.753906 357.625 C 572.667969 358.769531 575.234375 361.914062 574.488281 364.644531 Z M 574.488281 364.644531 " fill-opacity="1" fill-rule="evenodd"/><path fill="#7befe5" d="M 623.742188 379.066406 C 622.992188 381.796875 619.214844 383.082031 615.300781 381.9375 C 611.386719 380.789062 608.820312 377.648438 609.566406 374.917969 C 610.3125 372.1875 614.09375 370.902344 618.007812 372.050781 C 621.921875 373.195312 624.488281 376.339844 623.742188 379.066406 Z M 623.742188 379.066406 " fill-opacity="1" fill-rule="evenodd"/><path fill="#ffffff" d="M 592.125 349.789062 C 590.335938 356.328125 583.710938 360.175781 577.050781 358.710938 C 576.75 358.644531 574.867188 332.324219 581.269531 333.351562 C 581.820312 333.4375 582.375 333.5625 582.929688 333.722656 C 589.878906 335.765625 594 342.953125 592.125 349.789062 Z M 592.125 349.789062 " fill-opacity="1" fill-rule="nonzero"/><path fill="#074785" d="M 566.945312 342.414062 C 565.074219 349.25 569.191406 356.445312 576.144531 358.480469 C 576.453125 358.570312 576.757812 358.644531 577.066406 358.710938 C 585.046875 349.160156 583.4375 339.324219 581.144531 333.335938 C 574.789062 332.375 568.65625 336.164062 566.945312 342.414062 Z M 566.945312 342.414062 " fill-opacity="1" fill-rule="evenodd"/><path fill="#ffffff" d="M 627.246094 360.019531 C 625.457031 366.550781 618.84375 370.394531 612.191406 368.945312 C 611.882812 368.878906 609.933594 342.585938 616.300781 343.566406 C 616.882812 343.65625 617.464844 343.785156 618.046875 343.953125 C 625 345.992188 629.121094 353.183594 627.246094 360.019531 Z M 627.246094 360.019531 " fill-opacity="1" fill-rule="nonzero"/><path fill="#074785" d="M 602.066406 352.644531 C 600.191406 359.480469 604.3125 366.671875 611.265625 368.707031 C 611.574219 368.796875 611.878906 368.875 612.1875 368.941406 C 620.164062 359.390625 618.558594 349.554688 616.265625 343.5625 C 609.910156 342.605469 603.777344 346.390625 602.066406 352.644531 Z M 602.066406 352.644531 " fill-opacity="1" fill-rule="evenodd"/><path fill="#074785" d="M 573.722656 330.007812 C 572.613281 329.683594 571.914062 328.578125 571.980469 327.257812 C 572.058594 325.742188 573.050781 324.539062 574.390625 324.335938 C 577.621094 323.84375 580.9375 324.070312 584.242188 325.015625 C 585.671875 325.429688 586.414062 326.9375 585.988281 328.515625 C 585.558594 330.109375 584.160156 331 582.734375 330.59375 C 580.0625 329.835938 577.460938 329.664062 574.777344 330.074219 C 574.410156 330.128906 574.054688 330.105469 573.722656 330.007812 Z M 573.722656 330.007812 " fill-opacity="1" fill-rule="nonzero"/><path fill="#074785" d="M 615.523438 339.875 C 614.644531 339.113281 614.460938 337.824219 615.070312 336.660156 C 615.769531 335.324219 617.175781 334.660156 618.484375 335.039062 C 621.644531 335.957031 624.582031 337.5625 627.214844 339.804688 C 628.347656 340.785156 628.40625 342.457031 627.363281 343.703125 C 626.308594 344.957031 624.660156 345.175781 623.523438 344.207031 C 621.394531 342.394531 619.085938 341.140625 616.460938 340.378906 C 616.105469 340.273438 615.789062 340.105469 615.523438 339.875 Z M 615.523438 339.875 " fill-opacity="1" fill-rule="nonzero"/><path fill="#074785" d="M 599.746094 363.628906 C 600.289062 361.582031 597.136719 360.65625 596.589844 362.703125 C 596.105469 364.539062 595.78125 368.628906 593.253906 368.5625 C 590.230469 368.484375 591.378906 364.042969 591.917969 362.363281 C 592.5625 360.34375 589.410156 359.429688 588.761719 361.4375 C 587.5625 365.191406 587.410156 370.292969 592.007812 371.664062 C 597.28125 373.230469 598.734375 367.414062 599.746094 363.628906 Z M 599.746094 363.628906 " fill-opacity="1" fill-rule="nonzero"/><path fill="#ffffff" d="M 605.390625 350.039062 C 604.308594 352.238281 603.691406 354.546875 604.027344 357.027344 C 604.175781 358.144531 605.867188 357.8125 605.71875 356.707031 C 605.445312 354.710938 605.972656 352.769531 606.84375 351.007812 C 607.328125 350.019531 605.886719 349.039062 605.390625 350.039062 Z M 605.390625 350.039062 " fill-opacity="1" fill-rule="nonzero"/><path fill="#ffffff" d="M 604.355469 359.988281 C 604.429688 360.257812 604.496094 360.527344 604.566406 360.796875 C 604.691406 361.253906 605.101562 361.582031 605.585938 361.488281 C 606.019531 361.402344 606.382812 360.933594 606.257812 360.472656 C 606.183594 360.207031 606.117188 359.933594 606.046875 359.667969 C 605.921875 359.207031 605.511719 358.878906 605.027344 358.972656 C 604.59375 359.054688 604.230469 359.53125 604.355469 359.988281 Z M 604.355469 359.988281 " fill-opacity="1" fill-rule="nonzero"/><path fill="#ffffff" d="M 607.484375 347.566406 C 607.195312 347.9375 607.375 348.53125 607.742188 348.773438 C 608.160156 349.054688 608.644531 348.902344 608.929688 348.535156 C 608.921875 348.539062 608.917969 348.539062 608.90625 348.546875 C 609.3125 348.316406 609.507812 347.828125 609.28125 347.382812 C 609.082031 346.976562 608.53125 346.753906 608.125 346.984375 C 607.855469 347.136719 607.671875 347.324219 607.484375 347.566406 Z M 607.484375 347.566406 " fill-opacity="1" fill-rule="nonzero"/><path fill="#ffffff" d="M 608.933594 348.539062 C 608.945312 348.53125 608.953125 348.523438 608.964844 348.515625 C 608.953125 348.519531 608.941406 348.527344 608.929688 348.535156 C 608.777344 348.730469 608.890625 348.585938 608.933594 348.539062 Z M 608.933594 348.539062 " fill-opacity="1" fill-rule="nonzero"/><path fill="#ffffff" d="M 608.964844 348.515625 C 609.074219 348.449219 609.015625 348.476562 608.964844 348.515625 Z M 608.964844 348.515625 " fill-opacity="1" fill-rule="nonzero"/><path fill="#ffffff" d="M 608.933594 348.53125 C 608.933594 348.535156 608.929688 348.535156 608.929688 348.535156 C 608.933594 348.535156 608.929688 348.535156 608.929688 348.535156 C 608.929688 348.535156 608.933594 348.535156 608.933594 348.53125 Z M 608.933594 348.53125 " fill-opacity="1" fill-rule="nonzero"/><path fill="#ffffff" d="M 569.855469 339.632812 C 568.773438 341.828125 568.152344 344.140625 568.492188 346.621094 C 568.640625 347.738281 570.332031 347.40625 570.183594 346.300781 C 569.914062 344.304688 570.4375 342.363281 571.304688 340.597656 C 571.792969 339.613281 570.347656 338.632812 569.855469 339.632812 Z M 569.855469 339.632812 " fill-opacity="1" fill-rule="nonzero"/><path fill="#ffffff" d="M 568.820312 349.582031 C 568.894531 349.851562 568.957031 350.121094 569.03125 350.386719 C 569.152344 350.847656 569.5625 351.175781 570.050781 351.082031 C 570.484375 350.996094 570.847656 350.527344 570.71875 350.066406 C 570.648438 349.796875 570.582031 349.527344 570.507812 349.261719 C 570.382812 348.800781 569.976562 348.46875 569.488281 348.566406 C 569.054688 348.648438 568.695312 349.125 568.820312 349.582031 Z M 568.820312 349.582031 " fill-opacity="1" fill-rule="nonzero"/><path fill="#ffffff" d="M 571.949219 337.160156 C 571.660156 337.53125 571.839844 338.125 572.203125 338.367188 C 572.628906 338.648438 573.105469 338.496094 573.398438 338.125 C 573.386719 338.132812 573.378906 338.136719 573.371094 338.140625 C 573.777344 337.910156 573.972656 337.421875 573.75 336.980469 C 573.546875 336.570312 572.996094 336.347656 572.589844 336.578125 C 572.320312 336.730469 572.132812 336.917969 571.949219 337.160156 Z M 571.949219 337.160156 " fill-opacity="1" fill-rule="nonzero"/><path fill="#ffffff" d="M 573.394531 338.132812 C 573.40625 338.125 573.417969 338.117188 573.429688 338.109375 C 573.417969 338.113281 573.40625 338.117188 573.394531 338.125 C 573.242188 338.320312 573.355469 338.175781 573.394531 338.132812 Z M 573.394531 338.132812 " fill-opacity="1" fill-rule="nonzero"/><path fill="#ffffff" d="M 573.429688 338.109375 C 573.535156 338.042969 573.480469 338.066406 573.429688 338.109375 Z M 573.429688 338.109375 " fill-opacity="1" fill-rule="nonzero"/><path fill="#ffa4ac" d="M 505.136719 282.609375 C 505.628906 285.417969 509.308594 287.125 513.359375 286.414062 C 517.410156 285.707031 520.296875 282.851562 519.804688 280.039062 C 519.308594 277.226562 515.628906 275.523438 511.578125 276.230469 C 507.527344 276.941406 504.644531 279.796875 505.136719 282.609375 Z M 505.136719 282.609375 " fill-opacity="1" fill-rule="evenodd"/><path fill="#ffa4ac" d="M 454.171875 291.53125 C 454.664062 294.34375 458.34375 296.046875 462.394531 295.339844 C 466.445312 294.628906 469.332031 291.773438 468.839844 288.964844 C 468.347656 286.152344 464.664062 284.445312 460.613281 285.15625 C 456.5625 285.867188 453.679688 288.71875 454.171875 291.53125 Z M 454.171875 291.53125 " fill-opacity="1" fill-rule="evenodd"/><path fill="#ffffff" d="M 488.792969 265.796875 C 489.976562 272.53125 496.277344 277.113281 503.121094 276.394531 C 503.429688 276.363281 508.050781 250.433594 501.652344 250.566406 C 500.972656 250.582031 500.285156 250.648438 499.59375 250.769531 C 492.398438 252.027344 487.5625 258.757812 488.792969 265.796875 Z M 488.792969 265.796875 " fill-opacity="1" fill-rule="nonzero"/><path fill="#074785" d="M 514.851562 261.234375 C 516.085938 268.273438 511.25 275.003906 504.054688 276.261719 C 503.738281 276.320312 503.421875 276.359375 503.105469 276.390625 C 495.988281 265.957031 498.542969 256.304688 501.421875 250.578125 C 507.910156 250.328125 513.726562 254.792969 514.851562 261.234375 Z M 514.851562 261.234375 " fill-opacity="1" fill-rule="evenodd"/><path fill="#ffffff" d="M 452.460938 272.105469 C 453.640625 278.84375 459.953125 283.425781 466.804688 282.695312 C 467.109375 282.664062 471.722656 256.742188 465.332031 256.871094 C 464.644531 256.886719 463.953125 256.953125 463.257812 257.074219 C 456.0625 258.335938 451.226562 265.0625 452.460938 272.105469 Z M 452.460938 272.105469 " fill-opacity="1" fill-rule="nonzero"/><path fill="#074785" d="M 478.515625 267.542969 C 479.75 274.578125 474.914062 281.308594 467.71875 282.566406 C 467.402344 282.625 467.085938 282.664062 466.769531 282.699219 C 459.652344 272.261719 462.207031 262.613281 465.085938 256.882812 C 471.578125 256.632812 477.390625 261.101562 478.515625 267.542969 Z M 478.515625 267.542969 " fill-opacity="1" fill-rule="evenodd"/><path fill="#074785" d="M 509.214844 248.082031 C 510.363281 247.878906 511.171875 246.851562 511.230469 245.523438 C 511.292969 244.003906 510.414062 242.691406 509.085938 242.335938 C 505.878906 241.484375 502.515625 241.34375 499.101562 241.914062 C 497.621094 242.171875 496.730469 243.59375 497.007812 245.21875 C 497.289062 246.859375 498.609375 247.910156 500.085938 247.664062 C 502.847656 247.199219 505.484375 247.320312 508.148438 248.027344 C 508.507812 248.121094 508.867188 248.140625 509.214844 248.082031 Z M 509.214844 248.082031 " fill-opacity="1" fill-rule="nonzero"/><path fill="#074785" d="M 466.1875 253.28125 C 467.144531 252.617188 467.449219 251.347656 466.949219 250.117188 C 466.375 248.707031 465.019531 247.886719 463.664062 248.117188 C 460.398438 248.683594 457.289062 249.957031 454.421875 251.90625 C 453.1875 252.757812 452.96875 254.421875 453.902344 255.785156 C 454.84375 257.15625 456.484375 257.558594 457.71875 256.71875 C 460.035156 255.140625 462.480469 254.144531 465.195312 253.679688 C 465.566406 253.613281 465.898438 253.480469 466.1875 253.28125 Z M 466.1875 253.28125 " fill-opacity="1" fill-rule="nonzero"/><path fill="#074785" d="M 480.085938 278.867188 C 479.695312 276.765625 482.945312 276.136719 483.335938 278.238281 C 483.691406 280.117188 483.695312 284.238281 486.25 284.410156 C 489.304688 284.617188 488.488281 280.0625 488.078125 278.332031 C 487.582031 276.25 490.835938 275.632812 491.328125 277.703125 C 492.25 281.570312 492.007812 286.691406 487.265625 287.632812 C 481.824219 288.707031 480.808594 282.75 480.085938 278.867188 Z M 480.085938 278.867188 " fill-opacity="1" fill-rule="nonzero"/><path fill="#ffffff" d="M 475.417969 264.570312 C 476.296875 266.886719 476.703125 269.261719 476.125 271.703125 C 475.867188 272.804688 474.195312 272.28125 474.453125 271.195312 C 474.914062 269.230469 474.570312 267.230469 473.863281 265.371094 C 473.46875 264.332031 475.015625 263.515625 475.417969 264.570312 Z M 475.417969 264.570312 " fill-opacity="1" fill-rule="nonzero"/><path fill="#ffffff" d="M 475.511719 274.625 C 475.410156 274.886719 475.320312 275.144531 475.21875 275.40625 C 475.050781 275.851562 474.609375 276.136719 474.128906 275.988281 C 473.699219 275.855469 473.378906 275.34375 473.550781 274.898438 C 473.648438 274.636719 473.742188 274.375 473.839844 274.117188 C 474.007812 273.671875 474.453125 273.386719 474.929688 273.535156 C 475.363281 273.667969 475.679688 274.179688 475.511719 274.625 Z M 475.511719 274.625 " fill-opacity="1" fill-rule="nonzero"/><path fill="#ffffff" d="M 473.546875 261.863281 C 473.804688 262.265625 473.566406 262.839844 473.171875 263.042969 C 472.722656 263.273438 472.253906 263.070312 471.996094 262.667969 C 472.003906 262.675781 472.011719 262.675781 472.019531 262.683594 C 471.632812 262.40625 471.484375 261.898438 471.75 261.480469 C 471.996094 261.097656 472.570312 260.933594 472.957031 261.210938 C 473.214844 261.394531 473.378906 261.601562 473.546875 261.863281 Z M 473.546875 261.863281 " fill-opacity="1" fill-rule="nonzero"/><path fill="#ffffff" d="M 471.996094 262.675781 C 471.988281 262.664062 471.976562 262.652344 471.964844 262.644531 C 471.976562 262.652344 471.984375 262.660156 471.996094 262.667969 C 472.132812 262.878906 472.035156 262.722656 471.996094 262.675781 Z M 471.996094 262.675781 " fill-opacity="1" fill-rule="nonzero"/><path fill="#ffffff" d="M 471.964844 262.644531 C 471.859375 262.566406 471.914062 262.601562 471.964844 262.644531 Z M 471.964844 262.644531 " fill-opacity="1" fill-rule="nonzero"/><path fill="#ffffff" d="M 471.992188 262.664062 C 471.996094 262.664062 471.996094 262.667969 471.996094 262.667969 C 471.996094 262.667969 471.996094 262.664062 471.992188 262.664062 Z M 471.992188 262.664062 " fill-opacity="1" fill-rule="nonzero"/><path fill="#ffffff" d="M 512.1875 258.128906 C 513.066406 260.445312 513.46875 262.824219 512.894531 265.265625 C 512.636719 266.363281 510.964844 265.84375 511.222656 264.753906 C 511.683594 262.792969 511.339844 260.792969 510.636719 258.929688 C 510.242188 257.894531 511.785156 257.074219 512.1875 258.128906 Z M 512.1875 258.128906 " fill-opacity="1" fill-rule="nonzero"/><path fill="#ffffff" d="M 512.28125 268.1875 C 512.179688 268.449219 512.085938 268.707031 511.988281 268.96875 C 511.820312 269.414062 511.378906 269.699219 510.898438 269.550781 C 510.46875 269.417969 510.148438 268.90625 510.320312 268.460938 C 510.421875 268.199219 510.511719 267.9375 510.609375 267.679688 C 510.78125 267.230469 511.222656 266.949219 511.699219 267.097656 C 512.132812 267.226562 512.453125 267.742188 512.28125 268.1875 Z M 512.28125 268.1875 " fill-opacity="1" fill-rule="nonzero"/><path fill="#ffffff" d="M 510.316406 255.425781 C 510.574219 255.828125 510.335938 256.402344 509.941406 256.605469 C 509.492188 256.835938 509.023438 256.632812 508.769531 256.226562 C 508.777344 256.238281 508.78125 256.238281 508.792969 256.246094 C 508.40625 255.972656 508.253906 255.460938 508.523438 255.039062 C 508.765625 254.65625 509.339844 254.496094 509.726562 254.773438 C 509.984375 254.957031 510.148438 255.160156 510.316406 255.425781 Z M 510.316406 255.425781 " fill-opacity="1" fill-rule="nonzero"/><path fill="#ffffff" d="M 508.765625 256.234375 C 508.753906 256.226562 508.746094 256.214844 508.738281 256.207031 C 508.746094 256.214844 508.757812 256.222656 508.769531 256.226562 C 508.902344 256.441406 508.804688 256.285156 508.765625 256.234375 Z M 508.765625 256.234375 " fill-opacity="1" fill-rule="nonzero"/><path fill="#ffffff" d="M 508.738281 256.207031 C 508.632812 256.128906 508.6875 256.164062 508.738281 256.207031 Z M 508.738281 256.207031 " fill-opacity="1" fill-rule="nonzero"/><path fill="#7befe5" d="M 554.453125 297.050781 C 560.671875 305.632812 565.246094 315.109375 568.957031 325.007812 C 569.351562 326.066406 570.960938 325.394531 570.566406 324.34375 C 566.804688 314.3125 562.140625 304.699219 555.84375 295.996094 C 555.183594 295.085938 553.796875 296.140625 554.453125 297.050781 Z M 554.453125 297.050781 " fill-opacity="1" fill-rule="evenodd"/><path fill="#7befe5" d="M 613.320312 284.570312 C 611.84375 295.066406 608.566406 305.066406 604.371094 314.773438 C 603.925781 315.804688 605.546875 316.4375 605.988281 315.410156 C 610.242188 305.574219 613.554688 295.414062 615.050781 284.777344 C 615.207031 283.664062 613.476562 283.460938 613.320312 284.570312 Z M 613.320312 284.570312 " fill-opacity="1" fill-rule="evenodd"/><path fill="#7befe5" d="M 660.773438 323.335938 C 652.195312 326.828125 643.9375 331.0625 635.683594 335.257812 C 634.683594 335.769531 635.535156 337.285156 636.535156 336.777344 C 644.789062 332.585938 653.046875 328.347656 661.621094 324.855469 C 662.664062 324.429688 661.800781 322.914062 660.773438 323.335938 Z M 660.773438 323.335938 " fill-opacity="1" fill-rule="evenodd"/><path fill="#7befe5" d="M 556.816406 346.476562 C 548.738281 341.941406 540.28125 338.121094 531.863281 334.277344 C 530.835938 333.808594 530.179688 335.425781 531.203125 335.890625 C 539.625 339.734375 548.078125 343.554688 556.15625 348.089844 C 557.132812 348.636719 557.78125 347.015625 556.816406 346.476562 Z M 556.816406 346.476562 " fill-opacity="1" fill-rule="evenodd"/><path fill="#7befe5" d="M 610.867188 399.199219 C 608.167969 394.082031 605.355469 389.011719 603.417969 383.542969 C 603.042969 382.488281 601.375 382.992188 601.753906 384.050781 C 603.738281 389.660156 606.617188 394.871094 609.386719 400.113281 C 609.910156 401.109375 611.390625 400.1875 610.867188 399.199219 Z M 610.867188 399.199219 " fill-opacity="1" fill-rule="evenodd"/><path fill="#7befe5" d="M 650.8125 371.222656 C 645.035156 371.429688 639.242188 371.761719 633.476562 371.128906 C 632.363281 371.007812 632.089844 372.726562 633.207031 372.847656 C 639.121094 373.496094 645.066406 373.171875 650.992188 372.957031 C 652.117188 372.917969 651.929688 371.183594 650.8125 371.222656 Z M 650.8125 371.222656 " fill-opacity="1" fill-rule="evenodd"/><path fill="#7befe5" d="M 558.707031 386.222656 C 563.8125 383.503906 568.875 380.671875 574.335938 378.710938 C 575.390625 378.332031 574.882812 376.667969 573.824219 377.046875 C 568.222656 379.054688 563.023438 381.953125 557.789062 384.742188 C 556.792969 385.273438 557.722656 386.746094 558.707031 386.222656 Z M 558.707031 386.222656 " fill-opacity="1" fill-rule="evenodd"/><path fill="#ffa4ac" d="M 423.480469 238.085938 C 432.851562 243.039062 441.144531 249.511719 448.851562 256.75 C 449.671875 257.523438 450.816406 256.210938 450.003906 255.441406 C 442.191406 248.109375 433.757812 241.546875 424.261719 236.527344 C 423.265625 236 422.492188 237.5625 423.480469 238.085938 Z M 423.480469 238.085938 " fill-opacity="1" fill-rule="evenodd"/><path fill="#ffa4ac" d="M 470.765625 200.863281 C 474.078125 210.929688 475.558594 221.347656 476.085938 231.910156 C 476.144531 233.03125 477.878906 232.886719 477.824219 231.765625 C 477.289062 221.0625 475.769531 210.488281 472.410156 200.28125 C 472.058594 199.214844 470.414062 199.796875 470.765625 200.863281 Z M 470.765625 200.863281 " fill-opacity="1" fill-rule="evenodd"/><path fill="#ffa4ac" d="M 530.464844 214.648438 C 524.3125 221.578125 518.777344 229.023438 513.230469 236.4375 C 512.554688 237.339844 513.996094 238.324219 514.667969 237.425781 C 520.214844 230.015625 525.75 222.566406 531.898438 215.636719 C 532.644531 214.796875 531.199219 213.820312 530.464844 214.648438 Z M 530.464844 214.648438 " fill-opacity="1" fill-rule="evenodd"/><path fill="#ffa4ac" d="M 447.449219 281.375 C 438.195312 280.882812 428.925781 281.191406 419.671875 281.46875 C 418.546875 281.503906 418.671875 283.238281 419.792969 283.203125 C 429.046875 282.925781 438.320312 282.617188 447.574219 283.113281 C 448.691406 283.171875 448.554688 281.433594 447.449219 281.375 Z M 447.449219 281.375 " fill-opacity="1" fill-rule="evenodd"/><path fill="#ffa4ac" d="M 519.238281 304.765625 C 514.558594 301.371094 509.789062 298.0625 505.632812 294.015625 C 504.832031 293.230469 503.558594 294.421875 504.367188 295.207031 C 508.625 299.355469 513.511719 302.757812 518.3125 306.238281 C 519.226562 306.902344 520.140625 305.421875 519.238281 304.765625 Z M 519.238281 304.765625 " fill-opacity="1" fill-rule="evenodd"/><path fill="#ffa4ac" d="M 542.699219 262.011719 C 537.609375 264.75 532.554688 267.605469 527.105469 269.589844 C 526.054688 269.972656 526.570312 271.636719 527.628906 271.25 C 533.21875 269.21875 538.40625 266.296875 543.625 263.484375 C 544.617188 262.949219 543.683594 261.476562 542.699219 262.011719 Z M 542.699219 262.011719 " fill-opacity="1" fill-rule="evenodd"/><path fill="#ffa4ac" d="M 465.457031 315.199219 C 468.832031 310.5 472.121094 305.722656 476.152344 301.550781 C 476.929688 300.746094 475.738281 299.476562 474.957031 300.289062 C 470.824219 304.5625 467.441406 309.460938 463.980469 314.277344 C 463.320312 315.195312 464.804688 316.105469 465.457031 315.199219 Z M 465.457031 315.199219 " fill-opacity="1" fill-rule="evenodd"/><path fill="#074785" d="M 589.988281 389.46875 C 590.164062 389.582031 590.335938 389.621094 590.5 389.613281 C 590.660156 389.054688 590.816406 388.492188 590.980469 387.933594 C 590.960938 387.921875 590.941406 387.90625 590.921875 387.894531 C 589.335938 386.894531 588.386719 385.300781 587.449219 383.726562 C 587.238281 383.371094 586.816406 383.1875 586.414062 383.292969 C 584.539062 383.792969 582.527344 384.988281 580.53125 384.691406 C 580.445312 384.679688 580.363281 384.679688 580.289062 384.683594 L 579.972656 385.664062 C 579.898438 385.894531 579.820312 386.125 579.75 386.359375 C 579.832031 386.40625 579.933594 386.441406 580.050781 386.457031 C 582.253906 386.78125 584.1875 385.882812 586.234375 385.253906 C 587.230469 386.886719 588.328125 388.425781 589.988281 389.46875 Z M 589.988281 389.46875 " fill-opacity="1" fill-rule="evenodd"/><path fill="#ffffff" d="M 608.101562 295.328125 C 609.300781 293.953125 607.210938 292.03125 605.960938 293.460938 C 604.726562 294.914062 606.910156 296.726562 608.101562 295.328125 Z M 608.101562 295.328125 " fill-opacity="1" fill-rule="evenodd"/><path fill="#ffffff" d="M 597.253906 314.34375 C 599.484375 309.226562 602.042969 304.292969 605.085938 299.699219 C 606.082031 298.214844 603.820312 296.613281 602.78125 298.15625 C 599.652344 302.886719 597.019531 307.957031 594.722656 313.214844 C 593.976562 314.953125 596.535156 316.015625 597.253906 314.34375 Z M 597.253906 314.34375 " fill-opacity="1" fill-rule="evenodd"/><path fill="#ffffff" d="M 595.234375 319.601562 C 595.992188 317.945312 593.507812 316.710938 592.71875 318.429688 C 591.949219 320.167969 594.492188 321.28125 595.234375 319.601562 Z M 595.234375 319.601562 " fill-opacity="1" fill-rule="evenodd"/><path fill="#ffffff" d="M 565.628906 373.445312 C 566.714844 372.890625 565.898438 371.183594 564.773438 371.757812 C 563.648438 372.347656 564.546875 374.011719 565.628906 373.445312 Z M 565.628906 373.445312 " fill-opacity="1" fill-rule="evenodd"/><path fill="#ffffff" d="M 554.203125 382.496094 C 556.855469 379.894531 559.660156 377.480469 562.683594 375.394531 C 563.667969 374.722656 562.664062 373.171875 561.640625 373.867188 C 558.53125 376.011719 555.640625 378.492188 552.917969 381.171875 C 552.023438 382.0625 553.34375 383.355469 554.203125 382.496094 Z M 554.203125 382.496094 " fill-opacity="1" fill-rule="evenodd"/><path fill="#ffffff" d="M 551.648438 385.25 C 552.527344 384.410156 551.296875 383.03125 550.386719 383.898438 C 549.476562 384.78125 550.773438 386.101562 551.648438 385.25 Z M 551.648438 385.25 " fill-opacity="1" fill-rule="evenodd"/><path fill="#ffffff" d="M 660.089844 372.035156 C 661.59375 372.957031 663.089844 370.65625 661.527344 369.691406 C 659.941406 368.75 658.566406 371.121094 660.089844 372.035156 Z M 660.089844 372.035156 " fill-opacity="1" fill-rule="evenodd"/><path fill="#ffffff" d="M 640.214844 364.738281 C 645.453125 366.046875 650.566406 367.695312 655.4375 369.859375 C 657.015625 370.570312 658.175781 368.152344 656.539062 367.410156 C 651.527344 365.183594 646.269531 363.484375 640.886719 362.140625 C 639.109375 361.707031 638.503906 364.320312 640.214844 364.738281 Z M 640.214844 364.738281 " fill-opacity="1" fill-rule="evenodd"/><path fill="#ffffff" d="M 634.878906 363.65625 C 636.578125 364.109375 637.355469 361.542969 635.589844 361.066406 C 633.808594 360.613281 633.160156 363.21875 634.878906 363.65625 Z M 634.878906 363.65625 " fill-opacity="1" fill-rule="evenodd"/><path fill="#ffffff" d="M 555.703125 305.472656 C 555.492188 303.71875 552.757812 303.976562 552.972656 305.800781 C 553.214844 307.628906 555.9375 307.234375 555.703125 305.472656 Z M 555.703125 305.472656 " fill-opacity="1" fill-rule="evenodd"/><path fill="#ffffff" d="M 562.320312 325.585938 C 560.09375 320.671875 558.210938 315.636719 556.886719 310.472656 C 556.464844 308.792969 553.847656 309.382812 554.285156 311.128906 C 555.648438 316.441406 557.582031 321.621094 559.867188 326.675781 C 560.632812 328.335938 563.054688 327.1875 562.320312 325.585938 Z M 562.320312 325.585938 " fill-opacity="1" fill-rule="evenodd"/><path fill="#ffffff" d="M 564.785156 330.449219 C 564.085938 328.828125 561.589844 329.816406 562.3125 331.496094 C 563.0625 333.171875 565.507812 332.066406 564.785156 330.449219 Z M 564.785156 330.449219 " fill-opacity="1" fill-rule="evenodd"/><path fill="#ffffff" d="M 573.65625 411.796875 C 573.113281 413.160156 575.226562 413.996094 575.765625 412.636719 C 576.304688 411.277344 574.195312 410.4375 573.65625 411.796875 Z M 573.65625 411.796875 " fill-opacity="1" fill-rule="evenodd"/><path fill="#ffffff" d="M 578.761719 395.246094 C 577.441406 399.40625 576.210938 403.601562 574.894531 407.765625 C 574.460938 409.128906 576.574219 409.800781 577.007812 408.4375 C 578.324219 404.269531 579.554688 400.078125 580.875 395.914062 C 581.304688 394.550781 579.191406 393.882812 578.761719 395.246094 Z M 578.761719 395.246094 " fill-opacity="1" fill-rule="evenodd"/><path fill="#ffffff" d="M 580.019531 391.03125 C 579.492188 392.363281 581.550781 393.179688 582.078125 391.851562 C 582.605469 390.523438 580.546875 389.707031 580.019531 391.03125 Z M 580.019531 391.03125 " fill-opacity="1" fill-rule="evenodd"/><path fill="#ffffff" d="M 604.585938 335.125 C 601.589844 335.125 601.589844 339.773438 604.585938 339.773438 C 607.582031 339.773438 607.582031 335.125 604.585938 335.125 Z M 604.585938 335.125 " fill-opacity="1" fill-rule="nonzero"/><path fill="#ffffff" d="M 544.050781 347.53125 C 541.054688 347.53125 541.054688 352.179688 544.050781 352.179688 C 547.046875 352.179688 547.046875 347.53125 544.050781 347.53125 Z M 544.050781 347.53125 " fill-opacity="1" fill-rule="nonzero"/><path fill="#074785" d="M 495.257812 303.851562 C 495.464844 303.871094 495.640625 303.832031 495.78125 303.75 C 495.671875 303.175781 495.5625 302.605469 495.453125 302.035156 C 495.433594 302.03125 495.410156 302.027344 495.386719 302.023438 C 493.519531 301.839844 491.953125 300.84375 490.414062 299.855469 C 490.0625 299.632812 489.609375 299.65625 489.296875 299.933594 C 487.84375 301.222656 486.578125 303.1875 484.664062 303.820312 C 484.582031 303.847656 484.449219 303.992188 484.382812 304.035156 L 484.53125 304.949219 C 484.566406 305.191406 484.605469 305.425781 484.648438 305.664062 C 484.742188 305.667969 484.914062 305.652344 485.027344 305.617188 C 487.140625 304.917969 488.46875 303.246094 490.011719 301.769531 C 491.636719 302.78125 493.308594 303.664062 495.257812 303.851562 Z M 495.257812 303.851562 " fill-opacity="1" fill-rule="evenodd"/><path fill="#ffffff" d="M 469.269531 211.9375 C 469.726562 210.171875 466.996094 209.390625 466.519531 211.230469 C 466.066406 213.082031 468.832031 213.71875 469.269531 211.9375 Z M 469.269531 211.9375 " fill-opacity="1" fill-rule="evenodd"/><path fill="#ffffff" d="M 468.105469 233.800781 C 467.804688 228.226562 467.875 222.667969 468.535156 217.199219 C 468.757812 215.421875 466.015625 215.007812 465.785156 216.851562 C 465.105469 222.484375 465.027344 228.199219 465.332031 233.929688 C 465.445312 235.816406 468.210938 235.617188 468.105469 233.800781 Z M 468.105469 233.800781 " fill-opacity="1" fill-rule="evenodd"/><path fill="#ffffff" d="M 468.65625 239.40625 C 468.589844 237.585938 465.8125 237.597656 465.882812 239.488281 C 465.976562 241.382812 468.746094 241.234375 468.65625 239.40625 Z M 468.65625 239.40625 " fill-opacity="1" fill-rule="evenodd"/><path fill="#ffffff" d="M 466.339844 300.804688 C 467.058594 299.824219 465.566406 298.667969 464.816406 299.683594 C 464.074219 300.714844 465.628906 301.800781 466.339844 300.804688 Z M 466.339844 300.804688 " fill-opacity="1" fill-rule="evenodd"/><path fill="#ffffff" d="M 460.1875 314.023438 C 461.386719 310.503906 462.808594 307.089844 464.578125 303.871094 C 465.15625 302.832031 463.566406 301.894531 462.960938 302.976562 C 461.144531 306.285156 459.675781 309.800781 458.441406 313.417969 C 458.042969 314.613281 459.800781 315.175781 460.1875 314.023438 Z M 460.1875 314.023438 " fill-opacity="1" fill-rule="evenodd"/><path fill="#ffffff" d="M 459.132812 317.628906 C 459.546875 316.484375 457.828125 315.804688 457.398438 316.988281 C 456.988281 318.1875 458.734375 318.78125 459.132812 317.628906 Z M 459.132812 317.628906 " fill-opacity="1" fill-rule="evenodd"/><path fill="#ffffff" d="M 550.136719 257.179688 C 551.894531 257.332031 552.199219 254.601562 550.371094 254.441406 C 548.527344 254.308594 548.363281 257.050781 550.136719 257.179688 Z M 550.136719 257.179688 " fill-opacity="1" fill-rule="evenodd"/><path fill="#ffffff" d="M 529.101562 259.570312 C 534.367188 258.394531 539.675781 257.570312 545 257.320312 C 546.730469 257.25 546.6875 254.566406 544.890625 254.640625 C 539.410156 254.894531 533.945312 255.742188 528.535156 256.949219 C 526.75 257.359375 527.382812 259.96875 529.101562 259.570312 Z M 529.101562 259.570312 " fill-opacity="1" fill-rule="evenodd"/><path fill="#ffffff" d="M 523.84375 260.996094 C 525.566406 260.644531 525.109375 258 523.316406 258.363281 C 521.523438 258.757812 522.109375 261.378906 523.84375 260.996094 Z M 523.84375 260.996094 " fill-opacity="1" fill-rule="evenodd"/><path fill="#ffffff" d="M 426.988281 244.511719 C 426.015625 243.035156 423.683594 244.492188 424.695312 246.023438 C 425.730469 247.550781 427.984375 245.980469 426.988281 244.511719 Z M 426.988281 244.511719 " fill-opacity="1" fill-rule="evenodd"/><path fill="#ffffff" d="M 441.917969 259.519531 C 437.726562 256.121094 433.785156 252.46875 430.285156 248.445312 C 429.15625 247.136719 427.082031 248.835938 428.253906 250.199219 C 431.855469 254.335938 435.90625 258.097656 440.214844 261.589844 C 441.644531 262.734375 443.292969 260.617188 441.917969 259.519531 Z M 441.917969 259.519531 " fill-opacity="1" fill-rule="evenodd"/><path fill="#ffffff" d="M 446.304688 262.757812 C 444.953125 261.621094 443.164062 263.625 444.5625 264.800781 C 445.984375 265.964844 447.675781 263.878906 446.304688 262.757812 Z M 446.304688 262.757812 " fill-opacity="1" fill-rule="evenodd"/><path fill="#ffffff" d="M 490.710938 331.488281 C 490.835938 332.949219 493.097656 332.746094 492.972656 331.292969 C 492.84375 329.832031 490.582031 330.03125 490.710938 331.488281 Z M 490.710938 331.488281 " fill-opacity="1" fill-rule="evenodd"/><path fill="#ffffff" d="M 487.851562 314.402344 C 488.539062 318.714844 489.320312 323.015625 490.007812 327.328125 C 490.234375 328.742188 492.421875 328.394531 492.195312 326.980469 C 491.507812 322.667969 490.726562 318.367188 490.039062 314.054688 C 489.8125 312.644531 487.625 312.992188 487.851562 314.402344 Z M 487.851562 314.402344 " fill-opacity="1" fill-rule="evenodd"/><path fill="#ffffff" d="M 487.085938 310.074219 C 487.210938 311.496094 489.417969 311.304688 489.296875 309.878906 C 489.167969 308.457031 486.960938 308.652344 487.085938 310.074219 Z M 487.085938 310.074219 " fill-opacity="1" fill-rule="evenodd"/><path fill="#ffffff" d="M 483.070312 242.289062 C 480.390625 243.632812 482.472656 247.785156 485.152344 246.4375 C 487.832031 245.09375 485.75 240.941406 483.070312 242.289062 Z M 483.070312 242.289062 " fill-opacity="1" fill-rule="nonzero"/><path fill="#ffffff" d="M 436.417969 287.328125 C 433.738281 288.671875 435.824219 292.824219 438.5 291.484375 C 441.179688 290.136719 439.09375 285.984375 436.417969 287.328125 Z M 436.417969 287.328125 " fill-opacity="1" fill-rule="nonzero"/></svg>