<svg xmlns="http://www.w3.org/2000/svg" xmlns:xlink="http://www.w3.org/1999/xlink" width="1440" zoomAndPan="magnify" viewBox="0 0 1080 599.999999" height="800" preserveAspectRatio="xMidYMid meet" version="1.0"><defs><filter x="0%" y="0%" width="100%" height="100%" id="53978d7be6"><feColorMatrix values="0 0 0 0 1 0 0 0 0 1 0 0 0 0 1 0 0 0 1 0" color-interpolation-filters="sRGB"/></filter><mask id="879e3a9dda"><g filter="url(#53978d7be6)"><rect x="-108" width="1296" fill="#000000" y="-60" height="719.999999" fill-opacity="0.3176"/></g></mask><clipPath id="bae76e1c1b"><path d="M 0 14 L 460 14 L 460 565 L 0 565 Z M 0 14 " clip-rule="nonzero"/></clipPath><clipPath id="814182cfaa"><path d="M -64.703125 -26.09375 L 511.816406 53.601562 L 436.332031 599.660156 L -140.183594 519.964844 Z M -64.703125 -26.09375 " clip-rule="nonzero"/></clipPath><clipPath id="58d67ef679"><path d="M -64.703125 -26.09375 L 511.816406 53.601562 L 436.332031 599.660156 L -140.183594 519.964844 Z M -64.703125 -26.09375 " clip-rule="nonzero"/></clipPath><clipPath id="a7282014a7"><rect x="0" width="511" y="0" height="600"/></clipPath></defs><rect x="-108" width="1296" fill="#ffffff" y="-60" height="719.999999" fill-opacity="1"/><rect x="-108" width="1296" fill="#ffffff" y="-60" height="719.999999" fill-opacity="1"/><rect x="-108" width="1296" fill="#f5b0c2" y="-60" height="719.999999" fill-opacity="1"/><g mask="url(#879e3a9dda)"><g transform="matrix(1, 0, 0, 1, 0, -0.000000000000034788)"><g clip-path="url(#a7282014a7)"><g clip-path="url(#bae76e1c1b)"><g clip-path="url(#814182cfaa)"><g clip-path="url(#58d67ef679)"><path fill="#002493" d="M 455.664062 412.871094 L 450.640625 409.84375 C 426.929688 395.796875 397.515625 386.066406 365.589844 381.652344 C 342.597656 378.476562 318.886719 378.085938 295.703125 380.320312 C 311.785156 369.21875 327.285156 356.703125 341.84375 342.945312 C 381.730469 305.035156 412 259.578125 427.03125 215.125 L 428.917969 209.5 C 430.777344 204.09375 426.195312 198.683594 420.628906 199.582031 L 414.84375 200.449219 C 370.273438 207.167969 321.980469 229.589844 278.761719 263.484375 C 263.058594 275.859375 248.324219 289.261719 234.886719 303.726562 C 244.5 272.738281 251.074219 239.664062 254.109375 206.4375 C 260.253906 140.320312 252.261719 76.027344 231.730469 25.324219 L 229.292969 19.65625 C 227.042969 14.234375 219.851562 13.242188 216.21875 17.847656 L 212.429688 22.765625 C 178.914062 65.996094 153.78125 125.714844 141.753906 191.015625 C 135.664062 223.824219 133.03125 257.332031 133.863281 289.875 C 124.855469 272.304688 114.417969 255.425781 102.550781 239.238281 C 70.148438 194.890625 29.746094 160.207031 -11.328125 141.648438 L -16.660156 139.246094 C -21.882812 136.855469 -27.648438 140.835938 -27.328125 146.542969 L -27.039062 152.46875 C -24.632812 199.332031 -7.9375 251.28125 20.277344 298.605469 C 30.546875 315.90625 41.960938 332.140625 54.535156 347.207031 C 32.84375 338.65625 9.902344 332.707031 -13.089844 329.53125 C -45.015625 325.117188 -76.078125 326.488281 -102.601562 333.59375 L -108.253906 335.144531 C -113.789062 336.597656 -115.71875 343.328125 -111.964844 347.511719 L -108.007812 351.835938 C -89.605469 372.148438 -64.710938 390.46875 -35.882812 404.449219 C -7.898438 418.089844 23.117188 427.488281 53.859375 431.625 C 22.109375 445.226562 -5.699219 467.257812 -29.222656 497.65625 L -33.011719 502.574219 C -36.539062 507.195312 -33.800781 513.902344 -28.027344 514.703125 L -21.925781 515.546875 C 38.769531 523.933594 94.34375 505.074219 143.171875 459.519531 L 131.769531 542.011719 C 130.609375 550.402344 136.414062 558.199219 144.695312 559.34375 L 151.234375 560.25 C 159.515625 561.394531 167.222656 555.460938 168.378906 547.070312 L 179.769531 464.6875 C 214.515625 521.796875 262.796875 554.902344 323.476562 563.402344 L 329.578125 564.246094 C 335.351562 565.042969 339.808594 559.328125 337.667969 553.925781 L 335.355469 548.164062 C 320.957031 512.523438 300.167969 483.773438 273.296875 462.070312 C 273.515625 462.101562 273.84375 462.144531 274.0625 462.175781 C 304.570312 466.394531 336.644531 465.71875 367.050781 460.257812 C 398.585938 454.625 427.519531 443.742188 450.882812 428.980469 L 455.863281 425.894531 C 460.730469 422.789062 460.589844 415.773438 455.664062 412.871094 Z M 364.78125 446.953125 C 335.742188 452.15625 305.117188 452.808594 276.023438 448.785156 C 264.472656 447.191406 253.246094 444.859375 242.652344 441.953125 L 217 434.742188 C 212.714844 433.59375 210.347656 439.484375 214.277344 441.585938 L 237.730469 454.265625 C 275.238281 474.554688 303.445312 506.660156 321.515625 549.472656 C 264.148438 540.320312 218.695312 506.828125 186.609375 449.753906 C 184.898438 446.851562 183.082031 443.933594 181.109375 441.332031 L 174.832031 432.910156 C 173.519531 431.175781 170.863281 431.917969 170.574219 433.988281 L 155.195312 545.25 C 155.046875 546.339844 154.160156 547.105469 153.179688 546.96875 L 146.644531 546.066406 C 145.664062 545.929688 145.019531 544.953125 145.171875 543.863281 L 160.550781 432.601562 C 160.835938 430.53125 158.480469 429.097656 156.746094 430.410156 L 148.421875 436.8125 C 145.800781 438.894531 143.167969 441.082031 140.828125 443.535156 C 94.460938 489.765625 41.628906 509.671875 -16.070312 502.917969 C 13.042969 466.628906 48.78125 443.472656 90.398438 434.011719 L 116.414062 428.167969 C 120.765625 427.214844 119.988281 420.777344 115.648438 420.84375 L 89 420.824219 C 78 420.859375 66.578125 419.945312 55.027344 418.347656 C 25.933594 414.328125 -3.367188 405.390625 -29.902344 392.503906 C -55.8125 379.929688 -78.445312 363.695312 -95.484375 345.570312 C -71.367188 339.796875 -43.570312 338.753906 -14.804688 342.730469 C 17.777344 347.234375 50.195312 357.710938 78.84375 373 L 96.949219 382.609375 C 100.785156 384.582031 104.339844 379.746094 101.324219 376.664062 L 86.773438 362.214844 C 65.960938 341.679688 47.480469 317.914062 31.914062 291.550781 C 5.609375 247.269531 -10.382812 199.082031 -13.210938 155.269531 C 24.609375 173.269531 61.875 205.738281 92.039062 247 C 110.542969 272.214844 126.039062 300.675781 137.199219 329.203125 L 145.652344 350.804688 C 147.195312 354.90625 153.285156 353.417969 152.785156 349.015625 L 150.082031 325.988281 C 145.269531 283.675781 146.945312 237.820312 155.191406 193.429688 C 166.59375 131.816406 189.828125 75.390625 220.863281 34.039062 C 239.53125 82.152344 246.699219 142.777344 240.835938 205.269531 C 236.621094 250.21875 225.902344 294.824219 209.792969 334.242188 L 200.945312 355.671875 C 199.285156 359.664062 204.726562 362.859375 207.324219 359.332031 L 221.320312 340.832031 C 239.691406 316.386719 262.421875 293.320312 287.085938 273.960938 C 327.3125 242.429688 371.988281 221.285156 413.273438 214.222656 C 398.558594 255.609375 370.09375 297.652344 332.871094 333.152344 C 310.753906 354.195312 286.519531 372.054688 260.898438 386.28125 L 242.757812 396.214844 C 239.035156 398.253906 241.128906 403.984375 245.355469 403.125 L 265.390625 398.785156 C 297.109375 391.84375 331.15625 390.554688 363.734375 395.054688 C 392.503906 399.03125 418.988281 407.46875 440.617188 419.675781 C 419.316406 432.390625 393.132812 441.875 364.78125 446.953125 Z M 364.78125 446.953125 " fill-opacity="1" fill-rule="nonzero"/></g></g></g></g></g></g></svg>