<svg xmlns="http://www.w3.org/2000/svg" xmlns:xlink="http://www.w3.org/1999/xlink" width="800" zoomAndPan="magnify" viewBox="0 0 600 599.999999" height="800" preserveAspectRatio="xMidYMid meet" version="1.0"><defs><clipPath id="ffe8957b39"><path d="M 0 0 L 600 0 L 600 301 L 0 301 Z M 0 0 " clip-rule="nonzero"/></clipPath><clipPath id="1d47b62162"><path d="M -136.917969 36.285156 L 682.78125 0.00390625 L 694.453125 263.746094 L -125.242188 300.027344 Z M -136.917969 36.285156 " clip-rule="nonzero"/></clipPath><clipPath id="4f37187b08"><path d="M 0 300 L 600 300 L 600 600 L 0 600 Z M 0 300 " clip-rule="nonzero"/></clipPath><clipPath id="513a83f240"><path d="M -117.097656 300 L 702.3125 342.289062 L 689.011719 599.949219 L -130.394531 557.65625 Z M -117.097656 300 " clip-rule="nonzero"/></clipPath></defs><rect x="-60" width="720" fill="#ffffff" y="-60" height="719.999999" fill-opacity="1"/><rect x="-60" width="720" fill="#ffffff" y="-60" height="719.999999" fill-opacity="1"/><rect x="-60" width="720" fill="#ffffff" y="-60" height="719.999999" fill-opacity="1"/><g clip-path="url(#ffe8957b39)"><g clip-path="url(#1d47b62162)"><path fill="#f5b0c2" d="M -136.910156 36.285156 L 682.773438 0.00390625 L 694.445312 263.746094 L -125.234375 300.027344 L -136.910156 36.285156 " fill-opacity="1" fill-rule="nonzero"/></g></g><g clip-path="url(#4f37187b08)"><g clip-path="url(#513a83f240)"><path fill="#f5b0c2" d="M -117.097656 300 L 702.3125 342.292969 L 689.011719 599.945312 L -130.394531 557.65625 L -117.097656 300 " fill-opacity="1" fill-rule="nonzero"/></g></g></svg>