<svg xmlns="http://www.w3.org/2000/svg" xmlns:xlink="http://www.w3.org/1999/xlink" width="500" zoomAndPan="magnify" viewBox="0 0 375 187.499995" height="250" preserveAspectRatio="xMidYMid meet" version="1.0"><defs><g/><clipPath id="7e5bbf4476"><path d="M 243 102 L 275 102 L 275 166.46875 L 243 166.46875 Z M 243 102 " clip-rule="nonzero"/></clipPath><clipPath id="128466b50b"><path d="M 247 20.605469 L 275 20.605469 L 275 88 L 247 88 Z M 247 20.605469 " clip-rule="nonzero"/></clipPath><clipPath id="428f84ae78"><path d="M 253 76 L 355.699219 76 L 355.699219 111 L 253 111 Z M 253 76 " clip-rule="nonzero"/></clipPath></defs><path fill="#ffffff" d="M 232.339844 48.242188 C 227.960938 60.820312 231.597656 77.441406 239.398438 86.3125 C 227.167969 74.632812 221.09375 49.738281 227.558594 31.160156 C 242.730469 43.6875 250.464844 68.117188 246.074219 84.445312 C 248.132812 72.816406 242.617188 56.726562 232.339844 48.242188 Z M 232.339844 48.242188 " fill-opacity="1" fill-rule="nonzero"/><path fill="#ffffff" d="M 298.007812 114.324219 C 294.832031 114.335938 291.6875 114.21875 288.59375 113.976562 C 293.710938 119.613281 297.847656 126.070312 300.292969 132.894531 C 279.78125 132.65625 257.605469 118.714844 248.828125 102.789062 C 259.359375 126.589844 292.25 148.382812 322.539062 148.734375 C 317.894531 135.785156 308.886719 123.777344 298.007812 114.324219 Z M 298.007812 114.324219 " fill-opacity="1" fill-rule="nonzero"/><path fill="#ffffff" d="M 246.191406 103.085938 C 246.152344 102.933594 246.113281 102.777344 246.074219 102.625 C 246.097656 102.777344 246.121094 102.929688 246.144531 103.078125 Z M 246.191406 103.085938 " fill-opacity="1" fill-rule="nonzero"/><path fill="#ffffff" d="M 243.320312 133.007812 C 242.640625 131.058594 242.042969 129.09375 241.53125 127.125 C 239.1875 131.644531 236.082031 135.742188 232.339844 138.832031 C 227.960938 126.25 231.597656 109.632812 239.398438 100.761719 C 227.167969 112.441406 221.09375 137.335938 227.558594 155.910156 C 234.539062 150.148438 239.945312 141.863281 243.320312 133.007812 Z M 243.320312 133.007812 " fill-opacity="1" fill-rule="nonzero"/><g clip-path="url(#7e5bbf4476)"><path fill="#ffffff" d="M 272.066406 135.195312 C 269.8125 133.605469 267.652344 131.9375 265.589844 130.207031 C 266.15625 135.582031 265.894531 140.992188 264.617188 145.992188 C 251.117188 136.644531 242.664062 117.457031 243.984375 102.964844 C 240.292969 123.46875 252.328125 152.660156 272.261719 166.46875 C 274.785156 156.605469 274.476562 145.605469 272.066406 135.195312 Z M 272.066406 135.195312 " fill-opacity="1" fill-rule="nonzero"/></g><g clip-path="url(#128466b50b)"><path fill="#ffffff" d="M 247.589844 54.023438 C 248.234375 55.835938 248.808594 57.675781 249.292969 59.53125 C 252.921875 52.199219 258.195312 45.527344 264.613281 41.082031 C 268.683594 56.984375 262.484375 77.011719 251.984375 87.09375 C 268.21875 74.023438 278.269531 44.089844 272.261719 20.605469 C 261.105469 28.332031 252.425781 40.878906 247.589844 54.023438 Z M 247.589844 54.023438 " fill-opacity="1" fill-rule="nonzero"/></g><g clip-path="url(#428f84ae78)"><path fill="#ffffff" d="M 355.664062 93.535156 C 339.953125 82.621094 319.304688 77.109375 299.464844 76.757812 C 298.707031 77.394531 297.941406 78.023438 297.160156 78.644531 C 295.609375 79.878906 294.027344 81.058594 292.425781 82.183594 C 303.628906 83.640625 314.644531 87.398438 323.480469 93.535156 C 303.632812 107.324219 272.8125 109.097656 253.496094 99.816406 C 279.886719 115.457031 326.359375 113.898438 355.664062 93.535156 Z M 355.664062 93.535156 " fill-opacity="1" fill-rule="nonzero"/></g><path fill="#ffffff" d="M 273.417969 61.519531 C 281.832031 57.070312 291.226562 54.285156 300.292969 54.179688 C 293.371094 73.476562 272.941406 89.871094 255.015625 92.960938 C 280.964844 90.785156 312.316406 66.835938 322.539062 38.339844 C 306.367188 38.527344 289.453125 44.828125 275.597656 54.28125 C 274.984375 56.71875 274.253906 59.136719 273.417969 61.519531 Z M 273.417969 61.519531 " fill-opacity="1" fill-rule="nonzero"/><g fill="#ffffff" fill-opacity="1"><g transform="translate(19.291846, 143.171021)"><g><path d="M 8.609375 13.609375 C 9.960938 5.992188 11.835938 -2.296875 14.234375 -11.265625 C 16.640625 -20.234375 20.5 -32.851562 25.8125 -49.125 L 15.484375 -48.03125 C 15.585938 -52.625 19.921875 -55.804688 28.484375 -57.578125 C 32.335938 -69.367188 36.769531 -82.460938 41.78125 -96.859375 C 41.882812 -97.171875 42.273438 -98.316406 42.953125 -100.296875 C 43.628906 -102.273438 43.96875 -104.203125 43.96875 -106.078125 C 43.96875 -106.921875 43.835938 -107.5 43.578125 -107.8125 C 43.316406 -108.125 42.71875 -108.28125 41.78125 -108.28125 C 38.539062 -108.28125 35.4375 -106.609375 32.46875 -103.265625 C 29.5 -99.929688 27.070312 -95.914062 25.1875 -91.21875 C 23.3125 -86.53125 22.375 -82.410156 22.375 -78.859375 C 22.375 -76.878906 22.632812 -75.109375 23.15625 -73.546875 C 19.925781 -73.546875 17.550781 -74.351562 16.03125 -75.96875 C 14.519531 -77.582031 13.765625 -79.742188 13.765625 -82.453125 C 13.765625 -86.941406 15.507812 -91.554688 19 -96.296875 C 22.5 -101.046875 26.753906 -104.957031 31.765625 -108.03125 C 36.773438 -111.113281 41.207031 -112.65625 45.0625 -112.65625 C 47.664062 -112.65625 49.515625 -111.953125 50.609375 -110.546875 C 51.710938 -109.140625 52.265625 -107.335938 52.265625 -105.140625 C 52.265625 -103.367188 51.847656 -101.128906 51.015625 -98.421875 L 38.796875 -58.671875 C 42.554688 -58.878906 45.582031 -58.984375 47.875 -58.984375 C 56.007812 -58.984375 64.878906 -58.515625 74.484375 -57.578125 C 77.710938 -68.328125 80.8125 -78.132812 83.78125 -87 C 86.757812 -95.863281 88.925781 -101.703125 90.28125 -104.515625 C 92.78125 -109.941406 95.648438 -112.65625 98.890625 -112.65625 C 96.804688 -107.125 94.273438 -99.25 91.296875 -89.03125 C 88.328125 -78.8125 85.378906 -68.117188 82.453125 -56.953125 C 83.503906 -56.953125 85.175781 -56.847656 87.46875 -56.640625 C 90.59375 -56.429688 92.832031 -56.328125 94.1875 -56.328125 C 92.101562 -54.140625 90.070312 -52.757812 88.09375 -52.1875 C 86.113281 -51.613281 83.765625 -51.328125 81.046875 -51.328125 C 78.859375 -42.347656 77.242188 -35.203125 76.203125 -29.890625 C 72.753906 -13.503906 71.03125 -0.878906 71.03125 7.984375 C 71.03125 9.859375 71.132812 11.734375 71.34375 13.609375 C 67.382812 13.191406 64.59375 12.070312 62.96875 10.25 C 61.351562 8.425781 60.546875 5.476562 60.546875 1.40625 C 60.546875 -4.644531 61.800781 -12.519531 64.3125 -22.21875 C 65.976562 -29.101562 68.738281 -38.753906 72.59375 -51.171875 C 64.25 -51.171875 57.179688 -51.09375 51.390625 -50.9375 C 45.609375 -50.78125 40.523438 -50.488281 36.140625 -50.0625 C 27.171875 -21.800781 21.59375 -3.914062 19.40625 3.59375 C 18.363281 6.9375 16.796875 9.441406 14.703125 11.109375 C 12.617188 12.773438 10.585938 13.609375 8.609375 13.609375 Z M 8.609375 13.609375 "/></g></g></g><g fill="#ffffff" fill-opacity="1"><g transform="translate(115.83591, 143.171021)"><g><path d="M 8.609375 13.609375 C 9.960938 5.992188 11.835938 -2.296875 14.234375 -11.265625 C 16.640625 -20.234375 20.5 -32.851562 25.8125 -49.125 L 15.484375 -48.03125 C 15.585938 -52.625 19.921875 -55.804688 28.484375 -57.578125 C 32.335938 -69.367188 36.769531 -82.460938 41.78125 -96.859375 C 41.882812 -97.171875 42.273438 -98.316406 42.953125 -100.296875 C 43.628906 -102.273438 43.96875 -104.203125 43.96875 -106.078125 C 43.96875 -106.921875 43.835938 -107.5 43.578125 -107.8125 C 43.316406 -108.125 42.71875 -108.28125 41.78125 -108.28125 C 38.539062 -108.28125 35.4375 -106.609375 32.46875 -103.265625 C 29.5 -99.929688 27.070312 -95.914062 25.1875 -91.21875 C 23.3125 -86.53125 22.375 -82.410156 22.375 -78.859375 C 22.375 -76.878906 22.632812 -75.109375 23.15625 -73.546875 C 19.925781 -73.546875 17.550781 -74.351562 16.03125 -75.96875 C 14.519531 -77.582031 13.765625 -79.742188 13.765625 -82.453125 C 13.765625 -86.941406 15.507812 -91.554688 19 -96.296875 C 22.5 -101.046875 26.753906 -104.957031 31.765625 -108.03125 C 36.773438 -111.113281 41.207031 -112.65625 45.0625 -112.65625 C 47.664062 -112.65625 49.515625 -111.953125 50.609375 -110.546875 C 51.710938 -109.140625 52.265625 -107.335938 52.265625 -105.140625 C 52.265625 -103.367188 51.847656 -101.128906 51.015625 -98.421875 L 38.796875 -58.671875 C 42.554688 -58.878906 45.582031 -58.984375 47.875 -58.984375 C 56.007812 -58.984375 64.878906 -58.515625 74.484375 -57.578125 C 77.710938 -68.328125 80.8125 -78.132812 83.78125 -87 C 86.757812 -95.863281 88.925781 -101.703125 90.28125 -104.515625 C 92.78125 -109.941406 95.648438 -112.65625 98.890625 -112.65625 C 96.804688 -107.125 94.273438 -99.25 91.296875 -89.03125 C 88.328125 -78.8125 85.378906 -68.117188 82.453125 -56.953125 C 83.503906 -56.953125 85.175781 -56.847656 87.46875 -56.640625 C 90.59375 -56.429688 92.832031 -56.328125 94.1875 -56.328125 C 92.101562 -54.140625 90.070312 -52.757812 88.09375 -52.1875 C 86.113281 -51.613281 83.765625 -51.328125 81.046875 -51.328125 C 78.859375 -42.347656 77.242188 -35.203125 76.203125 -29.890625 C 72.753906 -13.503906 71.03125 -0.878906 71.03125 7.984375 C 71.03125 9.859375 71.132812 11.734375 71.34375 13.609375 C 67.382812 13.191406 64.59375 12.070312 62.96875 10.25 C 61.351562 8.425781 60.546875 5.476562 60.546875 1.40625 C 60.546875 -4.644531 61.800781 -12.519531 64.3125 -22.21875 C 65.976562 -29.101562 68.738281 -38.753906 72.59375 -51.171875 C 64.25 -51.171875 57.179688 -51.09375 51.390625 -50.9375 C 45.609375 -50.78125 40.523438 -50.488281 36.140625 -50.0625 C 27.171875 -21.800781 21.59375 -3.914062 19.40625 3.59375 C 18.363281 6.9375 16.796875 9.441406 14.703125 11.109375 C 12.617188 12.773438 10.585938 13.609375 8.609375 13.609375 Z M 8.609375 13.609375 "/></g></g></g></svg>